{
.appVersion = "1346";
DisplayStrings = (
"ABCDEFGHIJKLMN\012OPQRSTUVWXYZ\012abcdefghijklmn\012opqrstuvwxyz.,\0120123400/space HI4IH/space 0344F/space \012\012KAGOME",
"Almost/space before/space \012we/space knew/space it,/space we/space \012had/space left/space the/space \012ground./space \012\012\012\012\012"
);
copyright = "Copyright © 2020 by Coji Morishita. All rights reserved.";
customParameters = (
{
name = ROS;
value = "Adobe-Identity-0";
},
{
name = "Enforce Compatibility Check";
value = 1;
},
{
name = "Use Typo Metrics";
value = 1;
},
{
name = Axes;
value = (
{
Name = Weight;
Tag = wght;
}
);
}
);
date = "2020-05-07 02:34:13 +0000";
designer = "Coji Morishita";
designerURL = "http://www.underforest.com";
familyName = G8321;
fontMaster = (
{
alignmentZones = (
"{860, 16}",
"{730, 11}",
"{640, 16}",
"{0, -11}",
"{-140, -16}"
);
ascender = 860;
capHeight = 730;
custom = Thin;
descender = -140;
horizontalStems = (
20
);
iconName = Light_Extended;
id = "1129C829-629B-4701-B210-BDBC9A77493B";
userData = {
GSOffsetHorizontal = -20;
GSOffsetProportional = 1;
GSOffsetVertical = 10;
};
verticalStems = (
20
);
weightValue = 80;
xHeight = 640;
},
{
alignmentZones = (
"{860, 16}",
"{730, 11}",
"{640, 16}",
"{0, -11}",
"{-140, -16}"
);
ascender = 860;
capHeight = 730;
custom = Medium;
descender = -140;
horizontalStems = (
90
);
id = "928648ED-27D4-4C8B-90F5-D31CCAFF29AA";
userData = {
GSOffsetHorizontal = 1;
GSOffsetProportional = 1;
GSOffsetVertical = 0;
};
verticalStems = (
101
);
weightValue = 382;
xHeight = 640;
},
{
alignmentZones = (
"{860, 16}",
"{730, 11}",
"{640, 16}",
"{0, -11}",
"{-140, -16}"
);
ascender = 860;
capHeight = 730;
custom = Black;
descender = -140;
horizontalStems = (
210
);
iconName = Bold_Extended;
id = "C39F50C5-0462-4311-9594-9C3283D81B52";
userData = {
GSOffsetHorizontal = 3;
GSOffsetProportional = 1;
GSOffsetVertical = -50;
};
verticalStems = (
240
);
weightValue = 900;
xHeight = 640;
}
);
glyphs = (
{
color = 10;
glyphname = A;
lastChange = "2020-09-29 11:52:03 +0000";
layers = (
{
layerId = "C39F50C5-0462-4311-9594-9C3283D81B52";
paths = (
{
closed = 1;
nodes = (
"173 -5 OFFCURVE",
"211 22 OFFCURVE",
"231 61 CURVE SMOOTH",
"306 210 LINE",
"276 210 LINE",
"406 477 LINE",
"408 477 LINE",
"538 210 LINE",
"508 210 LINE",
"583 61 LINE SMOOTH",
"603 22 OFFCURVE",
"641 -5 OFFCURVE",
"688 -5 CURVE SMOOTH",
"751 -5 OFFCURVE",
"802 46 OFFCURVE",
"802 109 CURVE SMOOTH",
"802 129 OFFCURVE",
"797 148 OFFCURVE",
"789 164 CURVE SMOOTH",
"535 663 LINE SMOOTH",
"510 712 OFFCURVE",
"462 735 OFFCURVE",
"407 735 CURVE SMOOTH",
"352 735 OFFCURVE",
"304 712 OFFCURVE",
"279 663 CURVE SMOOTH",
"25 164 LINE SMOOTH",
"17 148 OFFCURVE",
"12 129 OFFCURVE",
"12 109 CURVE SMOOTH",
"12 46 OFFCURVE",
"63 -5 OFFCURVE",
"126 -5 CURVE SMOOTH"
);
},
{
closed = 1;
nodes = (
"657 120 LINE",
"657 300 LINE",
"157 300 LINE",
"157 120 LINE"
);
}
);
width = 814;
},
{
layerId = "928648ED-27D4-4C8B-90F5-D31CCAFF29AA";
paths = (
{
closed = 1;
nodes = (
"84 -5 OFFCURVE",
"101 6 OFFCURVE",
"109 23 CURVE SMOOTH",
"211 233 LINE",
"211 233 LINE",
"388 601 LINE",
"390 601 LINE",
"567 233 LINE",
"567 233 LINE",
"669 23 LINE SMOOTH",
"677 6 OFFCURVE",
"694 -5 OFFCURVE",
"714 -5 CURVE SMOOTH",
"740 -5 OFFCURVE",
"762 16 OFFCURVE",
"762 43 CURVE SMOOTH",
"762 51 OFFCURVE",
"760 59 OFFCURVE",
"756 67 CURVE SMOOTH",
"447 702 LINE SMOOTH",
"436 725 OFFCURVE",
"415 735 OFFCURVE",
"389 735 CURVE SMOOTH",
"363 735 OFFCURVE",
"342 725 OFFCURVE",
"331 702 CURVE SMOOTH",
"22 67 LINE SMOOTH",
"18 59 OFFCURVE",
"16 51 OFFCURVE",
"16 43 CURVE SMOOTH",
"16 16 OFFCURVE",
"38 -5 OFFCURVE",
"64 -5 CURVE SMOOTH"
);
},
{
closed = 1;
nodes = (
"629 185 LINE",
"629 277 LINE",
"148 277 LINE",
"148 185 LINE"
);
}
);
width = 778;
},
{
layerId = "1129C829-629B-4701-B210-BDBC9A77493B";
paths = (
{
closed = 1;
nodes = (
"34 -5 OFFCURVE",
"37 -3 OFFCURVE",
"39 1 CURVE SMOOTH",
"156 246 LINE",
"156 246 LINE",
"378 711 LINE",
"380 711 LINE",
"602 246 LINE",
"602 246 LINE",
"719 1 LINE SMOOTH",
"721 -3 OFFCURVE",
"724 -5 OFFCURVE",
"729 -5 CURVE SMOOTH",
"734 -5 OFFCURVE",
"738 -1 OFFCURVE",
"738 4 CURVE SMOOTH",
"738 6 OFFCURVE",
"738 7 OFFCURVE",
"737 10 CURVE SMOOTH",
"396 724 LINE SMOOTH",
"392 732 OFFCURVE",
"387 735 OFFCURVE",
"379 735 CURVE SMOOTH",
"371 735 OFFCURVE",
"366 732 OFFCURVE",
"362 724 CURVE SMOOTH",
"21 10 LINE SMOOTH",
"20 7 OFFCURVE",
"20 6 OFFCURVE",
"20 4 CURVE SMOOTH",
"20 -1 OFFCURVE",
"24 -5 OFFCURVE",
"29 -5 CURVE SMOOTH"
);
},
{
closed = 1;
nodes = (
"614 234 LINE",
"614 254 LINE",
"144 254 LINE",
"144 234 LINE"
);
}
);
width = 758;
}
);
leftKerningGroup = A;
leftMetricsKey = "=H*.2";
rightKerningGroup = A;
rightMetricsKey = "=|";
unicode = 0041;
},
{
color = 10;
glyphname = B;
lastChange = "2020-10-06 23:45:25 +0000";
layers = (
{
layerId = "928648ED-27D4-4C8B-90F5-D31CCAFF29AA";
paths = (
{
closed = 1;
nodes = (
"426 0 LINE",
"635 0 OFFCURVE",
"733 66 OFFCURVE",
"733 205 CURVE SMOOTH",
"733 304 OFFCURVE",
"684 363 OFFCURVE",
"580 389 CURVE",
"580 391 LINE",
"631 420 OFFCURVE",
"656 467 OFFCURVE",
"656 536 CURVE SMOOTH",
"656 665 OFFCURVE",
"570 730 OFFCURVE",
"400 730 CURVE SMOOTH",
"158 730 LINE SMOOTH",
"107 730 OFFCURVE",
"82 705 OFFCURVE",
"82 654 CURVE SMOOTH",
"82 76 LINE SMOOTH",
"82 25 OFFCURVE",
"107 0 OFFCURVE",
"158 0 CURVE"
);
},
{
closed = 1;
nodes = (
"182 640 LINE",
"394 640 LINE SMOOTH",
"509 640 OFFCURVE",
"560 606 OFFCURVE",
"560 531 CURVE SMOOTH",
"560 457 OFFCURVE",
"509 421 OFFCURVE",
"404 421 CURVE SMOOTH",
"132 421 LINE",
"132 333 LINE",
"433 333 LINE SMOOTH",
"571 333 OFFCURVE",
"633 295 OFFCURVE",
"633 211 CURVE SMOOTH",
"633 126 OFFCURVE",
"573 90 OFFCURVE",
"433 90 CURVE SMOOTH",
"182 90 LINE"
);
}
);
width = 758;
},
{
layerId = "C39F50C5-0462-4311-9594-9C3283D81B52";
paths = (
{
closed = 1;
nodes = (
"469 0 LINE SMOOTH",
"688 0 OFFCURVE",
"790 70 OFFCURVE",
"790 221 CURVE SMOOTH",
"790 313 OFFCURVE",
"752 374 OFFCURVE",
"676 408 CURVE",
"676 410 LINE",
"693 442 OFFCURVE",
"700 471 OFFCURVE",
"700 511 CURVE SMOOTH",
"700 656 OFFCURVE",
"609 730 OFFCURVE",
"429 730 CURVE SMOOTH",
"226 730 LINE SMOOTH",
"117 730 OFFCURVE",
"60 673 OFFCURVE",
"60 564 CURVE SMOOTH",
"60 166 LINE SMOOTH",
"60 57 OFFCURVE",
"117 0 OFFCURVE",
"226 0 CURVE SMOOTH"
);
},
{
closed = 1;
nodes = (
"298 540 LINE",
"411 540 LINE SMOOTH",
"454 540 OFFCURVE",
"474 526 OFFCURVE",
"474 495 CURVE SMOOTH",
"474 464 OFFCURVE",
"454 450 OFFCURVE",
"411 450 CURVE SMOOTH",
"179 450 LINE",
"179 284 LINE",
"489 284 LINE SMOOTH",
"532 284 OFFCURVE",
"552 269 OFFCURVE",
"552 237 CURVE SMOOTH",
"552 205 OFFCURVE",
"532 190 OFFCURVE",
"489 190 CURVE SMOOTH",
"298 190 LINE"
);
}
);
width = 808;
},
{
layerId = "1129C829-629B-4701-B210-BDBC9A77493B";
paths = (
{
closed = 1;
nodes = (
"400 0 LINE SMOOTH",
"603 0 OFFCURVE",
"700 61 OFFCURVE",
"700 195 CURVE SMOOTH",
"700 302 OFFCURVE",
"637 363 OFFCURVE",
"506 382 CURVE",
"506 384 LINE",
"588 408 OFFCURVE",
"630 464 OFFCURVE",
"630 550 CURVE SMOOTH",
"630 671 OFFCURVE",
"548 730 OFFCURVE",
"383 730 CURVE SMOOTH",
"120 730 LINE SMOOTH",
"106 730 OFFCURVE",
"100 724 OFFCURVE",
"100 710 CURVE SMOOTH",
"100 20 LINE SMOOTH",
"100 6 OFFCURVE",
"106 0 OFFCURVE",
"120 0 CURVE SMOOTH"
);
},
{
closed = 1;
nodes = (
"120 710 LINE",
"383 710 LINE SMOOTH",
"538 710 OFFCURVE",
"610 659 OFFCURVE",
"610 550 CURVE SMOOTH",
"610 443 OFFCURVE",
"541 390 OFFCURVE",
"400 390 CURVE SMOOTH",
"110 390 LINE",
"110 370 LINE",
"400 370 LINE SMOOTH",
"593 370 OFFCURVE",
"680 316 OFFCURVE",
"680 195 CURVE SMOOTH",
"680 74 OFFCURVE",
"593 20 OFFCURVE",
"400 20 CURVE SMOOTH",
"120 20 LINE"
);
}
);
width = 730;
}
);
leftKerningGroup = H;
leftMetricsKey = "=H";
rightKerningGroup = B;
rightMetricsKey = "=H*.3";
unicode = 0042;
},
{
color = 10;
glyphname = C;
lastChange = "2020-09-30 01:45:08 +0000";
layers = (
{
layerId = "1129C829-629B-4701-B210-BDBC9A77493B";
paths = (
{
closed = 1;
nodes = (
"532 -10 OFFCURVE",
"620 10 OFFCURVE",
"664 36 CURVE SMOOTH",
"667 38 OFFCURVE",
"669 40 OFFCURVE",
"669 44 CURVE SMOOTH",
"669 50 OFFCURVE",
"665 54 OFFCURVE",
"659 54 CURVE SMOOTH",
"657 54 OFFCURVE",
"656 54 OFFCURVE",
"652 52 CURVE SMOOTH",
"607 26 OFFCURVE",
"521 10 OFFCURVE",
"431 10 CURVE SMOOTH",
"220 10 OFFCURVE",
"75 154 OFFCURVE",
"75 365 CURVE SMOOTH",
"75 576 OFFCURVE",
"220 720 OFFCURVE",
"431 720 CURVE SMOOTH",
"521 720 OFFCURVE",
"607 704 OFFCURVE",
"652 678 CURVE SMOOTH",
"656 676 OFFCURVE",
"657 676 OFFCURVE",
"659 676 CURVE SMOOTH",
"665 676 OFFCURVE",
"669 680 OFFCURVE",
"669 686 CURVE SMOOTH",
"669 690 OFFCURVE",
"667 692 OFFCURVE",
"664 694 CURVE SMOOTH",
"620 720 OFFCURVE",
"532 740 OFFCURVE",
"431 740 CURVE SMOOTH",
"209 740 OFFCURVE",
"55 587 OFFCURVE",
"55 365 CURVE SMOOTH",
"55 143 OFFCURVE",
"209 -10 OFFCURVE",
"431 -10 CURVE SMOOTH"
);
}
);
width = 749;
},
{
layerId = "C39F50C5-0462-4311-9594-9C3283D81B52";
paths = (
{
closed = 1;
nodes = (
"563 -10 OFFCURVE",
"662 19 OFFCURVE",
"698 70 CURVE SMOOTH",
"710 86 OFFCURVE",
"716 105 OFFCURVE",
"716 127 CURVE SMOOTH",
"716 189 OFFCURVE",
"668 237 OFFCURVE",
"606 237 CURVE SMOOTH",
"589 237 OFFCURVE",
"564 232 OFFCURVE",
"553 229 CURVE SMOOTH",
"488 210 OFFCURVE",
"463 205 OFFCURVE",
"435 205 CURVE SMOOTH",
"336 205 OFFCURVE",
"273 267 OFFCURVE",
"273 365 CURVE SMOOTH",
"273 463 OFFCURVE",
"336 525 OFFCURVE",
"435 525 CURVE SMOOTH",
"463 525 OFFCURVE",
"488 520 OFFCURVE",
"553 501 CURVE SMOOTH",
"564 498 OFFCURVE",
"589 493 OFFCURVE",
"606 493 CURVE SMOOTH",
"668 493 OFFCURVE",
"716 541 OFFCURVE",
"716 603 CURVE SMOOTH",
"716 625 OFFCURVE",
"710 644 OFFCURVE",
"698 660 CURVE SMOOTH",
"662 711 OFFCURVE",
"563 740 OFFCURVE",
"429 740 CURVE SMOOTH",
"195 740 OFFCURVE",
"33 587 OFFCURVE",
"33 365 CURVE SMOOTH",
"33 143 OFFCURVE",
"195 -10 OFFCURVE",
"429 -10 CURVE SMOOTH"
);
}
);
width = 764;
},
{
background = {
paths = (
{
closed = 1;
nodes = (
"541 -10 OFFCURVE",
"633 13 OFFCURVE",
"674 49 CURVE SMOOTH",
"681 56 OFFCURVE",
"684 64 OFFCURVE",
"684 75 CURVE SMOOTH",
"684 101 OFFCURVE",
"664 121 OFFCURVE",
"637 121 CURVE SMOOTH",
"630 121 OFFCURVE",
"620 120 OFFCURVE",
"613 117 CURVE SMOOTH",
"561 94 OFFCURVE",
"498 82 OFFCURVE",
"430 82 CURVE SMOOTH",
"261 82 OFFCURVE",
"146 196 OFFCURVE",
"146 365 CURVE SMOOTH",
"146 534 OFFCURVE",
"261 648 OFFCURVE",
"430 648 CURVE SMOOTH",
"498 648 OFFCURVE",
"561 636 OFFCURVE",
"613 613 CURVE SMOOTH",
"620 610 OFFCURVE",
"630 609 OFFCURVE",
"637 609 CURVE SMOOTH",
"664 609 OFFCURVE",
"684 629 OFFCURVE",
"684 655 CURVE SMOOTH",
"684 666 OFFCURVE",
"681 674 OFFCURVE",
"674 681 CURVE SMOOTH",
"633 717 OFFCURVE",
"541 740 OFFCURVE",
"428 740 CURVE SMOOTH",
"202 740 OFFCURVE",
"45 587 OFFCURVE",
"45 365 CURVE SMOOTH",
"45 143 OFFCURVE",
"202 -10 OFFCURVE",
"428 -10 CURVE SMOOTH"
);
}
);
};
layerId = "928648ED-27D4-4C8B-90F5-D31CCAFF29AA";
paths = (
{
closed = 1;
nodes = (
"533 -10 OFFCURVE",
"621 9 OFFCURVE",
"666 40 CURVE SMOOTH",
"677 48 OFFCURVE",
"684 61 OFFCURVE",
"684 76 CURVE SMOOTH",
"684 101 OFFCURVE",
"664 121 OFFCURVE",
"639 121 CURVE SMOOTH",
"632 121 OFFCURVE",
"627 120 OFFCURVE",
"620 117 CURVE SMOOTH",
"566 94 OFFCURVE",
"500 82 OFFCURVE",
"430 82 CURVE SMOOTH",
"261 82 OFFCURVE",
"146 196 OFFCURVE",
"146 365 CURVE SMOOTH",
"146 534 OFFCURVE",
"261 648 OFFCURVE",
"430 648 CURVE SMOOTH",
"500 648 OFFCURVE",
"566 636 OFFCURVE",
"620 613 CURVE SMOOTH",
"627 610 OFFCURVE",
"632 609 OFFCURVE",
"639 609 CURVE SMOOTH",
"664 609 OFFCURVE",
"684 629 OFFCURVE",
"684 654 CURVE SMOOTH",
"684 669 OFFCURVE",
"677 682 OFFCURVE",
"666 690 CURVE SMOOTH",
"621 721 OFFCURVE",
"533 740 OFFCURVE",
"428 740 CURVE SMOOTH",
"202 740 OFFCURVE",
"45 587 OFFCURVE",
"45 365 CURVE SMOOTH",
"45 143 OFFCURVE",
"202 -10 OFFCURVE",
"428 -10 CURVE SMOOTH"
);
}
);
width = 750;
}
);
leftKerningGroup = O;
leftMetricsKey = "=O";
rightKerningGroup = C;
rightMetricsKey = "=H*.8";
unicode = 0043;
},
{
color = 10;
glyphname = D;
lastChange = "2020-09-27 06:17:14 +0000";
layers = (
{
layerId = "C39F50C5-0462-4311-9594-9C3283D81B52";
paths = (
{
closed = 1;
nodes = (
"375 0 LINE SMOOTH",
"624 0 OFFCURVE",
"780 141 OFFCURVE",
"780 365 CURVE SMOOTH",
"780 589 OFFCURVE",
"624 730 OFFCURVE",
"375 730 CURVE SMOOTH",
"226 730 LINE SMOOTH",
"117 730 OFFCURVE",
"60 673 OFFCURVE",
"60 564 CURVE SMOOTH",
"60 166 LINE SMOOTH",
"60 57 OFFCURVE",
"117 0 OFFCURVE",
"226 0 CURVE SMOOTH"
);
},
{
closed = 1;
nodes = (
"300 518 LINE",
"365 518 LINE SMOOTH",
"473 518 OFFCURVE",
"545 457 OFFCURVE",
"545 365 CURVE SMOOTH",
"545 273 OFFCURVE",
"473 212 OFFCURVE",
"365 212 CURVE SMOOTH",
"300 212 LINE"
);
}
);
width = 813;
},
{
layerId = "928648ED-27D4-4C8B-90F5-D31CCAFF29AA";
paths = (
{
closed = 1;
nodes = (
"298 0 LINE SMOOTH",
"568 0 OFFCURVE",
"722 133 OFFCURVE",
"722 365 CURVE SMOOTH",
"722 597 OFFCURVE",
"568 730 OFFCURVE",
"298 730 CURVE SMOOTH",
"158 730 LINE SMOOTH",
"107 730 OFFCURVE",
"82 705 OFFCURVE",
"82 654 CURVE SMOOTH",
"82 76 LINE SMOOTH",
"82 25 OFFCURVE",
"107 0 OFFCURVE",
"158 0 CURVE SMOOTH"
);
},
{
closed = 1;
nodes = (
"183 638 LINE",
"294 638 LINE SMOOTH",
"505 638 OFFCURVE",
"622 540 OFFCURVE",
"622 365 CURVE SMOOTH",
"622 190 OFFCURVE",
"505 92 OFFCURVE",
"294 92 CURVE SMOOTH",
"183 92 LINE"
);
}
);
width = 767;
},
{
layerId = "1129C829-629B-4701-B210-BDBC9A77493B";
paths = (
{
closed = 1;
nodes = (
"255 0 LINE SMOOTH",
"537 0 OFFCURVE",
"690 128 OFFCURVE",
"690 365 CURVE SMOOTH",
"690 602 OFFCURVE",
"537 730 OFFCURVE",
"255 730 CURVE SMOOTH",
"120 730 LINE SMOOTH",
"106 730 OFFCURVE",
"100 724 OFFCURVE",
"100 710 CURVE SMOOTH",
"100 20 LINE SMOOTH",
"100 6 OFFCURVE",
"106 0 OFFCURVE",
"120 0 CURVE SMOOTH"
);
},
{
closed = 1;
nodes = (
"120 710 LINE",
"255 710 LINE SMOOTH",
"527 710 OFFCURVE",
"670 590 OFFCURVE",
"670 365 CURVE SMOOTH",
"670 140 OFFCURVE",
"527 20 OFFCURVE",
"255 20 CURVE SMOOTH",
"120 20 LINE"
);
}
);
width = 745;
}
);
leftKerningGroup = H;
leftMetricsKey = "=H";
rightKerningGroup = O;
rightMetricsKey = "=O";
unicode = 0044;
},
{
color = 10;
glyphname = E;
lastChange = "2020-09-27 06:25:26 +0000";
layers = (
{
layerId = "C39F50C5-0462-4311-9594-9C3283D81B52";
paths = (
{
closed = 1;
nodes = (
"587 0 LINE SMOOTH",
"659 0 OFFCURVE",
"700 38 OFFCURVE",
"700 103 CURVE SMOOTH",
"700 168 OFFCURVE",
"659 206 OFFCURVE",
"587 206 CURVE SMOOTH",
"300 206 LINE",
"300 269 LINE",
"587 269 LINE SMOOTH",
"657 269 OFFCURVE",
"695 304 OFFCURVE",
"695 367 CURVE SMOOTH",
"695 430 OFFCURVE",
"657 465 OFFCURVE",
"587 465 CURVE SMOOTH",
"300 465 LINE",
"300 524 LINE",
"587 524 LINE SMOOTH",
"659 524 OFFCURVE",
"700 562 OFFCURVE",
"700 627 CURVE SMOOTH",
"700 692 OFFCURVE",
"659 730 OFFCURVE",
"587 730 CURVE SMOOTH",
"226 730 LINE SMOOTH",
"117 730 OFFCURVE",
"60 673 OFFCURVE",
"60 564 CURVE SMOOTH",
"60 166 LINE SMOOTH",
"60 57 OFFCURVE",
"117 0 OFFCURVE",
"226 0 CURVE SMOOTH"
);
}
);
width = 742;
},
{
layerId = "1129C829-629B-4701-B210-BDBC9A77493B";
paths = (
{
closed = 1;
nodes = (
"631 0 LINE SMOOTH",
"637 0 OFFCURVE",
"641 4 OFFCURVE",
"641 10 CURVE SMOOTH",
"641 16 OFFCURVE",
"637 20 OFFCURVE",
"631 20 CURVE SMOOTH",
"120 20 LINE",
"120 370 LINE",
"626 370 LINE SMOOTH",
"632 370 OFFCURVE",
"636 374 OFFCURVE",
"636 380 CURVE SMOOTH",
"636 386 OFFCURVE",
"632 390 OFFCURVE",
"626 390 CURVE SMOOTH",
"120 390 LINE",
"120 710 LINE",
"631 710 LINE SMOOTH",
"637 710 OFFCURVE",
"641 714 OFFCURVE",
"641 720 CURVE SMOOTH",
"641 726 OFFCURVE",
"637 730 OFFCURVE",
"631 730 CURVE SMOOTH",
"120 730 LINE SMOOTH",
"106 730 OFFCURVE",
"100 724 OFFCURVE",
"100 710 CURVE SMOOTH",
"100 20 LINE SMOOTH",
"100 6 OFFCURVE",
"106 0 OFFCURVE",
"120 0 CURVE SMOOTH"
);
}
);
width = 711;
},
{
layerId = "928648ED-27D4-4C8B-90F5-D31CCAFF29AA";
paths = (
{
closed = 1;
nodes = (
"608 0 LINE SMOOTH",
"638 0 OFFCURVE",
"656 17 OFFCURVE",
"656 46 CURVE SMOOTH",
"656 75 OFFCURVE",
"638 92 OFFCURVE",
"608 92 CURVE SMOOTH",
"183 92 LINE",
"183 332 LINE",
"603 332 LINE SMOOTH",
"633 332 OFFCURVE",
"651 349 OFFCURVE",
"651 377 CURVE SMOOTH",
"651 405 OFFCURVE",
"633 422 OFFCURVE",
"603 422 CURVE SMOOTH",
"183 422 LINE",
"183 638 LINE",
"608 638 LINE SMOOTH",
"638 638 OFFCURVE",
"656 655 OFFCURVE",
"656 684 CURVE SMOOTH",
"656 713 OFFCURVE",
"638 730 OFFCURVE",
"608 730 CURVE SMOOTH",
"158 730 LINE SMOOTH",
"107 730 OFFCURVE",
"82 705 OFFCURVE",
"82 654 CURVE SMOOTH",
"82 76 LINE SMOOTH",
"82 25 OFFCURVE",
"107 0 OFFCURVE",
"158 0 CURVE SMOOTH"
);
}
);
width = 713;
}
);
leftKerningGroup = H;
leftMetricsKey = "=H";
rightKerningGroup = E;
rightMetricsKey = "=H*.7";
unicode = 0045;
},
{
color = 10;
glyphname = F;
lastChange = "2020-09-27 06:19:42 +0000";
layers = (
{
layerId = "1129C829-629B-4701-B210-BDBC9A77493B";
paths = (
{
closed = 1;
nodes = (
"116 -5 OFFCURVE",
"120 -1 OFFCURVE",
"120 5 CURVE",
"120 350 LINE",
"626 350 LINE SMOOTH",
"632 350 OFFCURVE",
"636 354 OFFCURVE",
"636 360 CURVE SMOOTH",
"636 366 OFFCURVE",
"632 370 OFFCURVE",
"626 370 CURVE SMOOTH",
"120 370 LINE",
"120 710 LINE",
"631 710 LINE SMOOTH",
"637 710 OFFCURVE",
"641 714 OFFCURVE",
"641 720 CURVE SMOOTH",
"641 726 OFFCURVE",
"637 730 OFFCURVE",
"631 730 CURVE SMOOTH",
"120 730 LINE SMOOTH",
"106 730 OFFCURVE",
"100 724 OFFCURVE",
"100 710 CURVE SMOOTH",
"100 5 LINE SMOOTH",
"100 -1 OFFCURVE",
"104 -5 OFFCURVE",
"110 -5 CURVE SMOOTH"
);
}
);
width = 691;
},
{
layerId = "C39F50C5-0462-4311-9594-9C3283D81B52";
paths = (
{
closed = 1;
nodes = (
"259 -5 OFFCURVE",
"304 44 OFFCURVE",
"304 126 CURVE SMOOTH",
"304 231 LINE",
"587 231 LINE SMOOTH",
"657 231 OFFCURVE",
"695 267 OFFCURVE",
"695 333 CURVE SMOOTH",
"695 399 OFFCURVE",
"657 435 OFFCURVE",
"587 435 CURVE SMOOTH",
"304 435 LINE",
"304 522 LINE",
"587 522 LINE SMOOTH",
"659 522 OFFCURVE",
"700 560 OFFCURVE",
"700 626 CURVE SMOOTH",
"700 692 OFFCURVE",
"659 730 OFFCURVE",
"587 730 CURVE SMOOTH",
"226 730 LINE SMOOTH",
"117 730 OFFCURVE",
"60 673 OFFCURVE",
"60 564 CURVE SMOOTH",
"60 126 LINE SMOOTH",
"60 44 OFFCURVE",
"105 -5 OFFCURVE",
"182 -5 CURVE SMOOTH"
);
}
);
width = 730;
},
{
layerId = "928648ED-27D4-4C8B-90F5-D31CCAFF29AA";
paths = (
{
closed = 1;
nodes = (
"165 -5 OFFCURVE",
"184 16 OFFCURVE",
"184 50 CURVE SMOOTH",
"184 304 LINE",
"608 304 LINE SMOOTH",
"638 304 OFFCURVE",
"654 321 OFFCURVE",
"654 350 CURVE SMOOTH",
"654 379 OFFCURVE",
"638 396 OFFCURVE",
"608 396 CURVE SMOOTH",
"184 396 LINE",
"184 638 LINE",
"611 638 LINE SMOOTH",
"641 638 OFFCURVE",
"659 655 OFFCURVE",
"659 684 CURVE SMOOTH",
"659 713 OFFCURVE",
"641 730 OFFCURVE",
"611 730 CURVE SMOOTH",
"155 730 LINE SMOOTH",
"106 730 OFFCURVE",
"82 705 OFFCURVE",
"82 656 CURVE SMOOTH",
"82 50 LINE SMOOTH",
"82 16 OFFCURVE",
"101 -5 OFFCURVE",
"133 -5 CURVE SMOOTH"
);
}
);
width = 700;
}
);
leftKerningGroup = H;
leftMetricsKey = "=H";
rightKerningGroup = F;
rightMetricsKey = "=H*.5";
unicode = 0046;
},
{
color = 10;
glyphname = G;
lastChange = "2020-09-30 08:29:35 +0000";
layers = (
{
layerId = "C39F50C5-0462-4311-9594-9C3283D81B52";
paths = (
{
closed = 1;
nodes = (
"651 -10 OFFCURVE",
"803 105 OFFCURVE",
"803 274 CURVE SMOOTH",
"803 328 LINE SMOOTH",
"803 423 OFFCURVE",
"756 470 OFFCURVE",
"661 470 CURVE SMOOTH",
"445 470 LINE SMOOTH",
"378 470 OFFCURVE",
"332 428 OFFCURVE",
"332 367 CURVE SMOOTH",
"332 306 OFFCURVE",
"378 264 OFFCURVE",
"445 264 CURVE SMOOTH",
"558 264 LINE",
"558 249 LINE SMOOTH",
"558 220 OFFCURVE",
"507 200 OFFCURVE",
"434 200 CURVE SMOOTH",
"333 200 OFFCURVE",
"268 265 OFFCURVE",
"268 365 CURVE SMOOTH",
"268 465 OFFCURVE",
"333 530 OFFCURVE",
"435 530 CURVE SMOOTH",
"463 530 OFFCURVE",
"488 525 OFFCURVE",
"554 506 CURVE SMOOTH",
"572 501 OFFCURVE",
"589 497 OFFCURVE",
"606 497 CURVE SMOOTH",
"667 497 OFFCURVE",
"716 546 OFFCURVE",
"716 607 CURVE SMOOTH",
"716 629 OFFCURVE",
"710 648 OFFCURVE",
"698 664 CURVE SMOOTH",
"662 714 OFFCURVE",
"570 740 OFFCURVE",
"429 740 CURVE SMOOTH",
"195 740 OFFCURVE",
"33 587 OFFCURVE",
"33 365 CURVE SMOOTH",
"33 143 OFFCURVE",
"195 -10 OFFCURVE",
"429 -10 CURVE SMOOTH"
);
}
);
width = 833;
},
{
layerId = "928648ED-27D4-4C8B-90F5-D31CCAFF29AA";
paths = (
{
closed = 1;
nodes = (
"649 -10 OFFCURVE",
"796 107 OFFCURVE",
"796 278 CURVE SMOOTH",
"796 358 LINE SMOOTH",
"796 402 OFFCURVE",
"775 423 OFFCURVE",
"731 423 CURVE SMOOTH",
"385 424 LINE SMOOTH",
"357 424 OFFCURVE",
"337 406 OFFCURVE",
"337 378 CURVE SMOOTH",
"337 350 OFFCURVE",
"357 332 OFFCURVE",
"385 332 CURVE SMOOTH",
"693 332 LINE",
"693 269 LINE SMOOTH",
"693 157 OFFCURVE",
"589 80 OFFCURVE",
"436 80 CURVE SMOOTH",
"260 80 OFFCURVE",
"144 194 OFFCURVE",
"144 365 CURVE SMOOTH",
"144 534 OFFCURVE",
"260 650 OFFCURVE",
"430 650 CURVE SMOOTH",
"508 650 OFFCURVE",
"585 624 OFFCURVE",
"649 579 CURVE SMOOTH",
"659 574 OFFCURVE",
"666 572 OFFCURVE",
"675 572 CURVE SMOOTH",
"702 572 OFFCURVE",
"722 592 OFFCURVE",
"722 618 CURVE SMOOTH",
"722 628 OFFCURVE",
"718 638 OFFCURVE",
"711 646 CURVE SMOOTH",
"656 705 OFFCURVE",
"551 740 OFFCURVE",
"428 740 CURVE SMOOTH",
"202 740 OFFCURVE",
"45 586 OFFCURVE",
"45 365 CURVE SMOOTH",
"45 142 OFFCURVE",
"202 -10 OFFCURVE",
"434 -10 CURVE SMOOTH"
);
}
);
width = 837;
},
{
layerId = "1129C829-629B-4701-B210-BDBC9A77493B";
paths = (
{
closed = 1;
nodes = (
"651 -10 OFFCURVE",
"795 108 OFFCURVE",
"795 280 CURVE SMOOTH",
"795 370 LINE SMOOTH",
"795 385 OFFCURVE",
"790 390 OFFCURVE",
"775 390 CURVE SMOOTH",
"354 390 LINE",
"348 390 OFFCURVE",
"344 386 OFFCURVE",
"344 380 CURVE",
"344 374 OFFCURVE",
"348 370 OFFCURVE",
"354 370 CURVE",
"775 370 LINE",
"775 280 LINE SMOOTH",
"775 120 OFFCURVE",
"640 10 OFFCURVE",
"440 10 CURVE SMOOTH",
"221 10 OFFCURVE",
"75 152 OFFCURVE",
"75 365 CURVE SMOOTH",
"75 575 OFFCURVE",
"220 720 OFFCURVE",
"430 720 CURVE SMOOTH",
"538 720 OFFCURVE",
"645 682 OFFCURVE",
"708 622 CURVE SMOOTH",
"713 617 OFFCURVE",
"715 615 OFFCURVE",
"719 615 CURVE SMOOTH",
"725 615 OFFCURVE",
"729 619 OFFCURVE",
"729 625 CURVE SMOOTH",
"729 628 OFFCURVE",
"726 632 OFFCURVE",
"722 636 CURVE SMOOTH",
"656 700 OFFCURVE",
"544 740 OFFCURVE",
"430 740 CURVE SMOOTH",
"209 740 OFFCURVE",
"55 586 OFFCURVE",
"55 365 CURVE SMOOTH",
"55 141 OFFCURVE",
"210 -10 OFFCURVE",
"440 -10 CURVE SMOOTH"
);
}
);
width = 845;
}
);
leftKerningGroup = O;
leftMetricsKey = "=O";
rightKerningGroup = O;
rightMetricsKey = "=|*.9";
unicode = 0047;
},
{
color = 10;
glyphname = H;
lastChange = "2020-09-30 14:06:30 +0000";
layers = (
{
layerId = "1129C829-629B-4701-B210-BDBC9A77493B";
paths = (
{
closed = 1;
nodes = (
"116 -5 OFFCURVE",
"120 -1 OFFCURVE",
"120 5 CURVE SMOOTH",
"120 370 LINE",
"680 370 LINE",
"680 5 LINE SMOOTH",
"680 -1 OFFCURVE",
"684 -5 OFFCURVE",
"690 -5 CURVE SMOOTH",
"696 -5 OFFCURVE",
"700 -1 OFFCURVE",
"700 5 CURVE SMOOTH",
"700 725 LINE SMOOTH",
"700 731 OFFCURVE",
"696 735 OFFCURVE",
"690 735 CURVE SMOOTH",
"684 735 OFFCURVE",
"680 731 OFFCURVE",
"680 725 CURVE SMOOTH",
"680 390 LINE",
"120 390 LINE",
"120 725 LINE SMOOTH",
"120 731 OFFCURVE",
"116 735 OFFCURVE",
"110 735 CURVE SMOOTH",
"104 735 OFFCURVE",
"100 731 OFFCURVE",
"100 725 CURVE SMOOTH",
"100 5 LINE SMOOTH",
"100 -1 OFFCURVE",
"104 -5 OFFCURVE",
"110 -5 CURVE SMOOTH"
);
}
);
width = 800;
},
{
layerId = "C39F50C5-0462-4311-9594-9C3283D81B52";
paths = (
{
closed = 1;
nodes = (
"255 -5 OFFCURVE",
"300 44 OFFCURVE",
"300 125 CURVE SMOOTH",
"300 262 LINE",
"510 262 LINE",
"510 125 LINE SMOOTH",
"510 44 OFFCURVE",
"555 -5 OFFCURVE",
"630 -5 CURVE SMOOTH",
"705 -5 OFFCURVE",
"750 44 OFFCURVE",
"750 125 CURVE SMOOTH",
"750 605 LINE SMOOTH",
"750 686 OFFCURVE",
"705 735 OFFCURVE",
"630 735 CURVE SMOOTH",
"555 735 OFFCURVE",
"510 686 OFFCURVE",
"510 605 CURVE SMOOTH",
"510 472 LINE",
"300 472 LINE",
"300 605 LINE SMOOTH",
"300 686 OFFCURVE",
"255 735 OFFCURVE",
"180 735 CURVE SMOOTH",
"105 735 OFFCURVE",
"60 686 OFFCURVE",
"60 605 CURVE SMOOTH",
"60 125 LINE SMOOTH",
"60 44 OFFCURVE",
"105 -5 OFFCURVE",
"180 -5 CURVE SMOOTH"
);
}
);
width = 810;
},
{
layerId = "928648ED-27D4-4C8B-90F5-D31CCAFF29AA";
paths = (
{
closed = 1;
nodes = (
"163 -5 OFFCURVE",
"182 16 OFFCURVE",
"182 49 CURVE SMOOTH",
"182 331 LINE",
"616 331 LINE",
"616 49 LINE SMOOTH",
"616 16 OFFCURVE",
"635 -5 OFFCURVE",
"666 -5 CURVE SMOOTH",
"697 -5 OFFCURVE",
"716 16 OFFCURVE",
"716 49 CURVE SMOOTH",
"716 681 LINE SMOOTH",
"716 714 OFFCURVE",
"697 735 OFFCURVE",
"666 735 CURVE SMOOTH",
"635 735 OFFCURVE",
"616 714 OFFCURVE",
"616 681 CURVE SMOOTH",
"616 423 LINE",
"182 423 LINE",
"182 681 LINE SMOOTH",
"182 714 OFFCURVE",
"163 735 OFFCURVE",
"132 735 CURVE SMOOTH",
"101 735 OFFCURVE",
"82 714 OFFCURVE",
"82 681 CURVE SMOOTH",
"82 49 LINE SMOOTH",
"82 16 OFFCURVE",
"101 -5 OFFCURVE",
"132 -5 CURVE SMOOTH"
);
}
);
width = 798;
}
);
leftKerningGroup = H;
rightKerningGroup = H;
rightMetricsKey = "=|";
unicode = 0048;
},
{
color = 10;
glyphname = I;
lastChange = "2020-09-27 06:08:37 +0000";
layers = (
{
layerId = "1129C829-629B-4701-B210-BDBC9A77493B";
paths = (
{
closed = 1;
nodes = (
"126 -5 OFFCURVE",
"130 -1 OFFCURVE",
"130 5 CURVE SMOOTH",
"130 725 LINE SMOOTH",
"130 731 OFFCURVE",
"126 735 OFFCURVE",
"120 735 CURVE SMOOTH",
"114 735 OFFCURVE",
"110 731 OFFCURVE",
"110 725 CURVE SMOOTH",
"110 5 LINE SMOOTH",
"110 -1 OFFCURVE",
"114 -5 OFFCURVE",
"120 -5 CURVE SMOOTH"
);
}
);
width = 240;
},
{
layerId = "C39F50C5-0462-4311-9594-9C3283D81B52";
paths = (
{
closed = 1;
nodes = (
"269 -5 OFFCURVE",
"316 45 OFFCURVE",
"316 130 CURVE SMOOTH",
"316 600 LINE SMOOTH",
"316 685 OFFCURVE",
"269 735 OFFCURVE",
"191 735 CURVE SMOOTH",
"113 735 OFFCURVE",
"66 685 OFFCURVE",
"66 600 CURVE SMOOTH",
"66 130 LINE SMOOTH",
"66 45 OFFCURVE",
"113 -5 OFFCURVE",
"191 -5 CURVE SMOOTH"
);
}
);
width = 382;
},
{
layerId = "928648ED-27D4-4C8B-90F5-D31CCAFF29AA";
paths = (
{
closed = 1;
nodes = (
"173 -5 OFFCURVE",
"192 16 OFFCURVE",
"192 51 CURVE SMOOTH",
"192 679 LINE SMOOTH",
"192 714 OFFCURVE",
"173 735 OFFCURVE",
"141 735 CURVE SMOOTH",
"109 735 OFFCURVE",
"90 714 OFFCURVE",
"90 679 CURVE SMOOTH",
"90 51 LINE SMOOTH",
"90 16 OFFCURVE",
"109 -5 OFFCURVE",
"141 -5 CURVE SMOOTH"
);
}
);
width = 282;
}
);
leftKerningGroup = I;
leftMetricsKey = "=H*1.1";
rightKerningGroup = I;
rightMetricsKey = "=|";
unicode = 0049;
},
{
color = 10;
glyphname = J;
lastChange = "2020-09-30 14:15:28 +0000";
layers = (
{
layerId = "1129C829-629B-4701-B210-BDBC9A77493B";
paths = (
{
closed = 1;
nodes = (
"543 -10 OFFCURVE",
"650 104 OFFCURVE",
"650 305 CURVE SMOOTH",
"650 725 LINE SMOOTH",
"650 731 OFFCURVE",
"646 735 OFFCURVE",
"640 735 CURVE SMOOTH",
"634 735 OFFCURVE",
"630 731 OFFCURVE",
"630 725 CURVE SMOOTH",
"630 305 LINE SMOOTH",
"630 115 OFFCURVE",
"532 10 OFFCURVE",
"355 10 CURVE SMOOTH",
"178 10 OFFCURVE",
"80 115 OFFCURVE",
"80 305 CURVE SMOOTH",
"80 445 LINE SMOOTH",
"80 451 OFFCURVE",
"76 455 OFFCURVE",
"70 455 CURVE SMOOTH",
"64 455 OFFCURVE",
"60 451 OFFCURVE",
"60 445 CURVE SMOOTH",
"60 305 LINE SMOOTH",
"60 104 OFFCURVE",
"167 -10 OFFCURVE",
"355 -10 CURVE SMOOTH"
);
}
);
width = 740;
},
{
layerId = "928648ED-27D4-4C8B-90F5-D31CCAFF29AA";
paths = (
{
closed = 1;
nodes = (
"560 -10 OFFCURVE",
"673 104 OFFCURVE",
"673 305 CURVE SMOOTH",
"673 680 LINE SMOOTH",
"673 714 OFFCURVE",
"654 735 OFFCURVE",
"621 735 CURVE SMOOTH",
"589 735 OFFCURVE",
"569 714 OFFCURVE",
"569 680 CURVE SMOOTH",
"569 320 LINE SMOOTH",
"569 162 OFFCURVE",
"498 82 OFFCURVE",
"359 82 CURVE SMOOTH",
"223 82 OFFCURVE",
"151 160 OFFCURVE",
"151 309 CURVE SMOOTH",
"151 418 LINE SMOOTH",
"151 452 OFFCURVE",
"131 473 OFFCURVE",
"100 473 CURVE SMOOTH",
"69 473 OFFCURVE",
"49 452 OFFCURVE",
"49 418 CURVE SMOOTH",
"49 305 LINE SMOOTH",
"49 104 OFFCURVE",
"162 -10 OFFCURVE",
"361 -10 CURVE SMOOTH"
);
}
);
width = 747;
},
{
background = {
paths = (
{
closed = 0;
nodes = (
"376 -10 LINE SMOOTH",
"159 -10 OFFCURVE",
"36 104 OFFCURVE",
"36 305 CURVE SMOOTH"
);
}
);
};
layerId = "C39F50C5-0462-4311-9594-9C3283D81B52";
paths = (
{
closed = 1;
nodes = (
"593 -10 OFFCURVE",
"716 104 OFFCURVE",
"716 305 CURVE SMOOTH",
"716 604 LINE SMOOTH",
"716 686 OFFCURVE",
"671 735 OFFCURVE",
"594 735 CURVE SMOOTH",
"517 735 OFFCURVE",
"472 686 OFFCURVE",
"472 604 CURVE SMOOTH",
"472 345 LINE SMOOTH",
"472 242 OFFCURVE",
"446 205 OFFCURVE",
"374 205 CURVE SMOOTH",
"306 205 OFFCURVE",
"276 238 OFFCURVE",
"276 315 CURVE SMOOTH",
"276 374 LINE SMOOTH",
"276 456 OFFCURVE",
"231 505 OFFCURVE",
"156 505 CURVE SMOOTH",
"81 505 OFFCURVE",
"36 456 OFFCURVE",
"36 374 CURVE SMOOTH",
"36 305 LINE SMOOTH",
"36 104 OFFCURVE",
"159 -10 OFFCURVE",
"376 -10 CURVE SMOOTH"
);
}
);
width = 770;
}
);
leftKerningGroup = U;
leftMetricsKey = "=H*.6";
rightKerningGroup = U;
rightMetricsKey = "=H*.9";
unicode = 004A;
},
{
color = 10;
glyphname = K;
lastChange = "2020-09-27 07:25:01 +0000";
layers = (
{
layerId = "928648ED-27D4-4C8B-90F5-D31CCAFF29AA";
paths = (
{
closed = 1;
nodes = (
"165 -5 OFFCURVE",
"184 16 OFFCURVE",
"184 50 CURVE SMOOTH",
"184 340 LINE",
"186 340 LINE",
"625 15 LINE SMOOTH",
"638 5 OFFCURVE",
"650 -5 OFFCURVE",
"666 -5 CURVE SMOOTH",
"693 -5 OFFCURVE",
"716 17 OFFCURVE",
"716 46 CURVE SMOOTH",
"716 58 OFFCURVE",
"712 71 OFFCURVE",
"698 81 CURVE SMOOTH",
"288 374 LINE",
"289 375 LINE",
"695 647 LINE SMOOTH",
"711 658 OFFCURVE",
"716 671 OFFCURVE",
"716 685 CURVE SMOOTH",
"716 713 OFFCURVE",
"694 735 OFFCURVE",
"668 735 CURVE SMOOTH",
"654 735 OFFCURVE",
"641 727 OFFCURVE",
"626 716 CURVE SMOOTH",
"186 410 LINE",
"184 410 LINE",
"184 680 LINE SMOOTH",
"184 714 OFFCURVE",
"165 735 OFFCURVE",
"133 735 CURVE SMOOTH",
"101 735 OFFCURVE",
"82 714 OFFCURVE",
"82 680 CURVE SMOOTH",
"82 50 LINE SMOOTH",
"82 16 OFFCURVE",
"101 -5 OFFCURVE",
"133 -5 CURVE SMOOTH"
);
}
);
width = 749;
},
{
layerId = "1129C829-629B-4701-B210-BDBC9A77493B";
paths = (
{
closed = 1;
nodes = (
"116 -5 OFFCURVE",
"120 -1 OFFCURVE",
"120 5 CURVE SMOOTH",
"120 361 LINE",
"122 361 LINE",
"673 -3 LINE SMOOTH",
"676 -5 OFFCURVE",
"678 -5 OFFCURVE",
"680 -5 CURVE SMOOTH",
"685 -5 OFFCURVE",
"689 -1 OFFCURVE",
"689 5 CURVE SMOOTH",
"689 8 OFFCURVE",
"689 10 OFFCURVE",
"684 14 CURVE SMOOTH",
"139 374 LINE",
"139 376 LINE",
"685 716 LINE SMOOTH",
"689 719 OFFCURVE",
"690 722 OFFCURVE",
"690 726 CURVE SMOOTH",
"690 731 OFFCURVE",
"686 735 OFFCURVE",
"681 735 CURVE SMOOTH",
"679 735 OFFCURVE",
"677 735 OFFCURVE",
"674 733 CURVE SMOOTH",
"122 389 LINE",
"120 389 LINE",
"120 725 LINE SMOOTH",
"120 731 OFFCURVE",
"116 735 OFFCURVE",
"110 735 CURVE SMOOTH",
"104 735 OFFCURVE",
"100 731 OFFCURVE",
"100 725 CURVE SMOOTH",
"100 5 LINE SMOOTH",
"100 -1 OFFCURVE",
"104 -5 OFFCURVE",
"110 -5 CURVE SMOOTH"
);
}
);
width = 730;
},
{
layerId = "C39F50C5-0462-4311-9594-9C3283D81B52";
paths = (
{
closed = 1;
nodes = (
"255 -5 OFFCURVE",
"300 44 OFFCURVE",
"300 125 CURVE SMOOTH",
"300 304 LINE",
"302 304 LINE",
"550 46 LINE SMOOTH",
"576 16 OFFCURVE",
"608 -5 OFFCURVE",
"649 -5 CURVE SMOOTH",
"715 -5 OFFCURVE",
"770 49 OFFCURVE",
"770 115 CURVE SMOOTH",
"770 145 OFFCURVE",
"760 168 OFFCURVE",
"741 189 CURVE SMOOTH",
"552 373 LINE",
"552 374 LINE",
"736 539 LINE SMOOTH",
"755 559 OFFCURVE",
"767 584 OFFCURVE",
"767 615 CURVE SMOOTH",
"767 681 OFFCURVE",
"713 735 OFFCURVE",
"647 735 CURVE SMOOTH",
"608 735 OFFCURVE",
"579 717 OFFCURVE",
"552 688 CURVE SMOOTH",
"302 447 LINE",
"300 447 LINE",
"300 605 LINE SMOOTH",
"300 686 OFFCURVE",
"255 735 OFFCURVE",
"180 735 CURVE SMOOTH",
"105 735 OFFCURVE",
"60 686 OFFCURVE",
"60 605 CURVE SMOOTH",
"60 125 LINE SMOOTH",
"60 44 OFFCURVE",
"105 -5 OFFCURVE",
"180 -5 CURVE SMOOTH"
);
}
);
width = 794;
}
);
leftKerningGroup = H;
leftMetricsKey = "=H";
rightKerningGroup = X;
rightMetricsKey = "=H*.4";
unicode = 004B;
},
{
color = 10;
glyphname = L;
lastChange = "2020-09-27 06:08:37 +0000";
layers = (
{
layerId = "1129C829-629B-4701-B210-BDBC9A77493B";
paths = (
{
closed = 1;
nodes = (
"631 0 LINE SMOOTH",
"637 0 OFFCURVE",
"641 4 OFFCURVE",
"641 10 CURVE SMOOTH",
"641 16 OFFCURVE",
"637 20 OFFCURVE",
"631 20 CURVE SMOOTH",
"120 20 LINE",
"120 725 LINE SMOOTH",
"120 731 OFFCURVE",
"116 735 OFFCURVE",
"110 735 CURVE SMOOTH",
"104 735 OFFCURVE",
"100 731 OFFCURVE",
"100 725 CURVE SMOOTH",
"100 20 LINE SMOOTH",
"100 6 OFFCURVE",
"106 0 OFFCURVE",
"120 0 CURVE SMOOTH"
);
}
);
width = 661;
},
{
layerId = "C39F50C5-0462-4311-9594-9C3283D81B52";
paths = (
{
closed = 1;
nodes = (
"574 0 LINE SMOOTH",
"654 0 OFFCURVE",
"700 42 OFFCURVE",
"700 115 CURVE SMOOTH",
"700 188 OFFCURVE",
"654 230 OFFCURVE",
"574 230 CURVE SMOOTH",
"306 230 LINE",
"306 603 LINE SMOOTH",
"306 686 OFFCURVE",
"261 735 OFFCURVE",
"183 735 CURVE SMOOTH",
"105 735 OFFCURVE",
"60 686 OFFCURVE",
"60 603 CURVE SMOOTH",
"60 166 LINE SMOOTH",
"60 57 OFFCURVE",
"117 0 OFFCURVE",
"226 0 CURVE SMOOTH"
);
}
);
width = 712;
},
{
background = {
paths = (
{
closed = 1;
nodes = (
"606 0 LINE SMOOTH",
"640 0 OFFCURVE",
"659 18 OFFCURVE",
"659 49 CURVE SMOOTH",
"659 79 OFFCURVE",
"640 97 OFFCURVE",
"606 97 CURVE SMOOTH",
"185 97 LINE",
"185 678 LINE SMOOTH",
"185 713 OFFCURVE",
"166 733 OFFCURVE",
"133 733 CURVE SMOOTH",
"101 733 OFFCURVE",
"82 713 OFFCURVE",
"82 678 CURVE SMOOTH",
"82 74 LINE SMOOTH",
"82 25 OFFCURVE",
"106 0 OFFCURVE",
"155 0 CURVE SMOOTH"
);
}
);
};
layerId = "928648ED-27D4-4C8B-90F5-D31CCAFF29AA";
paths = (
{
closed = 1;
nodes = (
"607 0 LINE SMOOTH",
"640 0 OFFCURVE",
"659 18 OFFCURVE",
"659 49 CURVE SMOOTH",
"659 80 OFFCURVE",
"640 98 OFFCURVE",
"607 98 CURVE SMOOTH",
"184 98 LINE",
"184 680 LINE SMOOTH",
"184 715 OFFCURVE",
"165 735 OFFCURVE",
"133 735 CURVE SMOOTH",
"101 735 OFFCURVE",
"82 715 OFFCURVE",
"82 680 CURVE SMOOTH",
"82 74 LINE SMOOTH",
"82 25 OFFCURVE",
"106 0 OFFCURVE",
"155 0 CURVE SMOOTH"
);
}
);
width = 675;
}
);
leftKerningGroup = H;
leftMetricsKey = "=H";
rightKerningGroup = L;
rightMetricsKey = "=H*.2";
unicode = 004C;
},
{
color = 10;
glyphname = M;
lastChange = "2020-10-01 02:03:43 +0000";
layers = (
{
layerId = "1129C829-629B-4701-B210-BDBC9A77493B";
leftMetricsKey = "=A*3";
paths = (
{
closed = 1;
nodes = (
"75 -5 OFFCURVE",
"79 -3 OFFCURVE",
"80 4 CURVE SMOOTH",
"164 709 LINE",
"166 709 LINE",
"426 51 LINE SMOOTH",
"434 32 OFFCURVE",
"438 30 OFFCURVE",
"448 30 CURVE SMOOTH",
"458 30 OFFCURVE",
"462 32 OFFCURVE",
"470 51 CURVE SMOOTH",
"730 709 LINE",
"732 709 LINE",
"816 4 LINE SMOOTH",
"817 -3 OFFCURVE",
"821 -5 OFFCURVE",
"826 -5 CURVE SMOOTH",
"832 -5 OFFCURVE",
"836 -1 OFFCURVE",
"836 5 CURVE SMOOTH",
"836 5 OFFCURVE",
"836 4 OFFCURVE",
"836 6 CURVE SMOOTH",
"751 717 LINE SMOOTH",
"750 728 OFFCURVE",
"742 735 OFFCURVE",
"732 735 CURVE SMOOTH",
"724 735 OFFCURVE",
"717 730 OFFCURVE",
"714 722 CURVE SMOOTH",
"449 53 LINE",
"447 53 LINE",
"182 722 LINE SMOOTH",
"179 730 OFFCURVE",
"172 735 OFFCURVE",
"164 735 CURVE SMOOTH",
"154 735 OFFCURVE",
"146 728 OFFCURVE",
"145 717 CURVE SMOOTH",
"60 6 LINE SMOOTH",
"60 4 OFFCURVE",
"60 5 OFFCURVE",
"60 5 CURVE SMOOTH",
"60 -1 OFFCURVE",
"64 -5 OFFCURVE",
"70 -5 CURVE SMOOTH"
);
}
);
width = 896;
},
{
layerId = "928648ED-27D4-4C8B-90F5-D31CCAFF29AA";
leftMetricsKey = "=A*2.5";
paths = (
{
closed = 1;
nodes = (
"113 -5 OFFCURVE",
"134 9 OFFCURVE",
"138 34 CURVE SMOOTH",
"212 544 LINE",
"214 544 LINE",
"388 63 LINE SMOOTH",
"397 38 OFFCURVE",
"413 23 OFFCURVE",
"447 23 CURVE SMOOTH",
"481 23 OFFCURVE",
"497 38 OFFCURVE",
"506 63 CURVE SMOOTH",
"680 544 LINE",
"682 544 LINE",
"756 34 LINE SMOOTH",
"760 9 OFFCURVE",
"781 -5 OFFCURVE",
"806 -5 CURVE SMOOTH",
"833 -5 OFFCURVE",
"854 16 OFFCURVE",
"854 43 CURVE SMOOTH",
"854 49 OFFCURVE",
"854 52 OFFCURVE",
"853 61 CURVE SMOOTH",
"760 682 LINE SMOOTH",
"755 717 OFFCURVE",
"732 735 OFFCURVE",
"697 735 CURVE SMOOTH",
"666 735 OFFCURVE",
"643 721 OFFCURVE",
"634 695 CURVE SMOOTH",
"448 181 LINE",
"446 181 LINE",
"260 695 LINE SMOOTH",
"251 721 OFFCURVE",
"228 735 OFFCURVE",
"197 735 CURVE SMOOTH",
"162 735 OFFCURVE",
"139 717 OFFCURVE",
"134 682 CURVE SMOOTH",
"41 61 LINE SMOOTH",
"40 52 OFFCURVE",
"40 49 OFFCURVE",
"40 43 CURVE SMOOTH",
"40 16 OFFCURVE",
"61 -5 OFFCURVE",
"88 -5 CURVE SMOOTH"
);
}
);
width = 894;
},
{
layerId = "C39F50C5-0462-4311-9594-9C3283D81B52";
leftMetricsKey = "=A*2";
paths = (
{
closed = 1;
nodes = (
"194 -5 OFFCURVE",
"238 28 OFFCURVE",
"251 86 CURVE SMOOTH",
"300 312 LINE",
"302 312 LINE",
"364 80 LINE SMOOTH",
"377 32 OFFCURVE",
"417 10 OFFCURVE",
"464 10 CURVE SMOOTH",
"511 10 OFFCURVE",
"551 32 OFFCURVE",
"564 80 CURVE SMOOTH",
"626 312 LINE",
"628 312 LINE",
"677 86 LINE SMOOTH",
"692 29 OFFCURVE",
"734 -5 OFFCURVE",
"790 -5 CURVE SMOOTH",
"853 -5 OFFCURVE",
"904 46 OFFCURVE",
"904 109 CURVE SMOOTH",
"904 118 OFFCURVE",
"904 124 OFFCURVE",
"902 135 CURVE SMOOTH",
"791 637 LINE SMOOTH",
"777 699 OFFCURVE",
"728 735 OFFCURVE",
"668 735 CURVE SMOOTH",
"612 735 OFFCURVE",
"567 704 OFFCURVE",
"548 648 CURVE SMOOTH",
"465 398 LINE",
"463 398 LINE",
"380 648 LINE SMOOTH",
"361 704 OFFCURVE",
"316 735 OFFCURVE",
"260 735 CURVE SMOOTH",
"200 735 OFFCURVE",
"151 699 OFFCURVE",
"137 637 CURVE SMOOTH",
"26 135 LINE SMOOTH",
"24 124 OFFCURVE",
"24 118 OFFCURVE",
"24 109 CURVE SMOOTH",
"24 46 OFFCURVE",
"75 -5 OFFCURVE",
"138 -5 CURVE SMOOTH"
);
}
);
width = 928;
},
{
associatedMasterId = "928648ED-27D4-4C8B-90F5-D31CCAFF29AA";
background = {
paths = (
{
closed = 1;
nodes = (
"168 -5 OFFCURVE",
"206 23 OFFCURVE",
"216 72 CURVE SMOOTH",
"272 376 LINE",
"274 376 LINE",
"368 75 LINE SMOOTH",
"379 34 OFFCURVE",
"413 14 OFFCURVE",
"456 14 CURVE SMOOTH",
"500 14 OFFCURVE",
"533 34 OFFCURVE",
"545 75 CURVE SMOOTH",
"638 376 LINE",
"640 376 LINE",
"696 72 LINE SMOOTH",
"708 23 OFFCURVE",
"744 -5 OFFCURVE",
"791 -5 CURVE SMOOTH",
"844 -5 OFFCURVE",
"887 38 OFFCURVE",
"887 91 CURVE SMOOTH",
"887 99 OFFCURVE",
"887 104 OFFCURVE",
"885 114 CURVE SMOOTH",
"779 650 LINE SMOOTH",
"768 704 OFFCURVE",
"726 735 OFFCURVE",
"673 735 CURVE SMOOTH",
"624 735 OFFCURVE",
"585 709 OFFCURVE",
"569 661 CURVE SMOOTH",
"457 338 LINE",
"455 338 LINE",
"344 661 LINE SMOOTH",
"327 709 OFFCURVE",
"288 735 OFFCURVE",
"239 735 CURVE SMOOTH",
"186 735 OFFCURVE",
"145 704 OFFCURVE",
"133 650 CURVE SMOOTH",
"27 114 LINE SMOOTH",
"25 104 OFFCURVE",
"25 99 OFFCURVE",
"25 91 CURVE SMOOTH",
"25 38 OFFCURVE",
"68 -5 OFFCURVE",
"121 -5 CURVE SMOOTH"
);
}
);
};
layerId = "64D614AD-12B9-4B59-A57B-6BDF300632B4";
leftMetricsKey = "=A*2";
name = "ExtraBold {756}";
paths = (
{
closed = 1;
nodes = (
"169 -5 OFFCURVE",
"208 28 OFFCURVE",
"217 72 CURVE SMOOTH",
"271 346 LINE",
"273 346 LINE",
"363 74 LINE SMOOTH",
"376 34 OFFCURVE",
"413 14 OFFCURVE",
"457 14 CURVE SMOOTH",
"501 14 OFFCURVE",
"538 34 OFFCURVE",
"551 74 CURVE SMOOTH",
"641 346 LINE",
"643 346 LINE",
"697 72 LINE SMOOTH",
"706 28 OFFCURVE",
"745 -5 OFFCURVE",
"792 -5 CURVE SMOOTH",
"845 -5 OFFCURVE",
"888 38 OFFCURVE",
"888 91 CURVE SMOOTH",
"888 99 OFFCURVE",
"888 105 OFFCURVE",
"886 114 CURVE SMOOTH",
"781 646 LINE SMOOTH",
"770 703 OFFCURVE",
"728 735 OFFCURVE",
"665 735 CURVE SMOOTH",
"612 735 OFFCURVE",
"572 712 OFFCURVE",
"555 661 CURVE SMOOTH",
"458 368 LINE",
"456 368 LINE",
"359 661 LINE SMOOTH",
"342 712 OFFCURVE",
"302 735 OFFCURVE",
"249 735 CURVE SMOOTH",
"186 735 OFFCURVE",
"144 703 OFFCURVE",
"133 646 CURVE SMOOTH",
"28 114 LINE SMOOTH",
"26 105 OFFCURVE",
"26 99 OFFCURVE",
"26 91 CURVE SMOOTH",
"26 38 OFFCURVE",
"69 -5 OFFCURVE",
"122 -5 CURVE SMOOTH"
);
}
);
width = 914;
}
);
leftKerningGroup = M;
rightKerningGroup = M;
rightMetricsKey = "=|";
unicode = 004D;
},
{
color = 10;
glyphname = N;
lastChange = "2020-09-27 06:09:05 +0000";
layers = (
{
layerId = "1129C829-629B-4701-B210-BDBC9A77493B";
paths = (
{
closed = 1;
nodes = (
"116 -5 OFFCURVE",
"120 -1 OFFCURVE",
"120 5 CURVE SMOOTH",
"120 697 LINE",
"122 697 LINE",
"664 6 LINE SMOOTH",
"670 -1 OFFCURVE",
"673 -5 OFFCURVE",
"680 -5 CURVE SMOOTH",
"686 -5 OFFCURVE",
"690 -1 OFFCURVE",
"690 5 CURVE SMOOTH",
"690 725 LINE SMOOTH",
"690 731 OFFCURVE",
"686 735 OFFCURVE",
"680 735 CURVE SMOOTH",
"674 735 OFFCURVE",
"670 731 OFFCURVE",
"670 725 CURVE SMOOTH",
"670 33 LINE",
"668 33 LINE",
"126 724 LINE SMOOTH",
"120 731 OFFCURVE",
"117 735 OFFCURVE",
"110 735 CURVE SMOOTH",
"104 735 OFFCURVE",
"100 731 OFFCURVE",
"100 725 CURVE SMOOTH",
"100 5 LINE SMOOTH",
"100 -1 OFFCURVE",
"104 -5 OFFCURVE",
"110 -5 CURVE SMOOTH"
);
}
);
width = 790;
},
{
layerId = "928648ED-27D4-4C8B-90F5-D31CCAFF29AA";
paths = (
{
closed = 1;
nodes = (
"163 -5 OFFCURVE",
"182 16 OFFCURVE",
"182 49 CURVE SMOOTH",
"182 551 LINE",
"184 551 LINE",
"607 18 LINE SMOOTH",
"625 -1 OFFCURVE",
"636 -5 OFFCURVE",
"657 -5 CURVE SMOOTH",
"688 -5 OFFCURVE",
"706 16 OFFCURVE",
"706 49 CURVE SMOOTH",
"706 681 LINE SMOOTH",
"706 714 OFFCURVE",
"687 735 OFFCURVE",
"656 735 CURVE SMOOTH",
"625 735 OFFCURVE",
"606 714 OFFCURVE",
"606 681 CURVE SMOOTH",
"606 179 LINE",
"604 179 LINE",
"181 712 LINE SMOOTH",
"165 733 OFFCURVE",
"152 735 OFFCURVE",
"131 735 CURVE SMOOTH",
"100 735 OFFCURVE",
"82 714 OFFCURVE",
"82 681 CURVE SMOOTH",
"82 49 LINE SMOOTH",
"82 16 OFFCURVE",
"101 -5 OFFCURVE",
"132 -5 CURVE SMOOTH"
);
}
);
width = 788;
},
{
layerId = "C39F50C5-0462-4311-9594-9C3283D81B52";
paths = (
{
closed = 1;
nodes = (
"255 -5 OFFCURVE",
"300 44 OFFCURVE",
"300 125 CURVE SMOOTH",
"300 326 LINE",
"302 326 LINE",
"516 39 LINE SMOOTH",
"543 8 OFFCURVE",
"575 -5 OFFCURVE",
"620 -5 CURVE SMOOTH",
"695 -5 OFFCURVE",
"740 44 OFFCURVE",
"740 125 CURVE SMOOTH",
"740 605 LINE SMOOTH",
"740 686 OFFCURVE",
"695 735 OFFCURVE",
"620 735 CURVE SMOOTH",
"545 735 OFFCURVE",
"500 686 OFFCURVE",
"500 605 CURVE SMOOTH",
"500 404 LINE",
"498 404 LINE",
"284 691 LINE SMOOTH",
"259 724 OFFCURVE",
"225 735 OFFCURVE",
"180 735 CURVE SMOOTH",
"105 735 OFFCURVE",
"60 686 OFFCURVE",
"60 605 CURVE SMOOTH",
"60 125 LINE SMOOTH",
"60 44 OFFCURVE",
"105 -5 OFFCURVE",
"180 -5 CURVE SMOOTH"
);
}
);
width = 800;
},
{
associatedMasterId = "928648ED-27D4-4C8B-90F5-D31CCAFF29AA";
layerId = "B64ABDBE-662F-48E4-A049-18D298CD828D";
name = "ExtraBold {756}";
paths = (
{
closed = 1;
nodes = (
"229 -5 OFFCURVE",
"267 36 OFFCURVE",
"267 104 CURVE SMOOTH",
"267 369 LINE",
"269 369 LINE",
"541 33 LINE",
"567 4 OFFCURVE",
"592 -5 OFFCURVE",
"630 -5 CURVE SMOOTH",
"693 -5 OFFCURVE",
"730 36 OFFCURVE",
"730 104 CURVE SMOOTH",
"730 626 LINE SMOOTH",
"730 694 OFFCURVE",
"693 735 OFFCURVE",
"630 735 CURVE SMOOTH",
"567 735 OFFCURVE",
"529 694 OFFCURVE",
"529 626 CURVE SMOOTH",
"529 361 LINE",
"527 361 LINE",
"255 697 LINE",
"229 726 OFFCURVE",
"204 735 OFFCURVE",
"166 735 CURVE SMOOTH",
"103 735 OFFCURVE",
"66 694 OFFCURVE",
"66 626 CURVE SMOOTH",
"66 104 LINE SMOOTH",
"66 36 OFFCURVE",
"103 -5 OFFCURVE",
"166 -5 CURVE SMOOTH"
);
}
);
width = 796;
}
);
leftKerningGroup = H;
leftMetricsKey = "=H";
rightKerningGroup = H;
rightMetricsKey = "=|";
unicode = 004E;
},
{
color = 10;
glyphname = O;
lastChange = "2020-10-02 11:35:12 +0000";
layers = (
{
layerId = "C39F50C5-0462-4311-9594-9C3283D81B52";
paths = (
{
closed = 1;
nodes = (
"656 -10 OFFCURVE",
"823 149 OFFCURVE",
"823 365 CURVE SMOOTH",
"823 581 OFFCURVE",
"656 740 OFFCURVE",
"428 740 CURVE SMOOTH",
"200 740 OFFCURVE",
"33 581 OFFCURVE",
"33 365 CURVE SMOOTH",
"33 149 OFFCURVE",
"200 -10 OFFCURVE",
"428 -10 CURVE SMOOTH"
);
},
{
closed = 1;
nodes = (
"336 205 OFFCURVE",
"268 273 OFFCURVE",
"268 365 CURVE SMOOTH",
"268 457 OFFCURVE",
"336 525 OFFCURVE",
"428 525 CURVE SMOOTH",
"520 525 OFFCURVE",
"588 457 OFFCURVE",
"588 365 CURVE SMOOTH",
"588 273 OFFCURVE",
"520 205 OFFCURVE",
"428 205 CURVE SMOOTH"
);
}
);
width = 856;
},
{
layerId = "1129C829-629B-4701-B210-BDBC9A77493B";
paths = (
{
closed = 1;
nodes = (
"646 -10 OFFCURVE",
"805 149 OFFCURVE",
"805 365 CURVE SMOOTH",
"805 581 OFFCURVE",
"646 740 OFFCURVE",
"430 740 CURVE SMOOTH",
"214 740 OFFCURVE",
"55 581 OFFCURVE",
"55 365 CURVE SMOOTH",
"55 149 OFFCURVE",
"214 -10 OFFCURVE",
"430 -10 CURVE SMOOTH"
);
},
{
closed = 1;
nodes = (
"225 10 OFFCURVE",
"75 160 OFFCURVE",
"75 365 CURVE SMOOTH",
"75 570 OFFCURVE",
"225 720 OFFCURVE",
"430 720 CURVE SMOOTH",
"635 720 OFFCURVE",
"785 570 OFFCURVE",
"785 365 CURVE SMOOTH",
"785 160 OFFCURVE",
"635 10 OFFCURVE",
"430 10 CURVE SMOOTH"
);
}
);
visible = 1;
width = 860;
},
{
layerId = "928648ED-27D4-4C8B-90F5-D31CCAFF29AA";
paths = (
{
closed = 1;
nodes = (
"649 -10 OFFCURVE",
"811 149 OFFCURVE",
"811 365 CURVE SMOOTH",
"811 581 OFFCURVE",
"649 740 OFFCURVE",
"428 740 CURVE SMOOTH",
"207 740 OFFCURVE",
"45 581 OFFCURVE",
"45 365 CURVE SMOOTH",
"45 149 OFFCURVE",
"207 -10 OFFCURVE",
"428 -10 CURVE SMOOTH"
);
},
{
closed = 1;
nodes = (
"264 82 OFFCURVE",
"145 202 OFFCURVE",
"145 365 CURVE SMOOTH",
"145 528 OFFCURVE",
"264 648 OFFCURVE",
"428 648 CURVE SMOOTH",
"592 648 OFFCURVE",
"711 528 OFFCURVE",
"711 365 CURVE SMOOTH",
"711 202 OFFCURVE",
"592 82 OFFCURVE",
"428 82 CURVE SMOOTH"
);
}
);
width = 856;
}
);
leftKerningGroup = O;
leftMetricsKey = "=H*.55";
rightKerningGroup = O;
rightMetricsKey = "=|";
unicode = 004F;
},
{
color = 10;
glyphname = P;
lastChange = "2020-09-27 06:30:24 +0000";
layers = (
{
layerId = "928648ED-27D4-4C8B-90F5-D31CCAFF29AA";
paths = (
{
closed = 1;
nodes = (
"165 -5 OFFCURVE",
"184 16 OFFCURVE",
"184 50 CURVE SMOOTH",
"184 192 LINE",
"350 192 LINE SMOOTH",
"586 192 OFFCURVE",
"712 285 OFFCURVE",
"712 461 CURVE SMOOTH",
"712 636 OFFCURVE",
"586 730 OFFCURVE",
"350 730 CURVE SMOOTH",
"155 730 LINE SMOOTH",
"106 730 OFFCURVE",
"82 705 OFFCURVE",
"82 656 CURVE SMOOTH",
"82 50 LINE SMOOTH",
"82 16 OFFCURVE",
"101 -5 OFFCURVE",
"133 -5 CURVE SMOOTH"
);
},
{
closed = 1;
nodes = (
"184 640 LINE",
"351 640 LINE SMOOTH",
"523 640 OFFCURVE",
"612 579 OFFCURVE",
"612 461 CURVE SMOOTH",
"612 343 OFFCURVE",
"523 282 OFFCURVE",
"351 282 CURVE SMOOTH",
"184 282 LINE"
);
}
);
width = 737;
},
{
layerId = "C39F50C5-0462-4311-9594-9C3283D81B52";
paths = (
{
closed = 1;
nodes = (
"259 -5 OFFCURVE",
"304 44 OFFCURVE",
"304 126 CURVE SMOOTH",
"304 160 LINE",
"385 160 LINE SMOOTH",
"631 160 OFFCURVE",
"760 258 OFFCURVE",
"760 445 CURVE SMOOTH",
"760 632 OFFCURVE",
"631 730 OFFCURVE",
"385 730 CURVE SMOOTH",
"224 730 LINE SMOOTH",
"116 730 OFFCURVE",
"60 673 OFFCURVE",
"60 564 CURVE SMOOTH",
"60 126 LINE SMOOTH",
"60 44 OFFCURVE",
"105 -5 OFFCURVE",
"182 -5 CURVE SMOOTH"
);
},
{
closed = 1;
nodes = (
"304 526 LINE",
"388 526 LINE SMOOTH",
"482 526 OFFCURVE",
"526 500 OFFCURVE",
"526 444 CURVE SMOOTH",
"526 388 OFFCURVE",
"482 362 OFFCURVE",
"388 362 CURVE SMOOTH",
"304 362 LINE"
);
}
);
width = 778;
},
{
layerId = "1129C829-629B-4701-B210-BDBC9A77493B";
paths = (
{
closed = 1;
nodes = (
"116 -5 OFFCURVE",
"120 -1 OFFCURVE",
"120 5 CURVE SMOOTH",
"120 210 LINE",
"335 210 LINE SMOOTH",
"565 210 OFFCURVE",
"690 301 OFFCURVE",
"690 470 CURVE SMOOTH",
"690 639 OFFCURVE",
"565 730 OFFCURVE",
"335 730 CURVE SMOOTH",
"120 730 LINE SMOOTH",
"106 730 OFFCURVE",
"100 724 OFFCURVE",
"100 710 CURVE SMOOTH",
"100 5 LINE SMOOTH",
"100 -1 OFFCURVE",
"104 -5 OFFCURVE",
"110 -5 CURVE SMOOTH"
);
},
{
closed = 1;
nodes = (
"120 710 LINE",
"335 710 LINE SMOOTH",
"555 710 OFFCURVE",
"670 626 OFFCURVE",
"670 470 CURVE SMOOTH",
"670 314 OFFCURVE",
"555 230 OFFCURVE",
"335 230 CURVE SMOOTH",
"120 230 LINE"
);
}
);
width = 720;
}
);
leftKerningGroup = H;
leftMetricsKey = "=H";
rightKerningGroup = P;
rightMetricsKey = "=H*.3";
unicode = 0050;
},
{
color = 10;
glyphname = Q;
lastChange = "2020-10-07 10:12:16 +0000";
layers = (
{
background = {
paths = (
{
closed = 1;
nodes = (
"805 -5 OFFCURVE",
"805 0 CURVE SMOOTH",
"805 3 OFFCURVE",
"804 5 OFFCURVE",
"802 7 CURVE SMOOTH",
"437 372 LINE SMOOTH",
"433 376 OFFCURVE",
"428 376 OFFCURVE",
"423 372 CURVE SMOOTH",
"419 367 OFFCURVE",
"419 362 OFFCURVE",
"423 358 CURVE SMOOTH",
"788 -7 LINE SMOOTH",
"790 -9 OFFCURVE",
"792 -10 OFFCURVE",
"795 -10 CURVE SMOOTH",
"801 -10 OFFCURVE"
);
}
);
};
layerId = "1129C829-629B-4701-B210-BDBC9A77493B";
paths = (
{
closed = 1;
nodes = (
"646 -10 OFFCURVE",
"805 149 OFFCURVE",
"805 365 CURVE SMOOTH",
"805 581 OFFCURVE",
"646 740 OFFCURVE",
"430 740 CURVE SMOOTH",
"214 740 OFFCURVE",
"55 581 OFFCURVE",
"55 365 CURVE SMOOTH",
"55 149 OFFCURVE",
"214 -10 OFFCURVE",
"430 -10 CURVE SMOOTH"
);
},
{
closed = 1;
nodes = (
"225 10 OFFCURVE",
"75 160 OFFCURVE",
"75 365 CURVE SMOOTH",
"75 570 OFFCURVE",
"225 720 OFFCURVE",
"430 720 CURVE SMOOTH",
"635 720 OFFCURVE",
"785 570 OFFCURVE",
"785 365 CURVE SMOOTH",
"785 160 OFFCURVE",
"635 10 OFFCURVE",
"430 10 CURVE SMOOTH"
);
},
{
closed = 1;
nodes = (
"801 -10 OFFCURVE",
"805 -5 OFFCURVE",
"805 0 CURVE SMOOTH",
"805 3 OFFCURVE",
"804 5 OFFCURVE",
"802 7 CURVE SMOOTH",
"437 372 LINE SMOOTH",
"435 374 OFFCURVE",
"433 375 OFFCURVE",
"430 375 CURVE SMOOTH",
"424 375 OFFCURVE",
"420 370 OFFCURVE",
"420 365 CURVE SMOOTH",
"420 362 OFFCURVE",
"421 360 OFFCURVE",
"423 358 CURVE SMOOTH",
"788 -7 LINE SMOOTH",
"790 -9 OFFCURVE",
"792 -10 OFFCURVE",
"795 -10 CURVE SMOOTH"
);
}
);
width = 885;
},
{
background = {
paths = (
{
closed = 1;
nodes = (
"336 205 OFFCURVE",
"268 273 OFFCURVE",
"268 365 CURVE SMOOTH",
"268 457 OFFCURVE",
"336 525 OFFCURVE",
"428 525 CURVE SMOOTH",
"520 525 OFFCURVE",
"588 457 OFFCURVE",
"588 365 CURVE SMOOTH",
"588 273 OFFCURVE",
"520 205 OFFCURVE",
"428 205 CURVE SMOOTH"
);
}
);
};
layerId = "C39F50C5-0462-4311-9594-9C3283D81B52";
paths = (
{
closed = 1;
nodes = (
"656 -10 OFFCURVE",
"823 149 OFFCURVE",
"823 365 CURVE SMOOTH",
"823 581 OFFCURVE",
"656 740 OFFCURVE",
"428 740 CURVE SMOOTH",
"200 740 OFFCURVE",
"33 581 OFFCURVE",
"33 365 CURVE SMOOTH",
"33 149 OFFCURVE",
"200 -10 OFFCURVE",
"428 -10 CURVE SMOOTH"
);
},
{
closed = 1;
nodes = (
"340 185 OFFCURVE",
"268 257 OFFCURVE",
"268 355 CURVE SMOOTH",
"268 453 OFFCURVE",
"340 525 OFFCURVE",
"438 525 CURVE SMOOTH",
"536 525 OFFCURVE",
"608 453 OFFCURVE",
"608 355 CURVE SMOOTH",
"608 257 OFFCURVE",
"536 185 OFFCURVE",
"438 185 CURVE SMOOTH"
);
},
{
closed = 1;
nodes = (
"767 -10 OFFCURVE",
"823 45 OFFCURVE",
"823 110 CURVE SMOOTH",
"823 144 OFFCURVE",
"808 177 OFFCURVE",
"778 207 CURVE SMOOTH",
"578 407 LINE SMOOTH",
"548 437 OFFCURVE",
"514 452 OFFCURVE",
"481 452 CURVE SMOOTH",
"416 452 OFFCURVE",
"360 397 OFFCURVE",
"360 332 CURVE SMOOTH",
"360 298 OFFCURVE",
"375 265 OFFCURVE",
"405 235 CURVE SMOOTH",
"605 35 LINE SMOOTH",
"635 5 OFFCURVE",
"669 -10 OFFCURVE",
"702 -10 CURVE SMOOTH"
);
}
);
width = 871;
},
{
layerId = "928648ED-27D4-4C8B-90F5-D31CCAFF29AA";
paths = (
{
closed = 1;
nodes = (
"649 -10 OFFCURVE",
"811 149 OFFCURVE",
"811 365 CURVE SMOOTH",
"811 581 OFFCURVE",
"649 740 OFFCURVE",
"428 740 CURVE SMOOTH",
"207 740 OFFCURVE",
"45 581 OFFCURVE",
"45 365 CURVE SMOOTH",
"45 149 OFFCURVE",
"207 -10 OFFCURVE",
"428 -10 CURVE SMOOTH"
);
},
{
closed = 1;
nodes = (
"264 82 OFFCURVE",
"145 202 OFFCURVE",
"145 365 CURVE SMOOTH",
"145 528 OFFCURVE",
"264 648 OFFCURVE",
"428 648 CURVE SMOOTH",
"592 648 OFFCURVE",
"711 528 OFFCURVE",
"711 365 CURVE SMOOTH",
"711 202 OFFCURVE",
"592 82 OFFCURVE",
"428 82 CURVE SMOOTH"
);
},
{
closed = 1;
nodes = (
"787 -10 OFFCURVE",
"811 13 OFFCURVE",
"811 41 CURVE SMOOTH",
"811 55 OFFCURVE",
"804 68 OFFCURVE",
"792 81 CURVE SMOOTH",
"488 385 LINE SMOOTH",
"476 397 OFFCURVE",
"462 403 OFFCURVE",
"448 403 CURVE SMOOTH",
"420 403 OFFCURVE",
"397 380 OFFCURVE",
"397 353 CURVE SMOOTH",
"397 338 OFFCURVE",
"403 325 OFFCURVE",
"415 313 CURVE SMOOTH",
"719 8 LINE SMOOTH",
"732 -4 OFFCURVE",
"746 -10 OFFCURVE",
"760 -10 CURVE SMOOTH"
);
}
);
width = 877;
}
);
leftKerningGroup = O;
leftMetricsKey = "=O";
rightKerningGroup = Q;
rightMetricsKey = "=H*.8";
unicode = 0051;
},
{
color = 10;
glyphname = R;
lastChange = "2020-09-27 06:30:24 +0000";
layers = (
{
background = {
paths = (
{
closed = 1;
nodes = (
"165 -5 OFFCURVE",
"184 16 OFFCURVE",
"184 50 CURVE SMOOTH",
"184 261 LINE",
"389 261 LINE SMOOTH",
"600 261 OFFCURVE",
"712 342 OFFCURVE",
"712 495 CURVE SMOOTH",
"712 649 OFFCURVE",
"600 730 OFFCURVE",
"389 730 CURVE SMOOTH",
"155 730 LINE SMOOTH",
"106 730 OFFCURVE",
"82 705 OFFCURVE",
"82 656 CURVE SMOOTH",
"82 50 LINE SMOOTH",
"82 16 OFFCURVE",
"101 -5 OFFCURVE",
"133 -5 CURVE SMOOTH"
);
},
{
closed = 1;
nodes = (
"693 -5 OFFCURVE",
"712 19 OFFCURVE",
"712 47 CURVE SMOOTH",
"712 62 OFFCURVE",
"706 73 OFFCURVE",
"691 83 CURVE SMOOTH",
"267 318 LINE",
"167 272 LINE",
"627 8 LINE SMOOTH",
"639 0 OFFCURVE",
"650 -5 OFFCURVE",
"663 -5 CURVE SMOOTH"
);
},
{
closed = 1;
nodes = (
"184 644 LINE",
"386 644 LINE SMOOTH",
"536 644 OFFCURVE",
"613 591 OFFCURVE",
"613 490 CURVE SMOOTH",
"613 388 OFFCURVE",
"536 336 OFFCURVE",
"386 336 CURVE SMOOTH",
"184 336 LINE"
);
}
);
};
layerId = "928648ED-27D4-4C8B-90F5-D31CCAFF29AA";
paths = (
{
closed = 1;
nodes = (
"165 -5 OFFCURVE",
"184 16 OFFCURVE",
"184 50 CURVE SMOOTH",
"184 261 LINE",
"389 261 LINE SMOOTH",
"600 261 OFFCURVE",
"712 342 OFFCURVE",
"712 495 CURVE SMOOTH",
"712 649 OFFCURVE",
"600 730 OFFCURVE",
"389 730 CURVE SMOOTH",
"155 730 LINE SMOOTH",
"106 730 OFFCURVE",
"82 705 OFFCURVE",
"82 656 CURVE SMOOTH",
"82 50 LINE SMOOTH",
"82 16 OFFCURVE",
"101 -5 OFFCURVE",
"133 -5 CURVE SMOOTH"
);
},
{
closed = 1;
nodes = (
"693 -5 OFFCURVE",
"712 19 OFFCURVE",
"712 47 CURVE SMOOTH",
"712 62 OFFCURVE",
"707 74 OFFCURVE",
"691 83 CURVE SMOOTH",
"267 318 LINE",
"167 272 LINE",
"627 8 LINE SMOOTH",
"640 1 OFFCURVE",
"650 -5 OFFCURVE",
"663 -5 CURVE SMOOTH"
);
},
{
closed = 1;
nodes = (
"184 640 LINE",
"386 640 LINE SMOOTH",
"535 640 OFFCURVE",
"612 590 OFFCURVE",
"612 495 CURVE SMOOTH",
"612 399 OFFCURVE",
"535 350 OFFCURVE",
"386 350 CURVE SMOOTH",
"184 350 LINE"
);
}
);
width = 761;
},
{
layerId = "C39F50C5-0462-4311-9594-9C3283D81B52";
paths = (
{
closed = 1;
nodes = (
"259 -5 OFFCURVE",
"304 44 OFFCURVE",
"304 126 CURVE SMOOTH",
"304 210 LINE",
"405 210 LINE SMOOTH",
"638 210 OFFCURVE",
"760 299 OFFCURVE",
"760 470 CURVE SMOOTH",
"760 641 OFFCURVE",
"638 730 OFFCURVE",
"405 730 CURVE SMOOTH",
"224 730 LINE SMOOTH",
"116 730 OFFCURVE",
"60 673 OFFCURVE",
"60 564 CURVE SMOOTH",
"60 126 LINE SMOOTH",
"60 44 OFFCURVE",
"105 -5 OFFCURVE",
"182 -5 CURVE SMOOTH"
);
},
{
closed = 1;
nodes = (
"712 -5 OFFCURVE",
"760 52 OFFCURVE",
"760 118 CURVE SMOOTH",
"760 154 OFFCURVE",
"745 180 OFFCURVE",
"714 200 CURVE SMOOTH",
"498 340 LINE",
"281 228 LINE",
"558 26 LINE SMOOTH",
"583 8 OFFCURVE",
"610 -5 OFFCURVE",
"641 -5 CURVE SMOOTH"
);
},
{
closed = 1;
nodes = (
"304 530 LINE",
"398 530 LINE SMOOTH",
"485 530 OFFCURVE",
"526 506 OFFCURVE",
"526 455 CURVE SMOOTH",
"526 404 OFFCURVE",
"485 380 OFFCURVE",
"398 380 CURVE SMOOTH",
"304 380 LINE"
);
}
);
width = 796;
},
{
layerId = "1129C829-629B-4701-B210-BDBC9A77493B";
paths = (
{
closed = 1;
nodes = (
"116 -5 OFFCURVE",
"120 -1 OFFCURVE",
"120 5 CURVE SMOOTH",
"120 290 LINE",
"385 290 LINE SMOOTH",
"583 290 OFFCURVE",
"690 367 OFFCURVE",
"690 510 CURVE SMOOTH",
"690 653 OFFCURVE",
"583 730 OFFCURVE",
"385 730 CURVE SMOOTH",
"120 730 LINE SMOOTH",
"106 730 OFFCURVE",
"100 724 OFFCURVE",
"100 710 CURVE SMOOTH",
"100 5 LINE SMOOTH",
"100 -1 OFFCURVE",
"104 -5 OFFCURVE",
"110 -5 CURVE SMOOTH"
);
},
{
closed = 1;
nodes = (
"687 -5 OFFCURVE",
"690 0 OFFCURVE",
"690 5 CURVE SMOOTH",
"690 9 OFFCURVE",
"689 11 OFFCURVE",
"684 14 CURVE SMOOTH",
"138 305 LINE",
"107 298 LINE",
"673 -3 LINE SMOOTH",
"677 -5 OFFCURVE",
"679 -5 OFFCURVE",
"681 -5 CURVE SMOOTH"
);
},
{
closed = 1;
nodes = (
"120 710 LINE",
"385 710 LINE SMOOTH",
"572 710 OFFCURVE",
"670 641 OFFCURVE",
"670 510 CURVE SMOOTH",
"670 379 OFFCURVE",
"572 310 OFFCURVE",
"385 310 CURVE SMOOTH",
"120 310 LINE"
);
}
);
width = 750;
}
);
leftKerningGroup = H;
leftMetricsKey = "=H";
rightKerningGroup = R;
rightMetricsKey = "=H*.6";
unicode = 0052;
},
{
color = 10;
glyphname = S;
lastChange = "2020-10-01 12:32:23 +0000";
layers = (
{
layerId = "1129C829-629B-4701-B210-BDBC9A77493B";
paths = (
{
closed = 1;
nodes = (
"552 -10 OFFCURVE",
"660 59 OFFCURVE",
"659 183 CURVE SMOOTH",
"659 288 OFFCURVE",
"585 339 OFFCURVE",
"363 387 CURVE SMOOTH",
"158 430 OFFCURVE",
"90 474 OFFCURVE",
"90 561 CURVE SMOOTH",
"90 662 OFFCURVE",
"185 720 OFFCURVE",
"357 720 CURVE SMOOTH",
"462 720 OFFCURVE",
"572 698 OFFCURVE",
"624 668 CURVE SMOOTH",
"629 665 OFFCURVE",
"632 664 OFFCURVE",
"635 664 CURVE SMOOTH",
"641 664 OFFCURVE",
"645 668 OFFCURVE",
"645 673 CURVE SMOOTH",
"645 677 OFFCURVE",
"644 679 OFFCURVE",
"640 682 CURVE SMOOTH",
"586 716 OFFCURVE",
"468 740 OFFCURVE",
"357 740 CURVE SMOOTH",
"175 740 OFFCURVE",
"70 675 OFFCURVE",
"70 561 CURVE SMOOTH",
"70 461 OFFCURVE",
"146 412 OFFCURVE",
"359 367 CURVE SMOOTH",
"572 321 OFFCURVE",
"639 276 OFFCURVE",
"639 183 CURVE SMOOTH",
"640 72 OFFCURVE",
"541 10 OFFCURVE",
"357 10 CURVE SMOOTH",
"251 10 OFFCURVE",
"139 32 OFFCURVE",
"82 63 CURVE SMOOTH",
"75 67 OFFCURVE",
"73 68 OFFCURVE",
"70 68 CURVE SMOOTH",
"64 68 OFFCURVE",
"60 64 OFFCURVE",
"60 59 CURVE SMOOTH",
"60 55 OFFCURVE",
"61 53 OFFCURVE",
"65 50 CURVE SMOOTH",
"122 15 OFFCURVE",
"242 -10 OFFCURVE",
"357 -10 CURVE SMOOTH"
);
}
);
width = 719;
},
{
layerId = "928648ED-27D4-4C8B-90F5-D31CCAFF29AA";
paths = (
{
closed = 1;
nodes = (
"564 -10 OFFCURVE",
"673 63 OFFCURVE",
"673 198 CURVE SMOOTH",
"673 319 OFFCURVE",
"593 378 OFFCURVE",
"376 416 CURVE SMOOTH",
"210 447 OFFCURVE",
"156 479 OFFCURVE",
"156 542 CURVE SMOOTH",
"156 610 OFFCURVE",
"225 648 OFFCURVE",
"353 648 CURVE SMOOTH",
"436 648 OFFCURVE",
"523 632 OFFCURVE",
"576 608 CURVE SMOOTH",
"594 601 OFFCURVE",
"604 599 OFFCURVE",
"616 599 CURVE SMOOTH",
"643 599 OFFCURVE",
"662 618 OFFCURVE",
"662 645 CURVE SMOOTH",
"662 666 OFFCURVE",
"651 679 OFFCURVE",
"625 691 CURVE SMOOTH",
"566 720 OFFCURVE",
"459 740 OFFCURVE",
"357 740 CURVE SMOOTH",
"161 740 OFFCURVE",
"54 670 OFFCURVE",
"54 540 CURVE SMOOTH",
"54 423 OFFCURVE",
"135 365 OFFCURVE",
"346 329 CURVE SMOOTH",
"517 297 OFFCURVE",
"571 265 OFFCURVE",
"571 198 CURVE SMOOTH",
"572 123 OFFCURVE",
"500 82 OFFCURVE",
"364 82 CURVE SMOOTH",
"281 82 OFFCURVE",
"192 98 OFFCURVE",
"136 123 CURVE SMOOTH",
"118 130 OFFCURVE",
"107 132 OFFCURVE",
"96 132 CURVE SMOOTH",
"69 132 OFFCURVE",
"49 113 OFFCURVE",
"49 87 CURVE SMOOTH",
"49 65 OFFCURVE",
"62 51 OFFCURVE",
"85 40 CURVE SMOOTH",
"146 11 OFFCURVE",
"256 -10 OFFCURVE",
"360 -10 CURVE SMOOTH"
);
}
);
width = 722;
},
{
layerId = "C39F50C5-0462-4311-9594-9C3283D81B52";
paths = (
{
closed = 1;
nodes = (
"595 -10 OFFCURVE",
"706 69 OFFCURVE",
"706 225 CURVE SMOOTH",
"706 366 OFFCURVE",
"616 435 OFFCURVE",
"408 455 CURVE SMOOTH",
"310 464 OFFCURVE",
"277 476 OFFCURVE",
"277 502 CURVE SMOOTH",
"277 523 OFFCURVE",
"303 534 OFFCURVE",
"355 534 CURVE SMOOTH",
"400 534 OFFCURVE",
"455 525 OFFCURVE",
"508 510 CURVE SMOOTH",
"540 501 OFFCURVE",
"569 493 OFFCURVE",
"595 493 CURVE SMOOTH",
"656 493 OFFCURVE",
"701 539 OFFCURVE",
"701 599 CURVE SMOOTH",
"701 650 OFFCURVE",
"669 688 OFFCURVE",
"612 706 CURVE SMOOTH",
"544 727 OFFCURVE",
"453 740 OFFCURVE",
"367 740 CURVE SMOOTH",
"147 740 OFFCURVE",
"36 661 OFFCURVE",
"36 505 CURVE SMOOTH",
"36 364 OFFCURVE",
"126 295 OFFCURVE",
"334 275 CURVE SMOOTH",
"432 266 OFFCURVE",
"465 254 OFFCURVE",
"465 228 CURVE SMOOTH",
"465 207 OFFCURVE",
"439 196 OFFCURVE",
"387 196 CURVE SMOOTH",
"342 196 OFFCURVE",
"287 205 OFFCURVE",
"234 220 CURVE SMOOTH",
"202 229 OFFCURVE",
"173 237 OFFCURVE",
"147 237 CURVE SMOOTH",
"86 237 OFFCURVE",
"41 191 OFFCURVE",
"41 131 CURVE SMOOTH",
"41 80 OFFCURVE",
"73 42 OFFCURVE",
"130 24 CURVE SMOOTH",
"198 3 OFFCURVE",
"289 -10 OFFCURVE",
"375 -10 CURVE SMOOTH"
);
}
);
width = 742;
},
{
associatedMasterId = "928648ED-27D4-4C8B-90F5-D31CCAFF29AA";
layerId = "FA2F676A-A75B-4A45-9BF4-9A7C776BAAB2";
name = "ExtraBold {756}";
paths = (
{
closed = 1;
nodes = (
"585 -10 OFFCURVE",
"696 67 OFFCURVE",
"696 217 CURVE SMOOTH",
"696 355 OFFCURVE",
"609 423 OFFCURVE",
"398 448 CURVE SMOOTH",
"281 463 OFFCURVE",
"242 480 OFFCURVE",
"242 515 CURVE SMOOTH",
"242 548 OFFCURVE",
"280 566 OFFCURVE",
"353 566 CURVE SMOOTH",
"409 566 OFFCURVE",
"473 555 OFFCURVE",
"526 537 CURVE SMOOTH",
"554 529 OFFCURVE",
"578 522 OFFCURVE",
"600 522 CURVE SMOOTH",
"651 522 OFFCURVE",
"689 561 OFFCURVE",
"689 612 CURVE SMOOTH",
"689 654 OFFCURVE",
"663 685 OFFCURVE",
"615 702 CURVE SMOOTH",
"549 725 OFFCURVE",
"454 740 OFFCURVE",
"363 740 CURVE SMOOTH",
"150 740 OFFCURVE",
"40 664 OFFCURVE",
"40 515 CURVE SMOOTH",
"40 378 OFFCURVE",
"127 310 OFFCURVE",
"336 286 CURVE SMOOTH",
"455 271 OFFCURVE",
"493 254 OFFCURVE",
"493 218 CURVE SMOOTH",
"494 183 OFFCURVE",
"455 164 OFFCURVE",
"380 164 CURVE SMOOTH",
"324 164 OFFCURVE",
"260 175 OFFCURVE",
"206 193 CURVE SMOOTH",
"178 201 OFFCURVE",
"154 208 OFFCURVE",
"132 208 CURVE SMOOTH",
"80 208 OFFCURVE",
"42 169 OFFCURVE",
"42 119 CURVE SMOOTH",
"42 76 OFFCURVE",
"69 45 OFFCURVE",
"116 28 CURVE SMOOTH",
"182 5 OFFCURVE",
"279 -10 OFFCURVE",
"370 -10 CURVE SMOOTH"
);
}
);
width = 736;
}
);
leftKerningGroup = S;
leftMetricsKey = "=H*.6";
rightKerningGroup = S;
rightMetricsKey = "=|";
unicode = 0053;
},
{
color = 10;
glyphname = T;
lastChange = "2020-10-01 13:08:42 +0000";
layers = (
{
layerId = "1129C829-629B-4701-B210-BDBC9A77493B";
paths = (
{
closed = 1;
nodes = (
"356 -5 OFFCURVE",
"360 -1 OFFCURVE",
"360 5 CURVE SMOOTH",
"360 710 LINE",
"670 710 LINE SMOOTH",
"676 710 OFFCURVE",
"680 714 OFFCURVE",
"680 720 CURVE SMOOTH",
"680 726 OFFCURVE",
"676 730 OFFCURVE",
"670 730 CURVE SMOOTH",
"30 730 LINE SMOOTH",
"24 730 OFFCURVE",
"20 726 OFFCURVE",
"20 720 CURVE SMOOTH",
"20 714 OFFCURVE",
"24 710 OFFCURVE",
"30 710 CURVE SMOOTH",
"340 710 LINE",
"340 5 LINE SMOOTH",
"340 -1 OFFCURVE",
"344 -5 OFFCURVE",
"350 -5 CURVE SMOOTH"
);
}
);
width = 700;
},
{
layerId = "C39F50C5-0462-4311-9594-9C3283D81B52";
paths = (
{
closed = 1;
nodes = (
"460 -5 OFFCURVE",
"505 44 OFFCURVE",
"505 127 CURVE SMOOTH",
"505 500 LINE",
"626 500 LINE SMOOTH",
"706 500 OFFCURVE",
"752 542 OFFCURVE",
"752 615 CURVE SMOOTH",
"752 688 OFFCURVE",
"706 730 OFFCURVE",
"626 730 CURVE SMOOTH",
"138 730 LINE SMOOTH",
"58 730 OFFCURVE",
"12 688 OFFCURVE",
"12 615 CURVE SMOOTH",
"12 542 OFFCURVE",
"58 500 OFFCURVE",
"138 500 CURVE SMOOTH",
"259 500 LINE",
"259 127 LINE SMOOTH",
"259 44 OFFCURVE",
"304 -5 OFFCURVE",
"382 -5 CURVE SMOOTH"
);
}
);
width = 764;
},
{
layerId = "928648ED-27D4-4C8B-90F5-D31CCAFF29AA";
paths = (
{
closed = 1;
nodes = (
"393 -5 OFFCURVE",
"412 15 OFFCURVE",
"412 50 CURVE SMOOTH",
"412 632 LINE",
"654 632 LINE SMOOTH",
"687 632 OFFCURVE",
"706 650 OFFCURVE",
"706 681 CURVE SMOOTH",
"706 712 OFFCURVE",
"687 730 OFFCURVE",
"654 730 CURVE SMOOTH",
"68 730 LINE SMOOTH",
"35 730 OFFCURVE",
"16 712 OFFCURVE",
"16 681 CURVE SMOOTH",
"16 650 OFFCURVE",
"35 632 OFFCURVE",
"68 632 CURVE SMOOTH",
"310 632 LINE",
"310 50 LINE SMOOTH",
"310 15 OFFCURVE",
"329 -5 OFFCURVE",
"361 -5 CURVE SMOOTH"
);
}
);
width = 722;
}
);
leftKerningGroup = T;
leftMetricsKey = "=|L";
rightKerningGroup = T;
rightMetricsKey = "=|";
unicode = 0054;
},
{
color = 10;
glyphname = U;
lastChange = "2020-10-01 14:31:25 +0000";
layers = (
{
layerId = "1129C829-629B-4701-B210-BDBC9A77493B";
paths = (
{
closed = 1;
nodes = (
"581 -10 OFFCURVE",
"690 104 OFFCURVE",
"690 305 CURVE SMOOTH",
"690 725 LINE SMOOTH",
"690 731 OFFCURVE",
"686 735 OFFCURVE",
"680 735 CURVE SMOOTH",
"674 735 OFFCURVE",
"670 731 OFFCURVE",
"670 725 CURVE SMOOTH",
"670 305 LINE SMOOTH",
"670 115 OFFCURVE",
"570 10 OFFCURVE",
"390 10 CURVE SMOOTH",
"210 10 OFFCURVE",
"110 115 OFFCURVE",
"110 305 CURVE SMOOTH",
"110 725 LINE SMOOTH",
"110 731 OFFCURVE",
"106 735 OFFCURVE",
"100 735 CURVE SMOOTH",
"94 735 OFFCURVE",
"90 731 OFFCURVE",
"90 725 CURVE SMOOTH",
"90 305 LINE SMOOTH",
"90 104 OFFCURVE",
"199 -10 OFFCURVE",
"390 -10 CURVE SMOOTH"
);
}
);
width = 780;
},
{
layerId = "C39F50C5-0462-4311-9594-9C3283D81B52";
paths = (
{
closed = 1;
nodes = (
"619 -10 OFFCURVE",
"744 104 OFFCURVE",
"744 305 CURVE SMOOTH",
"744 604 LINE SMOOTH",
"744 686 OFFCURVE",
"699 735 OFFCURVE",
"623 735 CURVE SMOOTH",
"547 735 OFFCURVE",
"502 686 OFFCURVE",
"502 604 CURVE SMOOTH",
"502 345 LINE SMOOTH",
"502 245 OFFCURVE",
"473 205 OFFCURVE",
"399 205 CURVE SMOOTH",
"325 205 OFFCURVE",
"296 245 OFFCURVE",
"296 345 CURVE SMOOTH",
"296 604 LINE SMOOTH",
"296 686 OFFCURVE",
"251 735 OFFCURVE",
"175 735 CURVE SMOOTH",
"99 735 OFFCURVE",
"54 686 OFFCURVE",
"54 604 CURVE SMOOTH",
"54 305 LINE SMOOTH",
"54 104 OFFCURVE",
"179 -10 OFFCURVE",
"399 -10 CURVE SMOOTH"
);
}
);
width = 798;
},
{
layerId = "928648ED-27D4-4C8B-90F5-D31CCAFF29AA";
paths = (
{
closed = 1;
nodes = (
"593 -10 OFFCURVE",
"708 104 OFFCURVE",
"708 305 CURVE SMOOTH",
"708 680 LINE SMOOTH",
"708 714 OFFCURVE",
"689 735 OFFCURVE",
"657 735 CURVE SMOOTH",
"625 735 OFFCURVE",
"606 714 OFFCURVE",
"606 680 CURVE SMOOTH",
"606 320 LINE SMOOTH",
"606 163 OFFCURVE",
"532 82 OFFCURVE",
"391 82 CURVE SMOOTH",
"250 82 OFFCURVE",
"176 163 OFFCURVE",
"176 320 CURVE SMOOTH",
"176 680 LINE SMOOTH",
"176 714 OFFCURVE",
"157 735 OFFCURVE",
"125 735 CURVE SMOOTH",
"93 735 OFFCURVE",
"74 714 OFFCURVE",
"74 680 CURVE SMOOTH",
"74 305 LINE SMOOTH",
"74 104 OFFCURVE",
"189 -10 OFFCURVE",
"391 -10 CURVE SMOOTH"
);
}
);
width = 782;
}
);
leftKerningGroup = U;
leftMetricsKey = "=|J";
rightKerningGroup = U;
rightMetricsKey = "=|";
unicode = 0055;
},
{
color = 10;
glyphname = V;
lastChange = "2020-10-02 06:30:15 +0000";
layers = (
{
layerId = "1129C829-629B-4701-B210-BDBC9A77493B";
paths = (
{
closed = 1;
nodes = (
"24 735 OFFCURVE",
"20 731 OFFCURVE",
"20 726 CURVE SMOOTH",
"20 724 OFFCURVE",
"20 723 OFFCURVE",
"21 720 CURVE SMOOTH",
"343 6 LINE SMOOTH",
"347 -2 OFFCURVE",
"352 -5 OFFCURVE",
"360 -5 CURVE SMOOTH",
"368 -5 OFFCURVE",
"373 -2 OFFCURVE",
"377 6 CURVE SMOOTH",
"699 720 LINE SMOOTH",
"700 723 OFFCURVE",
"700 724 OFFCURVE",
"700 726 CURVE SMOOTH",
"700 731 OFFCURVE",
"696 735 OFFCURVE",
"691 735 CURVE SMOOTH",
"686 735 OFFCURVE",
"683 733 OFFCURVE",
"681 729 CURVE",
"361 19 LINE",
"359 19 LINE",
"39 729 LINE",
"37 733 OFFCURVE",
"34 735 OFFCURVE",
"29 735 CURVE SMOOTH"
);
}
);
width = 720;
},
{
layerId = "C39F50C5-0462-4311-9594-9C3283D81B52";
paths = (
{
closed = 1;
nodes = (
"63 735 OFFCURVE",
"12 684 OFFCURVE",
"12 621 CURVE SMOOTH",
"12 601 OFFCURVE",
"17 582 OFFCURVE",
"25 566 CURVE SMOOTH",
"259 67 LINE SMOOTH",
"282 18 OFFCURVE",
"332 -5 OFFCURVE",
"387 -5 CURVE SMOOTH",
"442 -5 OFFCURVE",
"492 18 OFFCURVE",
"515 67 CURVE SMOOTH",
"749 566 LINE SMOOTH",
"757 582 OFFCURVE",
"762 601 OFFCURVE",
"762 621 CURVE SMOOTH",
"762 684 OFFCURVE",
"711 735 OFFCURVE",
"648 735 CURVE SMOOTH",
"601 735 OFFCURVE",
"560 708 OFFCURVE",
"543 669 CURVE SMOOTH",
"388 305 LINE",
"386 305 LINE",
"231 669 LINE SMOOTH",
"214 709 OFFCURVE",
"173 735 OFFCURVE",
"126 735 CURVE SMOOTH"
);
}
);
width = 774;
},
{
layerId = "928648ED-27D4-4C8B-90F5-D31CCAFF29AA";
paths = (
{
closed = 1;
nodes = (
"38 735 OFFCURVE",
"16 714 OFFCURVE",
"16 687 CURVE SMOOTH",
"16 679 OFFCURVE",
"18 671 OFFCURVE",
"22 663 CURVE SMOOTH",
"311 28 LINE SMOOTH",
"322 5 OFFCURVE",
"344 -5 OFFCURVE",
"369 -5 CURVE SMOOTH",
"395 -5 OFFCURVE",
"416 5 OFFCURVE",
"427 28 CURVE SMOOTH",
"717 663 LINE SMOOTH",
"720 671 OFFCURVE",
"722 679 OFFCURVE",
"722 687 CURVE SMOOTH",
"722 714 OFFCURVE",
"701 735 OFFCURVE",
"674 735 CURVE SMOOTH",
"654 735 OFFCURVE",
"637 724 OFFCURVE",
"629 707 CURVE SMOOTH",
"370 124 LINE",
"368 124 LINE",
"109 707 LINE SMOOTH",
"101 724 OFFCURVE",
"84 735 OFFCURVE",
"64 735 CURVE SMOOTH"
);
}
);
width = 738;
}
);
leftKerningGroup = V;
leftMetricsKey = "=A";
rightKerningGroup = V;
rightMetricsKey = "=|";
unicode = 0056;
},
{
color = 10;
glyphname = W;
lastChange = "2020-10-02 06:34:54 +0000";
layers = (
{
layerId = "1129C829-629B-4701-B210-BDBC9A77493B";
paths = (
{
closed = 1;
nodes = (
"258 -5 OFFCURVE",
"265 -1 OFFCURVE",
"269 12 CURVE SMOOTH",
"461 677 LINE",
"463 677 LINE",
"655 12 LINE SMOOTH",
"659 -1 OFFCURVE",
"666 -5 OFFCURVE",
"675 -5 CURVE SMOOTH",
"686 -5 OFFCURVE",
"691 -1 OFFCURVE",
"695 13 CURVE SMOOTH",
"891 719 LINE SMOOTH",
"892 723 OFFCURVE",
"892 725 OFFCURVE",
"892 725 CURVE SMOOTH",
"892 731 OFFCURVE",
"888 735 OFFCURVE",
"883 735 CURVE SMOOTH",
"877 735 OFFCURVE",
"874 731 OFFCURVE",
"872 724 CURVE SMOOTH",
"676 18 LINE",
"674 18 LINE",
"482 683 LINE SMOOTH",
"478 696 OFFCURVE",
"473 700 OFFCURVE",
"462 700 CURVE SMOOTH",
"451 700 OFFCURVE",
"446 696 OFFCURVE",
"442 683 CURVE SMOOTH",
"250 18 LINE",
"248 18 LINE",
"52 724 LINE SMOOTH",
"50 731 OFFCURVE",
"47 735 OFFCURVE",
"41 735 CURVE SMOOTH",
"36 735 OFFCURVE",
"32 731 OFFCURVE",
"32 725 CURVE SMOOTH",
"32 725 OFFCURVE",
"32 723 OFFCURVE",
"33 719 CURVE SMOOTH",
"229 13 LINE SMOOTH",
"233 -1 OFFCURVE",
"238 -5 OFFCURVE",
"249 -5 CURVE SMOOTH"
);
}
);
width = 924;
},
{
layerId = "928648ED-27D4-4C8B-90F5-D31CCAFF29AA";
paths = (
{
closed = 1;
nodes = (
"286 -5 OFFCURVE",
"309 7 OFFCURVE",
"318 39 CURVE SMOOTH",
"458 545 LINE",
"460 545 LINE",
"600 39 LINE SMOOTH",
"609 7 OFFCURVE",
"632 -5 OFFCURVE",
"660 -5 CURVE SMOOTH",
"692 -5 OFFCURVE",
"714 10 OFFCURVE",
"723 43 CURVE SMOOTH",
"889 667 LINE SMOOTH",
"891 675 OFFCURVE",
"892 680 OFFCURVE",
"892 687 CURVE SMOOTH",
"892 714 OFFCURVE",
"871 735 OFFCURVE",
"844 735 CURVE SMOOTH",
"820 735 OFFCURVE",
"803 721 OFFCURVE",
"796 695 CURVE SMOOTH",
"659 179 LINE",
"657 179 LINE",
"525 653 LINE",
"515 687 OFFCURVE",
"495 707 OFFCURVE",
"459 707 CURVE SMOOTH",
"423 707 OFFCURVE",
"403 687 OFFCURVE",
"393 653 CURVE",
"261 179 LINE",
"259 179 LINE",
"122 695 LINE SMOOTH",
"115 721 OFFCURVE",
"98 735 OFFCURVE",
"74 735 CURVE SMOOTH",
"47 735 OFFCURVE",
"26 714 OFFCURVE",
"26 687 CURVE SMOOTH",
"26 680 OFFCURVE",
"27 675 OFFCURVE",
"29 667 CURVE SMOOTH",
"195 43 LINE SMOOTH",
"204 10 OFFCURVE",
"226 -5 OFFCURVE",
"258 -5 CURVE SMOOTH"
);
}
);
width = 918;
},
{
associatedMasterId = "928648ED-27D4-4C8B-90F5-D31CCAFF29AA";
layerId = "CB130EAD-D3A9-4520-B205-4038CA3C9D36";
name = "ExtraBold {756}";
paths = (
{
closed = 1;
nodes = (
"327 -5 OFFCURVE",
"371 20 OFFCURVE",
"385 73 CURVE SMOOTH",
"466 384 LINE",
"468 384 LINE",
"549 73 LINE SMOOTH",
"563 20 OFFCURVE",
"607 -5 OFFCURVE",
"657 -5 CURVE SMOOTH",
"713 -5 OFFCURVE",
"757 23 OFFCURVE",
"770 72 CURVE SMOOTH",
"907 603 LINE SMOOTH",
"911 619 OFFCURVE",
"913 627 OFFCURVE",
"913 639 CURVE SMOOTH",
"913 692 OFFCURVE",
"870 735 OFFCURVE",
"817 735 CURVE SMOOTH",
"770 735 OFFCURVE",
"735 707 OFFCURVE",
"722 658 CURVE SMOOTH",
"649 375 LINE",
"647 375 LINE",
"583 621 LINE SMOOTH",
"566 686 OFFCURVE",
"531 716 OFFCURVE",
"467 716 CURVE SMOOTH",
"403 716 OFFCURVE",
"368 686 OFFCURVE",
"351 621 CURVE SMOOTH",
"287 375 LINE",
"285 375 LINE",
"212 658 LINE SMOOTH",
"199 707 OFFCURVE",
"164 735 OFFCURVE",
"117 735 CURVE SMOOTH",
"64 735 OFFCURVE",
"21 692 OFFCURVE",
"21 639 CURVE SMOOTH",
"21 627 OFFCURVE",
"23 619 OFFCURVE",
"27 603 CURVE SMOOTH",
"164 72 LINE SMOOTH",
"177 23 OFFCURVE",
"221 -5 OFFCURVE",
"277 -5 CURVE SMOOTH"
);
}
);
width = 934;
},
{
layerId = "C39F50C5-0462-4311-9594-9C3283D81B52";
paths = (
{
closed = 1;
nodes = (
"358 -5 OFFCURVE",
"398 33 OFFCURVE",
"414 107 CURVE SMOOTH",
"468 362 LINE",
"470 362 LINE",
"524 107 LINE SMOOTH",
"540 33 OFFCURVE",
"580 -5 OFFCURVE",
"655 -5 CURVE SMOOTH",
"720 -5 OFFCURVE",
"769 28 OFFCURVE",
"786 93 CURVE SMOOTH",
"913 579 LINE SMOOTH",
"918 600 OFFCURVE",
"919 604 OFFCURVE",
"919 621 CURVE SMOOTH",
"919 684 OFFCURVE",
"868 735 OFFCURVE",
"805 735 CURVE SMOOTH",
"749 735 OFFCURVE",
"707 701 OFFCURVE",
"692 643 CURVE SMOOTH",
"633 418 LINE",
"631 418 LINE",
"588 622 LINE SMOOTH",
"574 687 OFFCURVE",
"535 720 OFFCURVE",
"469 720 CURVE SMOOTH",
"403 720 OFFCURVE",
"364 687 OFFCURVE",
"350 622 CURVE SMOOTH",
"307 418 LINE",
"305 418 LINE",
"246 643 LINE SMOOTH",
"231 701 OFFCURVE",
"189 735 OFFCURVE",
"133 735 CURVE SMOOTH",
"70 735 OFFCURVE",
"19 684 OFFCURVE",
"19 621 CURVE SMOOTH",
"19 604 OFFCURVE",
"20 600 OFFCURVE",
"25 579 CURVE SMOOTH",
"152 93 LINE SMOOTH",
"169 28 OFFCURVE",
"218 -5 OFFCURVE",
"283 -5 CURVE SMOOTH"
);
}
);
width = 938;
}
);
leftKerningGroup = W;
leftMetricsKey = "=V*1.6";
rightKerningGroup = W;
rightMetricsKey = "=|";
unicode = 0057;
},
{
color = 10;
glyphname = X;
lastChange = "2020-10-02 06:44:38 +0000";
layers = (
{
background = {
paths = (
{
closed = 1;
nodes = (
"647 12 LINE SMOOTH",
"649 10 OFFCURVE",
"650 8 OFFCURVE",
"650 5 CURVE SMOOTH",
"650 0 OFFCURVE",
"646 -5 OFFCURVE",
"640 -5 CURVE SMOOTH",
"637 -5 OFFCURVE",
"635 -4 OFFCURVE",
"633 -2 CURVE SMOOTH",
"43 718 LINE SMOOTH",
"41 720 OFFCURVE",
"40 722 OFFCURVE",
"40 725 CURVE SMOOTH",
"40 730 OFFCURVE",
"44 735 OFFCURVE",
"50 735 CURVE SMOOTH",
"53 735 OFFCURVE",
"55 734 OFFCURVE",
"57 732 CURVE SMOOTH"
);
},
{
closed = 1;
nodes = (
"635 734 OFFCURVE",
"637 735 OFFCURVE",
"640 735 CURVE SMOOTH",
"646 735 OFFCURVE",
"650 730 OFFCURVE",
"650 725 CURVE SMOOTH",
"650 722 OFFCURVE",
"649 720 OFFCURVE",
"647 718 CURVE SMOOTH",
"57 -2 LINE SMOOTH",
"55 -4 OFFCURVE",
"53 -5 OFFCURVE",
"50 -5 CURVE SMOOTH",
"44 -5 OFFCURVE",
"40 0 OFFCURVE",
"40 5 CURVE SMOOTH",
"40 8 OFFCURVE",
"41 10 OFFCURVE",
"43 12 CURVE SMOOTH",
"633 732 LINE SMOOTH"
);
}
);
};
layerId = "1129C829-629B-4701-B210-BDBC9A77493B";
paths = (
{
closed = 1;
nodes = (
"637 -5 OFFCURVE",
"635 -4 OFFCURVE",
"633 -2 CURVE SMOOTH",
"43 718 LINE SMOOTH",
"41 720 OFFCURVE",
"40 723 OFFCURVE",
"40 725 CURVE SMOOTH",
"40 730 OFFCURVE",
"44 735 OFFCURVE",
"50 735 CURVE SMOOTH",
"53 735 OFFCURVE",
"55 734 OFFCURVE",
"57 732 CURVE SMOOTH",
"647 12 LINE SMOOTH",
"649 10 OFFCURVE",
"650 7 OFFCURVE",
"650 5 CURVE SMOOTH",
"650 0 OFFCURVE",
"646 -5 OFFCURVE",
"640 -5 CURVE SMOOTH"
);
},
{
closed = 1;
nodes = (
"44 -5 OFFCURVE",
"40 0 OFFCURVE",
"40 5 CURVE SMOOTH",
"40 7 OFFCURVE",
"41 10 OFFCURVE",
"43 12 CURVE SMOOTH",
"633 732 LINE SMOOTH",
"635 734 OFFCURVE",
"637 735 OFFCURVE",
"640 735 CURVE SMOOTH",
"646 735 OFFCURVE",
"650 730 OFFCURVE",
"650 725 CURVE SMOOTH",
"650 723 OFFCURVE",
"649 720 OFFCURVE",
"647 718 CURVE SMOOTH",
"57 -2 LINE SMOOTH",
"55 -4 OFFCURVE",
"53 -5 OFFCURVE",
"50 -5 CURVE SMOOTH"
);
}
);
width = 690;
},
{
layerId = "928648ED-27D4-4C8B-90F5-D31CCAFF29AA";
paths = (
{
closed = 1;
nodes = (
"609 -5 OFFCURVE",
"596 3 OFFCURVE",
"585 16 CURVE SMOOTH",
"47 652 LINE SMOOTH",
"39 662 OFFCURVE",
"33 672 OFFCURVE",
"33 684 CURVE SMOOTH",
"33 712 OFFCURVE",
"56 735 OFFCURVE",
"84 735 CURVE SMOOTH",
"100 735 OFFCURVE",
"112 728 OFFCURVE",
"123 716 CURVE SMOOTH",
"664 77 LINE SMOOTH",
"672 68 OFFCURVE",
"676 58 OFFCURVE",
"676 46 CURVE SMOOTH",
"676 18 OFFCURVE",
"654 -5 OFFCURVE",
"626 -5 CURVE SMOOTH"
);
},
{
closed = 1;
nodes = (
"56 -5 OFFCURVE",
"34 18 OFFCURVE",
"34 46 CURVE SMOOTH",
"34 58 OFFCURVE",
"38 68 OFFCURVE",
"46 77 CURVE SMOOTH",
"587 716 LINE SMOOTH",
"598 728 OFFCURVE",
"610 735 OFFCURVE",
"626 735 CURVE SMOOTH",
"654 735 OFFCURVE",
"677 712 OFFCURVE",
"677 684 CURVE SMOOTH",
"677 672 OFFCURVE",
"672 661 OFFCURVE",
"663 652 CURVE SMOOTH",
"125 16 LINE SMOOTH",
"114 3 OFFCURVE",
"101 -5 OFFCURVE",
"84 -5 CURVE SMOOTH"
);
}
);
width = 710;
},
{
layerId = "C39F50C5-0462-4311-9594-9C3283D81B52";
paths = (
{
closed = 1;
nodes = (
"562 -5 OFFCURVE",
"531 16 OFFCURVE",
"504 46 CURVE SMOOTH",
"55 539 LINE SMOOTH",
"36 559 OFFCURVE",
"24 584 OFFCURVE",
"24 615 CURVE SMOOTH",
"24 681 OFFCURVE",
"78 735 OFFCURVE",
"144 735 CURVE SMOOTH",
"183 735 OFFCURVE",
"212 718 OFFCURVE",
"239 688 CURVE SMOOTH",
"695 189 LINE SMOOTH",
"714 168 OFFCURVE",
"724 145 OFFCURVE",
"724 115 CURVE SMOOTH",
"724 49 OFFCURVE",
"669 -5 OFFCURVE",
"603 -5 CURVE SMOOTH"
);
},
{
closed = 1;
nodes = (
"79 -5 OFFCURVE",
"24 49 OFFCURVE",
"24 115 CURVE SMOOTH",
"24 145 OFFCURVE",
"34 168 OFFCURVE",
"53 189 CURVE SMOOTH",
"509 688 LINE SMOOTH",
"536 718 OFFCURVE",
"565 735 OFFCURVE",
"604 735 CURVE SMOOTH",
"670 735 OFFCURVE",
"724 681 OFFCURVE",
"724 615 CURVE SMOOTH",
"724 584 OFFCURVE",
"712 559 OFFCURVE",
"693 539 CURVE SMOOTH",
"244 46 LINE SMOOTH",
"217 16 OFFCURVE",
"186 -5 OFFCURVE",
"145 -5 CURVE SMOOTH"
);
}
);
width = 748;
}
);
leftKerningGroup = X;
leftMetricsKey = "=|K";
rightKerningGroup = X;
rightMetricsKey = "=|";
unicode = 0058;
},
{
color = 10;
glyphname = Y;
lastChange = "2020-10-02 07:03:12 +0000";
layers = (
{
layerId = "1129C829-629B-4701-B210-BDBC9A77493B";
paths = (
{
closed = 1;
nodes = (
"362 -5 OFFCURVE",
"366 -1 OFFCURVE",
"366 5 CURVE SMOOTH",
"366 276 LINE",
"692 716 LINE SMOOTH",
"695 720 OFFCURVE",
"696 722 OFFCURVE",
"696 726 CURVE SMOOTH",
"696 731 OFFCURVE",
"692 735 OFFCURVE",
"686 735 CURVE SMOOTH",
"682 735 OFFCURVE",
"680 733 OFFCURVE",
"677 729 CURVE SMOOTH",
"357 297 LINE",
"355 297 LINE",
"35 729 LINE SMOOTH",
"32 733 OFFCURVE",
"30 735 OFFCURVE",
"26 735 CURVE SMOOTH",
"20 735 OFFCURVE",
"16 731 OFFCURVE",
"16 726 CURVE SMOOTH",
"16 722 OFFCURVE",
"17 720 OFFCURVE",
"20 716 CURVE SMOOTH",
"346 276 LINE",
"346 5 LINE SMOOTH",
"346 -1 OFFCURVE",
"350 -5 OFFCURVE",
"356 -5 CURVE SMOOTH"
);
}
);
width = 712;
},
{
layerId = "C39F50C5-0462-4311-9594-9C3283D81B52";
paths = (
{
closed = 1;
nodes = (
"468 -8 OFFCURVE",
"513 41 OFFCURVE",
"513 124 CURVE SMOOTH",
"513 231 LINE",
"742 544 LINE",
"761 570 OFFCURVE",
"770 590 OFFCURVE",
"770 613 CURVE SMOOTH",
"770 680 OFFCURVE",
"716 735 OFFCURVE",
"649 735 CURVE SMOOTH",
"598 735 OFFCURVE",
"570 705 OFFCURVE",
"542 666 CURVE SMOOTH",
"391 458 LINE",
"389 458 LINE",
"238 666 LINE SMOOTH",
"210 705 OFFCURVE",
"182 735 OFFCURVE",
"131 735 CURVE SMOOTH",
"64 735 OFFCURVE",
"10 680 OFFCURVE",
"10 613 CURVE SMOOTH",
"10 590 OFFCURVE",
"19 570 OFFCURVE",
"38 544 CURVE",
"267 231 LINE",
"267 124 LINE SMOOTH",
"267 41 OFFCURVE",
"312 -8 OFFCURVE",
"390 -8 CURVE SMOOTH"
);
}
);
width = 780;
},
{
layerId = "928648ED-27D4-4C8B-90F5-D31CCAFF29AA";
paths = (
{
closed = 1;
nodes = (
"400 -6 OFFCURVE",
"419 14 OFFCURVE",
"419 49 CURVE SMOOTH",
"419 259 LINE",
"710 653 LINE",
"719 665 OFFCURVE",
"723 673 OFFCURVE",
"723 684 CURVE SMOOTH",
"723 712 OFFCURVE",
"701 735 OFFCURVE",
"672 735 CURVE SMOOTH",
"651 735 OFFCURVE",
"639 723 OFFCURVE",
"627 706 CURVE SMOOTH",
"369 356 LINE",
"367 356 LINE",
"109 706 LINE SMOOTH",
"97 723 OFFCURVE",
"85 735 OFFCURVE",
"64 735 CURVE SMOOTH",
"35 735 OFFCURVE",
"13 712 OFFCURVE",
"13 684 CURVE SMOOTH",
"13 673 OFFCURVE",
"17 665 OFFCURVE",
"26 653 CURVE",
"317 259 LINE",
"317 49 LINE SMOOTH",
"317 14 OFFCURVE",
"336 -6 OFFCURVE",
"368 -6 CURVE SMOOTH"
);
}
);
width = 736;
}
);
leftKerningGroup = Y;
leftMetricsKey = "=V*.8";
rightKerningGroup = Y;
rightMetricsKey = "=|";
unicode = 0059;
},
{
color = 10;
glyphname = Z;
lastChange = "2020-10-02 07:15:20 +0000";
layers = (
{
layerId = "1129C829-629B-4701-B210-BDBC9A77493B";
paths = (
{
closed = 1;
nodes = (
"570 0 LINE SMOOTH",
"576 0 OFFCURVE",
"580 4 OFFCURVE",
"580 10 CURVE SMOOTH",
"580 16 OFFCURVE",
"576 20 OFFCURVE",
"570 20 CURVE SMOOTH",
"69 20 LINE",
"69 22 LINE",
"573 704 LINE SMOOTH",
"578 711 OFFCURVE",
"580 715 OFFCURVE",
"580 720 CURVE SMOOTH",
"580 726 OFFCURVE",
"576 730 OFFCURVE",
"570 730 CURVE SMOOTH",
"50 730 LINE SMOOTH",
"44 730 OFFCURVE",
"40 726 OFFCURVE",
"40 720 CURVE SMOOTH",
"40 714 OFFCURVE",
"44 710 OFFCURVE",
"50 710 CURVE SMOOTH",
"551 710 LINE",
"551 708 LINE",
"47 26 LINE SMOOTH",
"42 19 OFFCURVE",
"40 15 OFFCURVE",
"40 10 CURVE SMOOTH",
"40 4 OFFCURVE",
"44 0 OFFCURVE",
"50 0 CURVE SMOOTH"
);
}
);
width = 620;
},
{
layerId = "928648ED-27D4-4C8B-90F5-D31CCAFF29AA";
paths = (
{
closed = 1;
nodes = (
"569 0 LINE SMOOTH",
"599 0 OFFCURVE",
"617 17 OFFCURVE",
"617 46 CURVE SMOOTH",
"617 75 OFFCURVE",
"599 92 OFFCURVE",
"569 92 CURVE SMOOTH",
"171 92 LINE",
"171 94 LINE",
"597 631 LINE SMOOTH",
"610 647 OFFCURVE",
"617 660 OFFCURVE",
"617 679 CURVE SMOOTH",
"617 713 OFFCURVE",
"599 730 OFFCURVE",
"563 730 CURVE SMOOTH",
"81 730 LINE SMOOTH",
"51 730 OFFCURVE",
"33 713 OFFCURVE",
"33 684 CURVE SMOOTH",
"33 655 OFFCURVE",
"51 638 OFFCURVE",
"81 638 CURVE SMOOTH",
"479 638 LINE",
"479 636 LINE",
"53 99 LINE SMOOTH",
"40 83 OFFCURVE",
"33 70 OFFCURVE",
"33 51 CURVE SMOOTH",
"33 17 OFFCURVE",
"51 0 OFFCURVE",
"87 0 CURVE SMOOTH"
);
}
);
width = 650;
},
{
layerId = "C39F50C5-0462-4311-9594-9C3283D81B52";
paths = (
{
closed = 1;
nodes = (
"571 0 LINE SMOOTH",
"643 0 OFFCURVE",
"684 38 OFFCURVE",
"684 104 CURVE SMOOTH",
"684 170 OFFCURVE",
"643 208 OFFCURVE",
"571 208 CURVE SMOOTH",
"367 208 LINE",
"367 210 LINE",
"640 506 LINE SMOOTH",
"668 536 OFFCURVE",
"684 565 OFFCURVE",
"684 610 CURVE SMOOTH",
"684 685 OFFCURVE",
"635 730 OFFCURVE",
"554 730 CURVE SMOOTH",
"137 730 LINE SMOOTH",
"65 730 OFFCURVE",
"24 692 OFFCURVE",
"24 626 CURVE SMOOTH",
"24 560 OFFCURVE",
"65 522 OFFCURVE",
"137 522 CURVE SMOOTH",
"341 522 LINE",
"341 520 LINE",
"68 224 LINE SMOOTH",
"40 194 OFFCURVE",
"24 165 OFFCURVE",
"24 120 CURVE SMOOTH",
"24 45 OFFCURVE",
"73 0 OFFCURVE",
"154 0 CURVE SMOOTH"
);
}
);
width = 708;
}
);
leftKerningGroup = Z;
leftMetricsKey = "=H*.4";
rightKerningGroup = Z;
rightMetricsKey = "=|";
unicode = 005A;
},
{
color = 10;
glyphname = a;
lastChange = "2020-10-07 10:13:46 +0000";
layers = (
{
background = {
components = (
{
name = d;
transform = "{1, 0, 0, 1, 5, 0}";
}
);
};
layerId = "1129C829-629B-4701-B210-BDBC9A77493B";
paths = (
{
closed = 1;
nodes = (
"508 -10 OFFCURVE",
"618 66 OFFCURVE",
"663 181 CURVE",
"675 181 LINE",
"665 231 LINE",
"665 5 LINE SMOOTH",
"665 -1 OFFCURVE",
"669 -5 OFFCURVE",
"675 -5 CURVE SMOOTH",
"681 -5 OFFCURVE",
"685 -1 OFFCURVE",
"685 5 CURVE SMOOTH",
"685 595 LINE SMOOTH",
"685 601 OFFCURVE",
"681 605 OFFCURVE",
"675 605 CURVE SMOOTH",
"669 605 OFFCURVE",
"665 601 OFFCURVE",
"665 595 CURVE SMOOTH",
"665 369 LINE",
"675 419 LINE",
"663 419 LINE",
"618 534 OFFCURVE",
"508 610 OFFCURVE",
"370 610 CURVE SMOOTH",
"187 610 OFFCURVE",
"55 478 OFFCURVE",
"55 300 CURVE SMOOTH",
"55 122 OFFCURVE",
"187 -10 OFFCURVE",
"370 -10 CURVE SMOOTH"
);
},
{
closed = 1;
nodes = (
"199 10 OFFCURVE",
"75 132 OFFCURVE",
"75 300 CURVE SMOOTH",
"75 468 OFFCURVE",
"199 590 OFFCURVE",
"370 590 CURVE SMOOTH",
"541 590 OFFCURVE",
"665 468 OFFCURVE",
"665 300 CURVE SMOOTH",
"665 132 OFFCURVE",
"541 10 OFFCURVE",
"370 10 CURVE SMOOTH"
);
}
);
width = 785;
},
{
associatedMasterId = "1129C829-629B-4701-B210-BDBC9A77493B";
background = {
components = (
{
name = d;
transform = "{1, 0, 0, 1, 5, 0}";
}
);
};
layerId = "0C6DD947-02BD-4596-8BA0-2C1327773BA1";
name = "ExtraLight {132}";
paths = (
{
closed = 1;
nodes = (
"496 -10 OFFCURVE",
"603 53 OFFCURVE",
"651 155 CURVE",
"669 155 LINE",
"653 227 LINE",
"653 13 LINE SMOOTH",
"653 2 OFFCURVE",
"659 -5 OFFCURVE",
"669 -5 CURVE SMOOTH",
"680 -5 OFFCURVE",
"686 2 OFFCURVE",
"686 13 CURVE SMOOTH",
"686 587 LINE SMOOTH",
"686 598 OFFCURVE",
"680 605 OFFCURVE",
"669 605 CURVE SMOOTH",
"659 605 OFFCURVE",
"653 598 OFFCURVE",
"653 587 CURVE SMOOTH",
"653 373 LINE",
"669 445 LINE",
"651 445 LINE",
"603 547 OFFCURVE",
"496 610 OFFCURVE",
"369 610 CURVE SMOOTH",
"186 610 OFFCURVE",
"53 478 OFFCURVE",
"53 300 CURVE SMOOTH",
"53 122 OFFCURVE",
"186 -10 OFFCURVE",
"369 -10 CURVE SMOOTH"
);
},
{
closed = 1;
nodes = (
"205 21 OFFCURVE",
"86 139 OFFCURVE",
"86 300 CURVE SMOOTH",
"86 461 OFFCURVE",
"205 579 OFFCURVE",
"369 579 CURVE SMOOTH",
"534 579 OFFCURVE",
"653 461 OFFCURVE",
"653 300 CURVE SMOOTH",
"653 139 OFFCURVE",
"534 21 OFFCURVE",
"369 21 CURVE SMOOTH"
);
}
);
width = 783;
},
{
background = {
components = (
{
name = d;
transform = "{1, 0, 0, 1, 4, 0}";
}
);
};
layerId = "928648ED-27D4-4C8B-90F5-D31CCAFF29AA";
paths = (
{
closed = 1;
nodes = (
"456 -10 OFFCURVE",
"538 25 OFFCURVE",
"591 89 CURVE",
"642 89 LINE",
"593 210 LINE",
"593 49 LINE SMOOTH",
"593 16 OFFCURVE",
"611 -5 OFFCURVE",
"642 -5 CURVE SMOOTH",
"673 -5 OFFCURVE",
"691 16 OFFCURVE",
"691 49 CURVE SMOOTH",
"691 551 LINE SMOOTH",
"691 584 OFFCURVE",
"673 605 OFFCURVE",
"642 605 CURVE SMOOTH",
"611 605 OFFCURVE",
"593 584 OFFCURVE",
"593 551 CURVE SMOOTH",
"593 390 LINE",
"642 511 LINE",
"591 511 LINE",
"538 575 OFFCURVE",
"456 610 OFFCURVE",
"362 610 CURVE SMOOTH",
"178 610 OFFCURVE",
"45 480 OFFCURVE",
"45 300 CURVE SMOOTH",
"45 120 OFFCURVE",
"178 -10 OFFCURVE",
"362 -10 CURVE SMOOTH"
);
},
{
closed = 1;
nodes = (
"234 76 OFFCURVE",
"139 171 OFFCURVE",
"139 300 CURVE SMOOTH",
"139 429 OFFCURVE",
"234 524 OFFCURVE",
"366 524 CURVE SMOOTH",
"497 524 OFFCURVE",
"593 429 OFFCURVE",
"593 300 CURVE SMOOTH",
"593 171 OFFCURVE",
"497 76 OFFCURVE",
"366 76 CURVE SMOOTH"
);
}
);
width = 773;
},
{
background = {
components = (
{
name = d;
transform = "{1, 0, 0, 1, 8, 0}";
}
);
};
layerId = "C39F50C5-0462-4311-9594-9C3283D81B52";
paths = (
{
closed = 1;
nodes = (
"380 -10 OFFCURVE",
"439 14 OFFCURVE",
"485 61 CURVE",
"590 61 LINE",
"475 175 LINE",
"475 125 LINE SMOOTH",
"475 44 OFFCURVE",
"518 -5 OFFCURVE",
"590 -5 CURVE SMOOTH",
"662 -5 OFFCURVE",
"705 44 OFFCURVE",
"705 125 CURVE SMOOTH",
"705 475 LINE SMOOTH",
"705 556 OFFCURVE",
"662 605 OFFCURVE",
"590 605 CURVE SMOOTH",
"518 605 OFFCURVE",
"475 556 OFFCURVE",
"475 475 CURVE SMOOTH",
"475 425 LINE",
"590 539 LINE",
"485 539 LINE",
"439 586 OFFCURVE",
"380 610 OFFCURVE",
"310 610 CURVE SMOOTH",
"147 610 OFFCURVE",
"33 482 OFFCURVE",
"33 300 CURVE SMOOTH",
"33 118 OFFCURVE",
"147 -10 OFFCURVE",
"310 -10 CURVE SMOOTH"
);
},
{
closed = 1;
nodes = (
"300 190 OFFCURVE",
"253 237 OFFCURVE",
"253 300 CURVE SMOOTH",
"253 363 OFFCURVE",
"300 410 OFFCURVE",
"364 410 CURVE SMOOTH",
"428 410 OFFCURVE",
"475 363 OFFCURVE",
"475 300 CURVE SMOOTH",
"475 237 OFFCURVE",
"428 190 OFFCURVE",
"364 190 CURVE SMOOTH"
);
}
);
width = 765;
},
{
associatedMasterId = "928648ED-27D4-4C8B-90F5-D31CCAFF29AA";
layerId = "7C8068B2-1F38-49F1-8567-D59642A465FD";
name = "Bold {620}";
paths = (
{
closed = 1;
nodes = (
"419 -10 OFFCURVE",
"489 18 OFFCURVE",
"538 72 CURVE",
"619 72 LINE",
"539 194 LINE",
"539 84 LINE SMOOTH",
"539 29 OFFCURVE",
"568 -5 OFFCURVE",
"619 -5 CURVE SMOOTH",
"668 -5 OFFCURVE",
"697 29 OFFCURVE",
"697 84 CURVE SMOOTH",
"697 516 LINE SMOOTH",
"697 571 OFFCURVE",
"668 605 OFFCURVE",
"619 605 CURVE SMOOTH",
"568 605 OFFCURVE",
"539 571 OFFCURVE",
"539 516 CURVE SMOOTH",
"539 406 LINE",
"619 528 LINE",
"538 528 LINE",
"489 582 OFFCURVE",
"419 610 OFFCURVE",
"339 610 CURVE SMOOTH",
"164 610 OFFCURVE",
"39 481 OFFCURVE",
"39 300 CURVE SMOOTH",
"39 119 OFFCURVE",
"164 -10 OFFCURVE",
"339 -10 CURVE SMOOTH"
);
},
{
closed = 1;
nodes = (
"265 128 OFFCURVE",
"191 202 OFFCURVE",
"191 300 CURVE SMOOTH",
"191 398 OFFCURVE",
"265 472 OFFCURVE",
"365 472 CURVE SMOOTH",
"465 472 OFFCURVE",
"539 398 OFFCURVE",
"539 300 CURVE SMOOTH",
"539 202 OFFCURVE",
"465 128 OFFCURVE",
"365 128 CURVE SMOOTH"
);
}
);
width = 769;
},
{
associatedMasterId = "928648ED-27D4-4C8B-90F5-D31CCAFF29AA";
layerId = "B8664C0E-5F0A-4BE5-B98F-50FD7C928A88";
name = "ExtraBold {756}";
paths = (
{
closed = 1;
nodes = (
"399 -10 OFFCURVE",
"464 16 OFFCURVE",
"511 65 CURVE",
"605 65 LINE",
"508 185 LINE",
"508 104 LINE SMOOTH",
"508 36 OFFCURVE",
"544 -5 OFFCURVE",
"605 -5 CURVE SMOOTH",
"665 -5 OFFCURVE",
"701 36 OFFCURVE",
"701 104 CURVE SMOOTH",
"701 496 LINE SMOOTH",
"701 564 OFFCURVE",
"665 605 OFFCURVE",
"605 605 CURVE SMOOTH",
"544 605 OFFCURVE",
"508 564 OFFCURVE",
"508 496 CURVE SMOOTH",
"508 415 LINE",
"605 535 LINE",
"511 535 LINE",
"464 584 OFFCURVE",
"399 610 OFFCURVE",
"325 610 CURVE SMOOTH",
"156 610 OFFCURVE",
"36 481 OFFCURVE",
"36 300 CURVE SMOOTH",
"36 119 OFFCURVE",
"156 -10 OFFCURVE",
"325 -10 CURVE SMOOTH"
);
},
{
closed = 1;
nodes = (
"282 158 OFFCURVE",
"221 219 OFFCURVE",
"221 300 CURVE SMOOTH",
"221 381 OFFCURVE",
"282 442 OFFCURVE",
"365 442 CURVE SMOOTH",
"447 442 OFFCURVE",
"508 381 OFFCURVE",
"508 300 CURVE SMOOTH",
"508 219 OFFCURVE",
"447 158 OFFCURVE",
"365 158 CURVE SMOOTH"
);
}
);
width = 767;
}
);
leftKerningGroup = o;
leftMetricsKey = "=o";
rightKerningGroup = u;
rightMetricsKey = "=d";
unicode = 0061;
},
{
color = 10;
glyphname = b;
lastChange = "2020-10-07 10:14:47 +0000";
layers = (
{
layerId = "1129C829-629B-4701-B210-BDBC9A77493B";
paths = (
{
closed = 1;
nodes = (
"598 -10 OFFCURVE",
"730 122 OFFCURVE",
"730 300 CURVE SMOOTH",
"730 478 OFFCURVE",
"598 610 OFFCURVE",
"415 610 CURVE SMOOTH",
"277 610 OFFCURVE",
"167 534 OFFCURVE",
"122 419 CURVE",
"120 419 LINE",
"120 755 LINE SMOOTH",
"120 761 OFFCURVE",
"116 765 OFFCURVE",
"110 765 CURVE SMOOTH",
"104 765 OFFCURVE",
"100 761 OFFCURVE",
"100 755 CURVE SMOOTH",
"100 5 LINE SMOOTH",
"100 -1 OFFCURVE",
"104 -5 OFFCURVE",
"110 -5 CURVE SMOOTH",
"116 -5 OFFCURVE",
"120 -1 OFFCURVE",
"120 5 CURVE SMOOTH",
"120 231 LINE",
"110 181 LINE",
"122 181 LINE",
"167 66 OFFCURVE",
"277 -10 OFFCURVE",
"415 -10 CURVE SMOOTH"
);
},
{
closed = 1;
nodes = (
"244 10 OFFCURVE",
"120 132 OFFCURVE",
"120 300 CURVE SMOOTH",
"120 468 OFFCURVE",
"244 590 OFFCURVE",
"415 590 CURVE SMOOTH",
"586 590 OFFCURVE",
"710 468 OFFCURVE",
"710 300 CURVE SMOOTH",
"710 132 OFFCURVE",
"586 10 OFFCURVE",
"415 10 CURVE SMOOTH"
);
}
);
width = 785;
},
{
layerId = "928648ED-27D4-4C8B-90F5-D31CCAFF29AA";
paths = (
{
closed = 1;
nodes = (
"595 -10 OFFCURVE",
"728 120 OFFCURVE",
"728 300 CURVE SMOOTH",
"728 480 OFFCURVE",
"595 610 OFFCURVE",
"411 610 CURVE SMOOTH",
"317 610 OFFCURVE",
"235 575 OFFCURVE",
"182 511 CURVE",
"180 511 LINE",
"180 711 LINE SMOOTH",
"180 744 OFFCURVE",
"162 765 OFFCURVE",
"131 765 CURVE SMOOTH",
"100 765 OFFCURVE",
"82 744 OFFCURVE",
"82 711 CURVE SMOOTH",
"82 49 LINE SMOOTH",
"82 16 OFFCURVE",
"100 -5 OFFCURVE",
"131 -5 CURVE SMOOTH",
"162 -5 OFFCURVE",
"180 16 OFFCURVE",
"180 49 CURVE SMOOTH",
"180 210 LINE",
"131 89 LINE",
"182 89 LINE",
"235 25 OFFCURVE",
"317 -10 OFFCURVE",
"411 -10 CURVE SMOOTH"
);
},
{
closed = 1;
nodes = (
"276 76 OFFCURVE",
"180 171 OFFCURVE",
"180 300 CURVE SMOOTH",
"180 429 OFFCURVE",
"276 524 OFFCURVE",
"407 524 CURVE SMOOTH",
"539 524 OFFCURVE",
"634 429 OFFCURVE",
"634 300 CURVE SMOOTH",
"634 171 OFFCURVE",
"539 76 OFFCURVE",
"407 76 CURVE SMOOTH"
);
}
);
width = 773;
},
{
associatedMasterId = "928648ED-27D4-4C8B-90F5-D31CCAFF29AA";
layerId = "64009F49-0608-43A8-9C16-00E0AF50AC8A";
name = "Bold {620}";
paths = (
{
closed = 1;
nodes = (
"606 -10 OFFCURVE",
"730 119 OFFCURVE",
"730 300 CURVE SMOOTH",
"730 481 OFFCURVE",
"606 610 OFFCURVE",
"432 610 CURVE SMOOTH",
"351 610 OFFCURVE",
"282 582 OFFCURVE",
"233 529 CURVE",
"231 529 LINE",
"231 676 LINE SMOOTH",
"231 731 OFFCURVE",
"201 765 OFFCURVE",
"152 765 CURVE SMOOTH",
"102 765 OFFCURVE",
"72 731 OFFCURVE",
"72 676 CURVE SMOOTH",
"72 84 LINE SMOOTH",
"72 29 OFFCURVE",
"102 -5 OFFCURVE",
"152 -5 CURVE SMOOTH",
"201 -5 OFFCURVE",
"231 29 OFFCURVE",
"231 84 CURVE SMOOTH",
"231 194 LINE",
"152 72 LINE",
"232 72 LINE",
"280 18 OFFCURVE",
"350 -10 OFFCURVE",
"432 -10 CURVE SMOOTH"
);
},
{
closed = 1;
nodes = (
"305 128 OFFCURVE",
"231 202 OFFCURVE",
"231 300 CURVE SMOOTH",
"231 398 OFFCURVE",
"305 472 OFFCURVE",
"404 472 CURVE SMOOTH",
"505 472 OFFCURVE",
"579 398 OFFCURVE",
"579 300 CURVE SMOOTH",
"579 202 OFFCURVE",
"505 128 OFFCURVE",
"404 128 CURVE SMOOTH"
);
}
);
width = 769;
},
{
associatedMasterId = "928648ED-27D4-4C8B-90F5-D31CCAFF29AA";
layerId = "0FA0765A-1A6D-4B8A-8927-75EBF5939D8E";
name = "ExtraBold {756}";
paths = (
{
closed = 1;
nodes = (
"611 -10 OFFCURVE",
"731 119 OFFCURVE",
"731 300 CURVE SMOOTH",
"731 481 OFFCURVE",
"611 610 OFFCURVE",
"443 610 CURVE SMOOTH",
"370 610 OFFCURVE",
"308 586 OFFCURVE",
"261 540 CURVE",
"259 540 LINE",
"259 656 LINE SMOOTH",
"259 724 OFFCURVE",
"223 765 OFFCURVE",
"163 765 CURVE SMOOTH",
"102 765 OFFCURVE",
"66 724 OFFCURVE",
"66 656 CURVE SMOOTH",
"66 104 LINE SMOOTH",
"66 36 OFFCURVE",
"102 -5 OFFCURVE",
"163 -5 CURVE SMOOTH",
"223 -5 OFFCURVE",
"259 36 OFFCURVE",
"259 104 CURVE SMOOTH",
"259 185 LINE",
"163 65 LINE",
"256 65 LINE",
"302 16 OFFCURVE",
"367 -10 OFFCURVE",
"443 -10 CURVE SMOOTH"
);
},
{
closed = 1;
nodes = (
"320 158 OFFCURVE",
"259 219 OFFCURVE",
"259 300 CURVE SMOOTH",
"259 381 OFFCURVE",
"320 442 OFFCURVE",
"402 442 CURVE SMOOTH",
"485 442 OFFCURVE",
"546 381 OFFCURVE",
"546 300 CURVE SMOOTH",
"546 219 OFFCURVE",
"485 158 OFFCURVE",
"402 158 CURVE SMOOTH"
);
}
);
width = 767;
},
{
layerId = "C39F50C5-0462-4311-9594-9C3283D81B52";
paths = (
{
closed = 1;
nodes = (
"618 -10 OFFCURVE",
"732 118 OFFCURVE",
"732 300 CURVE SMOOTH",
"732 482 OFFCURVE",
"618 610 OFFCURVE",
"455 610 CURVE SMOOTH",
"391 610 OFFCURVE",
"336 590 OFFCURVE",
"292 551 CURVE",
"290 551 LINE",
"290 635 LINE SMOOTH",
"290 716 OFFCURVE",
"247 765 OFFCURVE",
"175 765 CURVE SMOOTH",
"103 765 OFFCURVE",
"60 716 OFFCURVE",
"60 635 CURVE SMOOTH",
"60 125 LINE SMOOTH",
"60 44 OFFCURVE",
"103 -5 OFFCURVE",
"175 -5 CURVE SMOOTH",
"247 -5 OFFCURVE",
"290 44 OFFCURVE",
"290 125 CURVE SMOOTH",
"290 175 LINE",
"175 61 LINE",
"280 61 LINE",
"326 14 OFFCURVE",
"385 -10 OFFCURVE",
"455 -10 CURVE SMOOTH"
);
},
{
closed = 1;
nodes = (
"337 190 OFFCURVE",
"290 237 OFFCURVE",
"290 300 CURVE SMOOTH",
"290 363 OFFCURVE",
"337 410 OFFCURVE",
"401 410 CURVE SMOOTH",
"465 410 OFFCURVE",
"512 363 OFFCURVE",
"512 300 CURVE SMOOTH",
"512 237 OFFCURVE",
"465 190 OFFCURVE",
"401 190 CURVE SMOOTH"
);
}
);
width = 765;
},
{
associatedMasterId = "1129C829-629B-4701-B210-BDBC9A77493B";
layerId = "B19A283D-F6BB-4073-BEBC-D1F616622024";
name = "ExtraLight {132}";
paths = (
{
closed = 1;
nodes = (
"597 -10 OFFCURVE",
"730 122 OFFCURVE",
"730 300 CURVE SMOOTH",
"730 478 OFFCURVE",
"597 610 OFFCURVE",
"414 610 CURVE SMOOTH",
"287 610 OFFCURVE",
"180 547 OFFCURVE",
"132 445 CURVE",
"130 445 LINE",
"130 747 LINE SMOOTH",
"130 758 OFFCURVE",
"124 765 OFFCURVE",
"114 765 CURVE SMOOTH",
"103 765 OFFCURVE",
"97 758 OFFCURVE",
"97 747 CURVE SMOOTH",
"97 13 LINE SMOOTH",
"97 2 OFFCURVE",
"103 -5 OFFCURVE",
"114 -5 CURVE SMOOTH",
"124 -5 OFFCURVE",
"130 2 OFFCURVE",
"130 13 CURVE SMOOTH",
"130 227 LINE",
"114 155 LINE",
"132 155 LINE",
"180 53 OFFCURVE",
"287 -10 OFFCURVE",
"414 -10 CURVE SMOOTH"
);
},
{
closed = 1;
nodes = (
"250 21 OFFCURVE",
"130 139 OFFCURVE",
"130 300 CURVE SMOOTH",
"130 461 OFFCURVE",
"250 579 OFFCURVE",
"414 579 CURVE SMOOTH",
"578 579 OFFCURVE",
"697 461 OFFCURVE",
"697 300 CURVE SMOOTH",
"697 139 OFFCURVE",
"578 21 OFFCURVE",
"414 21 CURVE SMOOTH"
);
}
);
width = 784;
}
);
leftKerningGroup = b;
leftMetricsKey = "=h";
rightKerningGroup = o;
rightMetricsKey = "=o";
unicode = 0062;
},
{
color = 10;
glyphname = c;
lastChange = "2020-10-03 09:05:21 +0000";
layers = (
{
background = {
paths = (
{
closed = 1;
nodes = (
"470 -10 OFFCURVE",
"531 0 OFFCURVE",
"572 22 CURVE SMOOTH",
"611 43 OFFCURVE",
"633 76 OFFCURVE",
"633 114 CURVE SMOOTH",
"633 170 OFFCURVE",
"585 216 OFFCURVE",
"526 216 CURVE SMOOTH",
"509 216 OFFCURVE",
"496 213 OFFCURVE",
"464 204 CURVE SMOOTH",
"441 197 OFFCURVE",
"415 190 OFFCURVE",
"384 190 CURVE SMOOTH",
"308 190 OFFCURVE",
"263 231 OFFCURVE",
"263 300 CURVE SMOOTH",
"263 369 OFFCURVE",
"308 410 OFFCURVE",
"384 410 CURVE SMOOTH",
"415 410 OFFCURVE",
"441 403 OFFCURVE",
"464 396 CURVE SMOOTH",
"496 387 OFFCURVE",
"509 384 OFFCURVE",
"526 384 CURVE SMOOTH",
"585 384 OFFCURVE",
"633 430 OFFCURVE",
"633 486 CURVE SMOOTH",
"633 524 OFFCURVE",
"611 557 OFFCURVE",
"572 578 CURVE SMOOTH",
"531 600 OFFCURVE",
"470 610 OFFCURVE",
"380 610 CURVE SMOOTH",
"175 610 OFFCURVE",
"33 484 OFFCURVE",
"33 300 CURVE SMOOTH",
"33 116 OFFCURVE",
"175 -10 OFFCURVE",
"380 -10 CURVE SMOOTH"
);
}
);
};
layerId = "C39F50C5-0462-4311-9594-9C3283D81B52";
paths = (
{
closed = 1;
nodes = (
"467 -10 OFFCURVE",
"532 1 OFFCURVE",
"574 23 CURVE SMOOTH",
"613 44 OFFCURVE",
"633 74 OFFCURVE",
"633 114 CURVE SMOOTH",
"633 174 OFFCURVE",
"589 216 OFFCURVE",
"526 216 CURVE SMOOTH",
"506 216 OFFCURVE",
"486 210 OFFCURVE",
"464 204 CURVE SMOOTH",
"440 197 OFFCURVE",
"413 190 OFFCURVE",
"384 190 CURVE SMOOTH",
"308 190 OFFCURVE",
"263 231 OFFCURVE",
"263 300 CURVE SMOOTH",
"263 369 OFFCURVE",
"308 410 OFFCURVE",
"384 410 CURVE SMOOTH",
"413 410 OFFCURVE",
"440 403 OFFCURVE",
"464 396 CURVE SMOOTH",
"486 390 OFFCURVE",
"506 384 OFFCURVE",
"526 384 CURVE SMOOTH",
"589 384 OFFCURVE",
"633 426 OFFCURVE",
"633 486 CURVE SMOOTH",
"633 526 OFFCURVE",
"613 556 OFFCURVE",
"574 577 CURVE SMOOTH",
"532 599 OFFCURVE",
"467 610 OFFCURVE",
"380 610 CURVE SMOOTH",
"175 610 OFFCURVE",
"33 484 OFFCURVE",
"33 300 CURVE SMOOTH",
"33 116 OFFCURVE",
"175 -10 OFFCURVE",
"380 -10 CURVE SMOOTH"
);
}
);
width = 675;
},
{
layerId = "928648ED-27D4-4C8B-90F5-D31CCAFF29AA";
paths = (
{
closed = 1;
nodes = (
"460 -10 OFFCURVE",
"528 5 OFFCURVE",
"586 34 CURVE SMOOTH",
"605 44 OFFCURVE",
"613 56 OFFCURVE",
"613 75 CURVE SMOOTH",
"613 100 OFFCURVE",
"594 118 OFFCURVE",
"568 118 CURVE SMOOTH",
"559 118 OFFCURVE",
"550 115 OFFCURVE",
"540 112 CURVE SMOOTH",
"490 89 OFFCURVE",
"438 76 OFFCURVE",
"384 76 CURVE SMOOTH",
"238 76 OFFCURVE",
"142 165 OFFCURVE",
"142 300 CURVE SMOOTH",
"142 435 OFFCURVE",
"238 524 OFFCURVE",
"384 524 CURVE SMOOTH",
"438 524 OFFCURVE",
"490 511 OFFCURVE",
"540 488 CURVE SMOOTH",
"550 485 OFFCURVE",
"559 482 OFFCURVE",
"568 482 CURVE SMOOTH",
"594 482 OFFCURVE",
"613 500 OFFCURVE",
"613 525 CURVE SMOOTH",
"613 544 OFFCURVE",
"605 556 OFFCURVE",
"586 566 CURVE SMOOTH",
"528 595 OFFCURVE",
"460 610 OFFCURVE",
"382 610 CURVE SMOOTH",
"182 610 OFFCURVE",
"45 484 OFFCURVE",
"45 300 CURVE SMOOTH",
"45 116 OFFCURVE",
"182 -10 OFFCURVE",
"382 -10 CURVE SMOOTH"
);
}
);
width = 670;
},
{
layerId = "1129C829-629B-4701-B210-BDBC9A77493B";
paths = (
{
closed = 1;
nodes = (
"460 -10 OFFCURVE",
"529 7 OFFCURVE",
"597 41 CURVE",
"603 44 OFFCURVE",
"605 46 OFFCURVE",
"605 52 CURVE SMOOTH",
"605 57 OFFCURVE",
"601 61 OFFCURVE",
"596 61 CURVE SMOOTH",
"593 61 OFFCURVE",
"590 60 OFFCURVE",
"588 59 CURVE SMOOTH",
"522 26 OFFCURVE",
"456 10 OFFCURVE",
"387 10 CURVE SMOOTH",
"201 10 OFFCURVE",
"75 127 OFFCURVE",
"75 300 CURVE SMOOTH",
"75 473 OFFCURVE",
"201 590 OFFCURVE",
"387 590 CURVE SMOOTH",
"456 590 OFFCURVE",
"522 574 OFFCURVE",
"588 541 CURVE SMOOTH",
"590 540 OFFCURVE",
"593 539 OFFCURVE",
"596 539 CURVE SMOOTH",
"601 539 OFFCURVE",
"605 543 OFFCURVE",
"605 548 CURVE SMOOTH",
"605 554 OFFCURVE",
"603 556 OFFCURVE",
"597 559 CURVE",
"529 593 OFFCURVE",
"460 610 OFFCURVE",
"387 610 CURVE SMOOTH",
"190 610 OFFCURVE",
"55 484 OFFCURVE",
"55 300 CURVE SMOOTH",
"55 116 OFFCURVE",
"190 -10 OFFCURVE",
"387 -10 CURVE SMOOTH"
);
}
);
width = 675;
}
);
leftKerningGroup = o;
leftMetricsKey = "=o";
rightKerningGroup = c;
rightMetricsKey = "=|h*.7";
unicode = 0063;
},
{
color = 10;
glyphname = e;
lastChange = "2020-10-04 07:11:40 +0000";
layers = (
{
layerId = "928648ED-27D4-4C8B-90F5-D31CCAFF29AA";
paths = (
{
closed = 1;
nodes = (
"468 -10 OFFCURVE",
"562 10 OFFCURVE",
"614 40 CURVE SMOOTH",
"633 51 OFFCURVE",
"645 65 OFFCURVE",
"645 86 CURVE SMOOTH",
"645 110 OFFCURVE",
"627 129 OFFCURVE",
"603 129 CURVE SMOOTH",
"589 129 OFFCURVE",
"578 124 OFFCURVE",
"567 118 CURVE SMOOTH",
"527 94 OFFCURVE",
"452 76 OFFCURVE",
"386 76 CURVE SMOOTH",
"237 76 OFFCURVE",
"139 165 OFFCURVE",
"139 301 CURVE SMOOTH",
"139 436 OFFCURVE",
"236 526 OFFCURVE",
"380 526 CURVE SMOOTH",
"471 526 OFFCURVE",
"533 492 OFFCURVE",
"564 424 CURVE",
"575 473 LINE",
"114 206 LINE",
"159 129 LINE",
"625 398 LINE SMOOTH",
"644 408 OFFCURVE",
"654 424 OFFCURVE",
"654 442 CURVE SMOOTH",
"654 453 OFFCURVE",
"651 464 OFFCURVE",
"644 475 CURVE SMOOTH",
"600 560 OFFCURVE",
"505 610 OFFCURVE",
"389 610 CURVE SMOOTH",
"184 610 OFFCURVE",
"45 484 OFFCURVE",
"45 300 CURVE SMOOTH",
"45 116 OFFCURVE",
"184 -10 OFFCURVE",
"389 -10 CURVE SMOOTH"
);
}
);
width = 704;
},
{
associatedMasterId = "928648ED-27D4-4C8B-90F5-D31CCAFF29AA";
layerId = "B3B8F49D-8D89-4CC7-A7BF-96DA5059A42E";
name = "ExtraBold {756}";
paths = (
{
closed = 1;
nodes = (
"459 -10 OFFCURVE",
"541 6 OFFCURVE",
"597 35 CURVE SMOOTH",
"635 55 OFFCURVE",
"661 83 OFFCURVE",
"661 121 CURVE SMOOTH",
"661 165 OFFCURVE",
"624 201 OFFCURVE",
"579 201 CURVE SMOOTH",
"554 201 OFFCURVE",
"536 190 OFFCURVE",
"514 178 CURVE SMOOTH",
"483 160 OFFCURVE",
"438 144 OFFCURVE",
"382 144 CURVE SMOOTH",
"275 144 OFFCURVE",
"210 203 OFFCURVE",
"210 302 CURVE SMOOTH",
"210 401 OFFCURVE",
"273 465 OFFCURVE",
"369 465 CURVE SMOOTH",
"423 465 OFFCURVE",
"465 444 OFFCURVE",
"490 407 CURVE",
"512 461 LINE",
"141 251 LINE",
"224 117 LINE",
"611 337 LINE SMOOTH",
"646 357 OFFCURVE",
"663 385 OFFCURVE",
"663 419 CURVE SMOOTH",
"663 439 OFFCURVE",
"657 461 OFFCURVE",
"644 484 CURVE SMOOTH",
"599 564 OFFCURVE",
"504 610 OFFCURVE",
"388 610 CURVE SMOOTH",
"179 610 OFFCURVE",
"36 484 OFFCURVE",
"36 300 CURVE SMOOTH",
"36 116 OFFCURVE",
"179 -10 OFFCURVE",
"388 -10 CURVE SMOOTH"
);
}
);
width = 703;
},
{
layerId = "1129C829-629B-4701-B210-BDBC9A77493B";
paths = (
{
closed = 1;
nodes = (
"479 -10 OFFCURVE",
"583 13 OFFCURVE",
"631 44 CURVE SMOOTH",
"635 47 OFFCURVE",
"636 49 OFFCURVE",
"636 53 CURVE SMOOTH",
"636 59 OFFCURVE",
"632 63 OFFCURVE",
"626 63 CURVE SMOOTH",
"623 63 OFFCURVE",
"621 62 OFFCURVE",
"618 60 CURVE SMOOTH",
"573 31 OFFCURVE",
"475 10 OFFCURVE",
"393 10 CURVE SMOOTH",
"203 10 OFFCURVE",
"75 127 OFFCURVE",
"75 300 CURVE SMOOTH",
"75 473 OFFCURVE",
"203 590 OFFCURVE",
"393 590 CURVE SMOOTH",
"507 590 OFFCURVE",
"596 538 OFFCURVE",
"634 448 CURVE",
"641 463 LINE",
"102 149 LINE",
"112 132 LINE",
"639 439 LINE SMOOTH",
"646 443 OFFCURVE",
"650 449 OFFCURVE",
"650 457 CURVE SMOOTH",
"650 461 OFFCURVE",
"649 464 OFFCURVE",
"647 468 CURVE SMOOTH",
"605 557 OFFCURVE",
"510 610 OFFCURVE",
"393 610 CURVE SMOOTH",
"192 610 OFFCURVE",
"55 484 OFFCURVE",
"55 300 CURVE SMOOTH",
"55 116 OFFCURVE",
"192 -10 OFFCURVE",
"393 -10 CURVE SMOOTH"
);
}
);
width = 711;
},
{
associatedMasterId = "C39F50C5-0462-4311-9594-9C3283D81B52";
background = {
components = (
{
name = e.001;
}
);
};
layerId = "FCF16B1B-B4AB-4736-9791-BF70DD1C8C55";
name = horizon;
paths = (
{
closed = 1;
nodes = (
"472 171 OFFCURVE",
"424 160 OFFCURVE",
"364 160 CURVE SMOOTH",
"274 160 OFFCURVE",
"237 212 OFFCURVE",
"237 303 CURVE SMOOTH",
"237 402 OFFCURVE",
"287 450 OFFCURVE",
"364 450 CURVE SMOOTH",
"441 450 OFFCURVE",
"491 402 OFFCURVE",
"491 303 CURVE",
"558 380 LINE",
"130 380 LINE",
"130 230 LINE",
"603 230 LINE SMOOTH",
"658 230 OFFCURVE",
"693 259 OFFCURVE",
"693 310 CURVE SMOOTH",
"693 488 OFFCURVE",
"559 610 OFFCURVE",
"363 610 CURVE SMOOTH",
"167 610 OFFCURVE",
"33 484 OFFCURVE",
"33 300 CURVE SMOOTH",
"33 116 OFFCURVE",
"167 -10 OFFCURVE",
"363 -10 CURVE SMOOTH",
"439 -10 OFFCURVE",
"532 -2 OFFCURVE",
"594 21 CURVE",
"503 182 LINE"
);
},
{
closed = 1;
nodes = (
"638 43 OFFCURVE",
"667 76 OFFCURVE",
"667 118 CURVE SMOOTH",
"667 168 OFFCURVE",
"626 209 OFFCURVE",
"576 209 CURVE SMOOTH",
"547 209 OFFCURVE",
"528 196 OFFCURVE",
"503 182 CURVE",
"594 21 LINE"
);
}
);
width = 729;
},
{
layerId = "C39F50C5-0462-4311-9594-9C3283D81B52";
paths = (
{
closed = 1;
nodes = (
"455 -10 OFFCURVE",
"533 4 OFFCURVE",
"590 33 CURVE SMOOTH",
"636 56 OFFCURVE",
"667 90 OFFCURVE",
"667 134 CURVE SMOOTH",
"667 186 OFFCURVE",
"623 229 OFFCURVE",
"570 229 CURVE SMOOTH",
"540 229 OFFCURVE",
"519 215 OFFCURVE",
"493 201 CURVE SMOOTH",
"466 186 OFFCURVE",
"433 170 OFFCURVE",
"380 170 CURVE SMOOTH",
"289 170 OFFCURVE",
"237 218 OFFCURVE",
"237 303 CURVE SMOOTH",
"237 387 OFFCURVE",
"287 441 OFFCURVE",
"364 441 CURVE SMOOTH",
"405 441 OFFCURVE",
"439 426 OFFCURVE",
"461 400 CURVE",
"487 443 LINE",
"158 258 LINE",
"244 123 LINE",
"606 327 LINE SMOOTH",
"646 349 OFFCURVE",
"666 381 OFFCURVE",
"666 417 CURVE SMOOTH",
"666 439 OFFCURVE",
"659 463 OFFCURVE",
"644 488 CURVE SMOOTH",
"599 565 OFFCURVE",
"503 610 OFFCURVE",
"387 610 CURVE SMOOTH",
"177 610 OFFCURVE",
"33 484 OFFCURVE",
"33 300 CURVE SMOOTH",
"33 116 OFFCURVE",
"177 -10 OFFCURVE",
"387 -10 CURVE SMOOTH"
);
}
);
width = 703;
}
);
leftKerningGroup = o;
leftMetricsKey = "=o";
rightKerningGroup = o;
rightMetricsKey = "=|*1.1";
unicode = 0065;
},
{
color = 10;
glyphname = f;
lastChange = "2020-10-07 10:16:47 +0000";
layers = (
{
layerId = "1129C829-629B-4701-B210-BDBC9A77493B";
paths = (
{
closed = 1;
nodes = (
"256 -5 OFFCURVE",
"260 -1 OFFCURVE",
"260 5 CURVE SMOOTH",
"260 530 LINE SMOOTH",
"260 698 OFFCURVE",
"314 760 OFFCURVE",
"458 760 CURVE SMOOTH",
"515 760 OFFCURVE",
"568 745 OFFCURVE",
"623 712 CURVE SMOOTH",
"625 711 OFFCURVE",
"628 710 OFFCURVE",
"631 710 CURVE SMOOTH",
"636 710 OFFCURVE",
"640 714 OFFCURVE",
"640 719 CURVE SMOOTH",
"640 723 OFFCURVE",
"638 726 OFFCURVE",
"633 729 CURVE SMOOTH",
"576 763 OFFCURVE",
"519 780 OFFCURVE",
"458 780 CURVE SMOOTH",
"302 780 OFFCURVE",
"240 709 OFFCURVE",
"240 530 CURVE SMOOTH",
"240 5 LINE SMOOTH",
"240 -1 OFFCURVE",
"244 -5 OFFCURVE",
"250 -5 CURVE SMOOTH"
);
},
{
closed = 1;
nodes = (
"630 430 LINE SMOOTH",
"636 430 OFFCURVE",
"640 434 OFFCURVE",
"640 440 CURVE SMOOTH",
"640 446 OFFCURVE",
"636 450 OFFCURVE",
"630 450 CURVE SMOOTH",
"30 450 LINE SMOOTH",
"24 450 OFFCURVE",
"20 446 OFFCURVE",
"20 440 CURVE SMOOTH",
"20 434 OFFCURVE",
"24 430 OFFCURVE",
"30 430 CURVE SMOOTH"
);
}
);
width = 672;
},
{
layerId = "C39F50C5-0462-4311-9594-9C3283D81B52";
paths = (
{
closed = 1;
nodes = (
"385 -5 OFFCURVE",
"430 45 OFFCURVE",
"430 129 CURVE SMOOTH",
"430 550 LINE SMOOTH",
"430 584 OFFCURVE",
"444 600 OFFCURVE",
"472 600 CURVE SMOOTH",
"489 600 OFFCURVE",
"505 594 OFFCURVE",
"523 588 CURVE SMOOTH",
"552 577 OFFCURVE",
"568 574 OFFCURVE",
"585 574 CURVE SMOOTH",
"648 574 OFFCURVE",
"692 616 OFFCURVE",
"692 676 CURVE SMOOTH",
"692 716 OFFCURVE",
"672 746 OFFCURVE",
"633 767 CURVE SMOOTH",
"593 788 OFFCURVE",
"535 800 OFFCURVE",
"472 800 CURVE SMOOTH",
"296 800 OFFCURVE",
"192 707 OFFCURVE",
"192 550 CURVE SMOOTH",
"192 129 LINE SMOOTH",
"192 45 OFFCURVE",
"237 -5 OFFCURVE",
"311 -5 CURVE SMOOTH"
);
},
{
closed = 1;
nodes = (
"582 311 LINE SMOOTH",
"652 311 OFFCURVE",
"692 348 OFFCURVE",
"692 411 CURVE SMOOTH",
"692 474 OFFCURVE",
"652 511 OFFCURVE",
"582 511 CURVE SMOOTH",
"122 511 LINE SMOOTH",
"52 511 OFFCURVE",
"12 474 OFFCURVE",
"12 411 CURVE SMOOTH",
"12 348 OFFCURVE",
"52 311 OFFCURVE",
"122 311 CURVE SMOOTH"
);
}
);
width = 711;
},
{
layerId = "928648ED-27D4-4C8B-90F5-D31CCAFF29AA";
paths = (
{
closed = 1;
nodes = (
"301 -5 OFFCURVE",
"320 16 OFFCURVE",
"320 49 CURVE SMOOTH",
"320 537 LINE SMOOTH",
"320 656 OFFCURVE",
"360 701 OFFCURVE",
"462 701 CURVE SMOOTH",
"496 701 OFFCURVE",
"518 696 OFFCURVE",
"561 677 CURVE SMOOTH",
"589 664 OFFCURVE",
"601 660 OFFCURVE",
"613 660 CURVE SMOOTH",
"639 660 OFFCURVE",
"658 678 OFFCURVE",
"658 703 CURVE SMOOTH",
"658 720 OFFCURVE",
"649 733 OFFCURVE",
"632 743 CURVE SMOOTH",
"582 772 OFFCURVE",
"524 787 OFFCURVE",
"462 787 CURVE SMOOTH",
"299 787 OFFCURVE",
"222 708 OFFCURVE",
"222 537 CURVE SMOOTH",
"222 49 LINE SMOOTH",
"222 16 OFFCURVE",
"241 -5 OFFCURVE",
"271 -5 CURVE SMOOTH"
);
},
{
closed = 1;
nodes = (
"612 386 LINE SMOOTH",
"641 386 OFFCURVE",
"658 402 OFFCURVE",
"658 429 CURVE SMOOTH",
"658 456 OFFCURVE",
"641 472 OFFCURVE",
"612 472 CURVE SMOOTH",
"63 472 LINE SMOOTH",
"34 472 OFFCURVE",
"16 456 OFFCURVE",
"16 429 CURVE SMOOTH",
"16 402 OFFCURVE",
"34 386 OFFCURVE",
"63 386 CURVE SMOOTH"
);
}
);
width = 684;
}
);
leftKerningGroup = f;
leftMetricsKey = "=H*.2";
rightKerningGroup = f;
rightMetricsKey = "=|*1.6";
unicode = 0066;
},
{
color = 10;
glyphname = g;
lastChange = "2020-10-06 11:54:16 +0000";
layers = (
{
layerId = "1129C829-629B-4701-B210-BDBC9A77493B";
paths = (
{
closed = 1;
nodes = (
"583 -180 OFFCURVE",
"685 -75 OFFCURVE",
"685 144 CURVE SMOOTH",
"685 595 LINE SMOOTH",
"685 601 OFFCURVE",
"681 605 OFFCURVE",
"675 605 CURVE SMOOTH",
"669 605 OFFCURVE",
"665 601 OFFCURVE",
"665 595 CURVE SMOOTH",
"665 390 LINE",
"675 440 LINE",
"663 440 LINE",
"618 547 OFFCURVE",
"510 610 OFFCURVE",
"370 610 CURVE SMOOTH",
"181 610 OFFCURVE",
"55 496 OFFCURVE",
"55 325 CURVE SMOOTH",
"55 154 OFFCURVE",
"181 40 OFFCURVE",
"370 40 CURVE SMOOTH",
"510 40 OFFCURVE",
"618 103 OFFCURVE",
"663 210 CURVE",
"665 210 LINE",
"665 144 LINE SMOOTH",
"665 -64 OFFCURVE",
"572 -160 OFFCURVE",
"370 -160 CURVE SMOOTH",
"275 -160 OFFCURVE",
"189 -138 OFFCURVE",
"114 -95 CURVE SMOOTH",
"109 -92 OFFCURVE",
"107 -92 OFFCURVE",
"105 -92 CURVE SMOOTH",
"100 -92 OFFCURVE",
"96 -96 OFFCURVE",
"96 -101 CURVE SMOOTH",
"96 -106 OFFCURVE",
"98 -108 OFFCURVE",
"104 -112 CURVE SMOOTH",
"182 -157 OFFCURVE",
"272 -180 OFFCURVE",
"370 -180 CURVE SMOOTH"
);
},
{
closed = 1;
nodes = (
"192 60 OFFCURVE",
"75 165 OFFCURVE",
"75 325 CURVE SMOOTH",
"75 485 OFFCURVE",
"192 590 OFFCURVE",
"370 590 CURVE SMOOTH",
"548 590 OFFCURVE",
"665 485 OFFCURVE",
"665 325 CURVE SMOOTH",
"665 165 OFFCURVE",
"548 60 OFFCURVE",
"370 60 CURVE SMOOTH"
);
}
);
width = 785;
},
{
associatedMasterId = "1129C829-629B-4701-B210-BDBC9A77493B";
layerId = "54516ADD-6C5E-4E82-94FC-8C65ED63E21C";
name = "ExtraLight {132}";
paths = (
{
closed = 1;
nodes = (
"583 -181 OFFCURVE",
"686 -77 OFFCURVE",
"686 143 CURVE SMOOTH",
"686 587 LINE SMOOTH",
"686 598 OFFCURVE",
"680 605 OFFCURVE",
"669 605 CURVE SMOOTH",
"659 605 OFFCURVE",
"653 598 OFFCURVE",
"653 587 CURVE SMOOTH",
"653 392 LINE",
"669 459 LINE",
"652 459 LINE",
"607 553 OFFCURVE",
"500 610 OFFCURVE",
"366 610 CURVE SMOOTH",
"179 610 OFFCURVE",
"53 496 OFFCURVE",
"53 325 CURVE SMOOTH",
"53 154 OFFCURVE",
"179 40 OFFCURVE",
"366 40 CURVE SMOOTH",
"499 40 OFFCURVE",
"606 96 OFFCURVE",
"651 191 CURVE",
"653 191 LINE",
"653 140 LINE SMOOTH",
"653 -58 OFFCURVE",
"563 -150 OFFCURVE",
"368 -150 CURVE SMOOTH",
"280 -150 OFFCURVE",
"200 -130 OFFCURVE",
"129 -91 CURVE SMOOTH",
"120 -86 OFFCURVE",
"114 -84 OFFCURVE",
"109 -84 CURVE SMOOTH",
"100 -84 OFFCURVE",
"94 -90 OFFCURVE",
"94 -98 CURVE SMOOTH",
"94 -106 OFFCURVE",
"98 -110 OFFCURVE",
"105 -115 CURVE SMOOTH",
"181 -159 OFFCURVE",
"270 -181 OFFCURVE",
"368 -181 CURVE SMOOTH"
);
},
{
closed = 1;
nodes = (
"199 71 OFFCURVE",
"86 171 OFFCURVE",
"86 325 CURVE SMOOTH",
"86 478 OFFCURVE",
"199 579 OFFCURVE",
"369 579 CURVE SMOOTH",
"540 579 OFFCURVE",
"653 478 OFFCURVE",
"653 325 CURVE SMOOTH",
"653 171 OFFCURVE",
"540 71 OFFCURVE",
"369 71 CURVE SMOOTH"
);
}
);
width = 783;
},
{
layerId = "928648ED-27D4-4C8B-90F5-D31CCAFF29AA";
paths = (
{
closed = 1;
nodes = (
"585 -187 OFFCURVE",
"691 -84 OFFCURVE",
"691 136 CURVE SMOOTH",
"691 551 LINE SMOOTH",
"691 584 OFFCURVE",
"673 605 OFFCURVE",
"642 605 CURVE SMOOTH",
"611 605 OFFCURVE",
"593 584 OFFCURVE",
"593 551 CURVE SMOOTH",
"593 400 LINE",
"642 519 LINE",
"596 519 LINE",
"555 572 OFFCURVE",
"450 610 OFFCURVE",
"346 610 CURVE SMOOTH",
"166 610 OFFCURVE",
"45 495 OFFCURVE",
"45 325 CURVE SMOOTH",
"45 155 OFFCURVE",
"166 40 OFFCURVE",
"346 40 CURVE SMOOTH",
"447 40 OFFCURVE",
"549 76 OFFCURVE",
"591 127 CURVE",
"593 127 LINE",
"593 122 LINE SMOOTH",
"593 -31 OFFCURVE",
"520 -101 OFFCURVE",
"361 -101 CURVE SMOOTH",
"287 -101 OFFCURVE",
"222 -85 OFFCURVE",
"158 -51 CURVE SMOOTH",
"144 -44 OFFCURVE",
"134 -43 OFFCURVE",
"127 -43 CURVE SMOOTH",
"101 -43 OFFCURVE",
"84 -61 OFFCURVE",
"84 -86 CURVE SMOOTH",
"84 -104 OFFCURVE",
"91 -116 OFFCURVE",
"108 -127 CURVE SMOOTH",
"174 -167 OFFCURVE",
"258 -187 OFFCURVE",
"356 -187 CURVE SMOOTH"
);
},
{
closed = 1;
nodes = (
"229 122 OFFCURVE",
"139 202 OFFCURVE",
"139 323 CURVE SMOOTH",
"139 444 OFFCURVE",
"229 524 OFFCURVE",
"366 524 CURVE SMOOTH",
"503 524 OFFCURVE",
"593 444 OFFCURVE",
"593 323 CURVE SMOOTH",
"593 202 OFFCURVE",
"503 122 OFFCURVE",
"366 122 CURVE SMOOTH"
);
}
);
width = 773;
},
{
associatedMasterId = "928648ED-27D4-4C8B-90F5-D31CCAFF29AA";
layerId = "6990B920-34F3-4A00-A7C7-3FC82BBEEA2C";
name = "Bold {620}";
paths = (
{
closed = 1;
nodes = (
"588 -193 OFFCURVE",
"697 -91 OFFCURVE",
"697 130 CURVE SMOOTH",
"697 516 LINE SMOOTH",
"697 571 OFFCURVE",
"668 605 OFFCURVE",
"619 605 CURVE SMOOTH",
"568 605 OFFCURVE",
"539 571 OFFCURVE",
"539 516 CURVE SMOOTH",
"539 408 LINE",
"619 531 LINE",
"538 531 LINE",
"496 580 OFFCURVE",
"415 610 OFFCURVE",
"330 610 CURVE SMOOTH",
"157 610 OFFCURVE",
"39 494 OFFCURVE",
"39 324 CURVE SMOOTH",
"39 156 OFFCURVE",
"157 40 OFFCURVE",
"330 40 CURVE SMOOTH",
"413 40 OFFCURVE",
"494 68 OFFCURVE",
"537 112 CURVE",
"539 112 LINE",
"539 105 LINE SMOOTH",
"539 -9 OFFCURVE",
"481 -62 OFFCURVE",
"355 -62 CURVE SMOOTH",
"298 -62 OFFCURVE",
"249 -51 OFFCURVE",
"194 -23 CURVE SMOOTH",
"170 -12 OFFCURVE",
"156 -10 OFFCURVE",
"143 -10 CURVE SMOOTH",
"102 -10 OFFCURVE",
"75 -38 OFFCURVE",
"75 -76 CURVE SMOOTH",
"75 -103 OFFCURVE",
"86 -122 OFFCURVE",
"111 -138 CURVE SMOOTH",
"166 -173 OFFCURVE",
"248 -193 OFFCURVE",
"347 -193 CURVE SMOOTH"
);
},
{
closed = 1;
nodes = (
"260 167 OFFCURVE",
"191 228 OFFCURVE",
"191 320 CURVE SMOOTH",
"191 413 OFFCURVE",
"260 474 OFFCURVE",
"365 474 CURVE SMOOTH",
"471 474 OFFCURVE",
"539 413 OFFCURVE",
"539 320 CURVE SMOOTH",
"539 228 OFFCURVE",
"471 167 OFFCURVE",
"365 167 CURVE SMOOTH"
);
}
);
width = 769;
},
{
associatedMasterId = "928648ED-27D4-4C8B-90F5-D31CCAFF29AA";
layerId = "D8F5C4BD-2695-4D1B-BCE7-1B1537D45050";
name = "ExtraBold {756}";
paths = (
{
closed = 1;
nodes = (
"589 -196 OFFCURVE",
"701 -95 OFFCURVE",
"701 127 CURVE SMOOTH",
"701 496 LINE SMOOTH",
"701 564 OFFCURVE",
"665 605 OFFCURVE",
"605 605 CURVE SMOOTH",
"544 605 OFFCURVE",
"508 564 OFFCURVE",
"508 496 CURVE SMOOTH",
"508 413 LINE",
"605 538 LINE",
"512 538 LINE",
"468 584 OFFCURVE",
"398 610 OFFCURVE",
"320 610 CURVE SMOOTH",
"152 610 OFFCURVE",
"36 494 OFFCURVE",
"36 324 CURVE SMOOTH",
"36 156 OFFCURVE",
"152 40 OFFCURVE",
"320 40 CURVE SMOOTH",
"394 40 OFFCURVE",
"462 64 OFFCURVE",
"506 103 CURVE",
"508 103 LINE",
"508 95 LINE SMOOTH",
"508 3 OFFCURVE",
"459 -40 OFFCURVE",
"352 -40 CURVE SMOOTH",
"304 -40 OFFCURVE",
"264 -31 OFFCURVE",
"214 -7 CURVE SMOOTH",
"185 5 OFFCURVE",
"168 9 OFFCURVE",
"152 9 CURVE SMOOTH",
"103 9 OFFCURVE",
"70 -24 OFFCURVE",
"70 -71 CURVE SMOOTH",
"70 -102 OFFCURVE",
"84 -126 OFFCURVE",
"112 -144 CURVE SMOOTH",
"162 -176 OFFCURVE",
"243 -196 OFFCURVE",
"342 -196 CURVE SMOOTH"
);
},
{
closed = 1;
nodes = (
"277 193 OFFCURVE",
"221 243 OFFCURVE",
"221 319 CURVE SMOOTH",
"221 396 OFFCURVE",
"277 446 OFFCURVE",
"365 446 CURVE SMOOTH",
"452 446 OFFCURVE",
"508 396 OFFCURVE",
"508 319 CURVE SMOOTH",
"508 243 OFFCURVE",
"452 193 OFFCURVE",
"365 193 CURVE SMOOTH"
);
}
);
width = 767;
},
{
layerId = "C39F50C5-0462-4311-9594-9C3283D81B52";
paths = (
{
closed = 1;
nodes = (
"591 -200 OFFCURVE",
"705 -100 OFFCURVE",
"705 123 CURVE SMOOTH",
"705 475 LINE SMOOTH",
"705 556 OFFCURVE",
"662 605 OFFCURVE",
"590 605 CURVE SMOOTH",
"518 605 OFFCURVE",
"475 556 OFFCURVE",
"475 475 CURVE SMOOTH",
"475 418 LINE",
"590 545 LINE",
"487 545 LINE",
"440 588 OFFCURVE",
"381 610 OFFCURVE",
"310 610 CURVE SMOOTH",
"147 610 OFFCURVE",
"33 493 OFFCURVE",
"33 324 CURVE SMOOTH",
"33 157 OFFCURVE",
"147 40 OFFCURVE",
"310 40 CURVE SMOOTH",
"374 40 OFFCURVE",
"429 59 OFFCURVE",
"473 94 CURVE",
"475 94 LINE",
"475 85 LINE SMOOTH",
"475 16 OFFCURVE",
"435 -16 OFFCURVE",
"348 -16 CURVE SMOOTH",
"310 -16 OFFCURVE",
"280 -10 OFFCURVE",
"236 9 CURVE SMOOTH",
"200 24 OFFCURVE",
"181 29 OFFCURVE",
"161 29 CURVE SMOOTH",
"104 29 OFFCURVE",
"65 -10 OFFCURVE",
"65 -65 CURVE SMOOTH",
"65 -101 OFFCURVE",
"81 -130 OFFCURVE",
"114 -151 CURVE SMOOTH",
"157 -179 OFFCURVE",
"237 -200 OFFCURVE",
"336 -200 CURVE SMOOTH"
);
},
{
closed = 1;
nodes = (
"296 221 OFFCURVE",
"253 259 OFFCURVE",
"253 318 CURVE SMOOTH",
"253 378 OFFCURVE",
"296 416 OFFCURVE",
"364 416 CURVE SMOOTH",
"432 416 OFFCURVE",
"475 378 OFFCURVE",
"475 318 CURVE SMOOTH",
"475 259 OFFCURVE",
"432 221 OFFCURVE",
"364 221 CURVE SMOOTH"
);
}
);
width = 765;
}
);
leftKerningGroup = o;
leftMetricsKey = "=o";
rightKerningGroup = u;
rightMetricsKey = "=u";
unicode = 0067;
},
{
color = 10;
glyphname = h;
lastChange = "2020-09-29 05:42:33 +0000";
layers = (
{
layerId = "1129C829-629B-4701-B210-BDBC9A77493B";
paths = (
{
closed = 1;
nodes = (
"116 -5 OFFCURVE",
"120 -1 OFFCURVE",
"120 5 CURVE SMOOTH",
"120 300 LINE SMOOTH",
"120 468 OFFCURVE",
"242 590 OFFCURVE",
"410 590 CURVE SMOOTH",
"567 590 OFFCURVE",
"660 483 OFFCURVE",
"660 300 CURVE SMOOTH",
"660 5 LINE SMOOTH",
"660 -1 OFFCURVE",
"664 -5 OFFCURVE",
"670 -5 CURVE SMOOTH",
"676 -5 OFFCURVE",
"680 -1 OFFCURVE",
"680 5 CURVE SMOOTH",
"680 300 LINE SMOOTH",
"680 493 OFFCURVE",
"579 610 OFFCURVE",
"410 610 CURVE SMOOTH",
"274 610 OFFCURVE",
"166 534 OFFCURVE",
"122 419 CURVE",
"120 419 LINE",
"120 755 LINE SMOOTH",
"120 761 OFFCURVE",
"116 765 OFFCURVE",
"110 765 CURVE SMOOTH",
"104 765 OFFCURVE",
"100 761 OFFCURVE",
"100 755 CURVE SMOOTH",
"100 5 LINE SMOOTH",
"100 -1 OFFCURVE",
"104 -5 OFFCURVE",
"110 -5 CURVE SMOOTH"
);
}
);
width = 770;
},
{
layerId = "928648ED-27D4-4C8B-90F5-D31CCAFF29AA";
paths = (
{
closed = 1;
nodes = (
"161 -5 OFFCURVE",
"180 16 OFFCURVE",
"180 49 CURVE SMOOTH",
"180 296 LINE SMOOTH",
"180 425 OFFCURVE",
"276 524 OFFCURVE",
"403 524 CURVE SMOOTH",
"521 524 OFFCURVE",
"591 439 OFFCURVE",
"591 296 CURVE SMOOTH",
"591 49 LINE SMOOTH",
"591 16 OFFCURVE",
"610 -5 OFFCURVE",
"640 -5 CURVE SMOOTH",
"670 -5 OFFCURVE",
"689 16 OFFCURVE",
"689 49 CURVE SMOOTH",
"689 304 LINE SMOOTH",
"689 494 OFFCURVE",
"588 610 OFFCURVE",
"421 610 CURVE SMOOTH",
"316 610 OFFCURVE",
"241 579 OFFCURVE",
"182 511 CURVE",
"180 511 LINE",
"180 711 LINE SMOOTH",
"180 744 OFFCURVE",
"161 765 OFFCURVE",
"131 765 CURVE SMOOTH",
"101 765 OFFCURVE",
"82 744 OFFCURVE",
"82 711 CURVE SMOOTH",
"82 49 LINE SMOOTH",
"82 16 OFFCURVE",
"101 -5 OFFCURVE",
"131 -5 CURVE SMOOTH"
);
}
);
width = 763;
},
{
layerId = "C39F50C5-0462-4311-9594-9C3283D81B52";
paths = (
{
closed = 1;
nodes = (
"247 -5 OFFCURVE",
"290 44 OFFCURVE",
"290 125 CURVE SMOOTH",
"290 290 LINE SMOOTH",
"290 367 OFFCURVE",
"325 410 OFFCURVE",
"387 410 CURVE SMOOTH",
"449 410 OFFCURVE",
"484 367 OFFCURVE",
"484 290 CURVE SMOOTH",
"484 125 LINE SMOOTH",
"484 44 OFFCURVE",
"527 -5 OFFCURVE",
"598 -5 CURVE SMOOTH",
"669 -5 OFFCURVE",
"712 44 OFFCURVE",
"712 125 CURVE SMOOTH",
"712 310 LINE SMOOTH",
"712 495 OFFCURVE",
"611 610 OFFCURVE",
"448 610 CURVE SMOOTH",
"383 610 OFFCURVE",
"336 592 OFFCURVE",
"292 551 CURVE",
"290 551 LINE",
"290 635 LINE SMOOTH",
"290 716 OFFCURVE",
"247 765 OFFCURVE",
"175 765 CURVE SMOOTH",
"103 765 OFFCURVE",
"60 716 OFFCURVE",
"60 635 CURVE SMOOTH",
"60 125 LINE SMOOTH",
"60 44 OFFCURVE",
"103 -5 OFFCURVE",
"175 -5 CURVE SMOOTH"
);
}
);
width = 766;
},
{
associatedMasterId = "928648ED-27D4-4C8B-90F5-D31CCAFF29AA";
layerId = "C38B4533-D9F6-46E9-AC98-7E3EB0B6902F";
name = "ExtraBold {756}";
paths = (
{
closed = 1;
nodes = (
"223 -5 OFFCURVE",
"259 36 OFFCURVE",
"259 104 CURVE SMOOTH",
"259 292 LINE SMOOTH",
"259 378 OFFCURVE",
"315 442 OFFCURVE",
"391 442 CURVE SMOOTH",
"465 442 OFFCURVE",
"514 382 OFFCURVE",
"514 292 CURVE SMOOTH",
"514 104 LINE SMOOTH",
"514 36 OFFCURVE",
"550 -5 OFFCURVE",
"610 -5 CURVE SMOOTH",
"669 -5 OFFCURVE",
"706 36 OFFCURVE",
"706 104 CURVE SMOOTH",
"706 308 LINE SMOOTH",
"706 495 OFFCURVE",
"605 610 OFFCURVE",
"440 610 CURVE SMOOTH",
"364 610 OFFCURVE",
"310 588 OFFCURVE",
"261 540 CURVE",
"259 540 LINE",
"259 656 LINE SMOOTH",
"259 724 OFFCURVE",
"223 765 OFFCURVE",
"163 765 CURVE SMOOTH",
"102 765 OFFCURVE",
"66 724 OFFCURVE",
"66 656 CURVE SMOOTH",
"66 104 LINE SMOOTH",
"66 36 OFFCURVE",
"102 -5 OFFCURVE",
"163 -5 CURVE SMOOTH"
);
}
);
width = 765;
},
{
associatedMasterId = "1129C829-629B-4701-B210-BDBC9A77493B";
layerId = "48CC5C74-E396-4148-AB3A-1F026EE07265";
name = "ExtraLight {132}";
paths = (
{
closed = 1;
nodes = (
"124 -5 OFFCURVE",
"131 2 OFFCURVE",
"131 13 CURVE SMOOTH",
"131 299 LINE SMOOTH",
"131 461 OFFCURVE",
"248 579 OFFCURVE",
"409 579 CURVE SMOOTH",
"559 579 OFFCURVE",
"648 475 OFFCURVE",
"648 299 CURVE SMOOTH",
"648 13 LINE SMOOTH",
"648 2 OFFCURVE",
"655 -5 OFFCURVE",
"665 -5 CURVE SMOOTH",
"675 -5 OFFCURVE",
"682 2 OFFCURVE",
"682 13 CURVE SMOOTH",
"682 301 LINE SMOOTH",
"682 493 OFFCURVE",
"581 610 OFFCURVE",
"412 610 CURVE SMOOTH",
"285 610 OFFCURVE",
"180 548 OFFCURVE",
"133 445 CURVE",
"131 445 LINE",
"131 747 LINE SMOOTH",
"131 758 OFFCURVE",
"124 765 OFFCURVE",
"114 765 CURVE SMOOTH",
"104 765 OFFCURVE",
"97 758 OFFCURVE",
"97 747 CURVE SMOOTH",
"97 13 LINE SMOOTH",
"97 2 OFFCURVE",
"104 -5 OFFCURVE",
"114 -5 CURVE SMOOTH"
);
}
);
width = 769;
}
);
leftKerningGroup = h;
leftMetricsKey = "=H";
rightKerningGroup = h;
rightMetricsKey = "=|*.9";
unicode = 0068;
},
{
color = 10;
glyphname = i;
lastChange = "2020-10-07 10:17:11 +0000";
layers = (
{
layerId = "1129C829-629B-4701-B210-BDBC9A77493B";
paths = (
{
closed = 1;
nodes = (
"151 -5 OFFCURVE",
"155 -1 OFFCURVE",
"155 5 CURVE SMOOTH",
"155 595 LINE SMOOTH",
"155 601 OFFCURVE",
"151 605 OFFCURVE",
"145 605 CURVE SMOOTH",
"139 605 OFFCURVE",
"135 601 OFFCURVE",
"135 595 CURVE SMOOTH",
"135 5 LINE SMOOTH",
"135 -1 OFFCURVE",
"139 -5 OFFCURVE",
"145 -5 CURVE SMOOTH"
);
},
{
closed = 1;
nodes = (
"168 720 OFFCURVE",
"185 736 OFFCURVE",
"185 760 CURVE SMOOTH",
"185 784 OFFCURVE",
"168 800 OFFCURVE",
"145 800 CURVE SMOOTH",
"122 800 OFFCURVE",
"105 784 OFFCURVE",
"105 760 CURVE SMOOTH",
"105 736 OFFCURVE",
"122 720 OFFCURVE",
"145 720 CURVE SMOOTH"
);
}
);
width = 290;
},
{
layerId = "C39F50C5-0462-4311-9594-9C3283D81B52";
paths = (
{
closed = 1;
nodes = (
"259 -5 OFFCURVE",
"304 45 OFFCURVE",
"304 130 CURVE SMOOTH",
"304 400 LINE SMOOTH",
"304 485 OFFCURVE",
"259 535 OFFCURVE",
"184 535 CURVE SMOOTH",
"109 535 OFFCURVE",
"64 485 OFFCURVE",
"64 400 CURVE SMOOTH",
"64 130 LINE SMOOTH",
"64 45 OFFCURVE",
"109 -5 OFFCURVE",
"184 -5 CURVE SMOOTH"
);
},
{
closed = 1;
nodes = (
"254 574 OFFCURVE",
"305 621 OFFCURVE",
"305 687 CURVE SMOOTH",
"305 753 OFFCURVE",
"254 800 OFFCURVE",
"184 800 CURVE SMOOTH",
"114 800 OFFCURVE",
"63 753 OFFCURVE",
"63 687 CURVE SMOOTH",
"63 621 OFFCURVE",
"114 574 OFFCURVE",
"184 574 CURVE SMOOTH"
);
}
);
width = 368;
},
{
layerId = "928648ED-27D4-4C8B-90F5-D31CCAFF29AA";
paths = (
{
closed = 1;
nodes = (
"181 -5 OFFCURVE",
"200 16 OFFCURVE",
"200 51 CURVE SMOOTH",
"200 523 LINE SMOOTH",
"200 558 OFFCURVE",
"181 579 OFFCURVE",
"150 579 CURVE SMOOTH",
"119 579 OFFCURVE",
"100 558 OFFCURVE",
"100 523 CURVE SMOOTH",
"100 51 LINE SMOOTH",
"100 16 OFFCURVE",
"119 -5 OFFCURVE",
"150 -5 CURVE SMOOTH"
);
},
{
closed = 1;
nodes = (
"187 678 OFFCURVE",
"214 702 OFFCURVE",
"214 739 CURVE SMOOTH",
"214 776 OFFCURVE",
"187 800 OFFCURVE",
"150 800 CURVE SMOOTH",
"113 800 OFFCURVE",
"86 776 OFFCURVE",
"86 739 CURVE SMOOTH",
"86 702 OFFCURVE",
"113 678 OFFCURVE",
"150 678 CURVE SMOOTH"
);
}
);
width = 300;
}
);
leftKerningGroup = l;
leftMetricsKey = "=l";
rightKerningGroup = l;
rightMetricsKey = "=|";
unicode = 0069;
},
{
color = 10;
glyphname = j;
lastChange = "2020-10-07 10:17:46 +0000";
layers = (
{
layerId = "928648ED-27D4-4C8B-90F5-D31CCAFF29AA";
leftMetricsKey = "=i-150";
paths = (
{
closed = 1;
nodes = (
"-2 -165 OFFCURVE",
"15 -161 OFFCURVE",
"36 -155 CURVE SMOOTH",
"178 -113 OFFCURVE",
"255 -4 OFFCURVE",
"255 172 CURVE SMOOTH",
"255 523 LINE SMOOTH",
"255 558 OFFCURVE",
"236 579 OFFCURVE",
"205 579 CURVE SMOOTH",
"174 579 OFFCURVE",
"155 558 OFFCURVE",
"155 523 CURVE SMOOTH",
"155 172 LINE SMOOTH",
"155 36 OFFCURVE",
"94 -47 OFFCURVE",
"-28 -76 CURVE SMOOTH",
"-52 -82 OFFCURVE",
"-64 -97 OFFCURVE",
"-64 -119 CURVE SMOOTH",
"-64 -147 OFFCURVE",
"-46 -165 OFFCURVE",
"-17 -165 CURVE SMOOTH"
);
},
{
closed = 1;
nodes = (
"242 678 OFFCURVE",
"269 702 OFFCURVE",
"269 739 CURVE SMOOTH",
"269 776 OFFCURVE",
"242 800 OFFCURVE",
"205 800 CURVE SMOOTH",
"168 800 OFFCURVE",
"141 776 OFFCURVE",
"141 739 CURVE SMOOTH",
"141 702 OFFCURVE",
"168 678 OFFCURVE",
"205 678 CURVE SMOOTH"
);
}
);
width = 355;
},
{
layerId = "1129C829-629B-4701-B210-BDBC9A77493B";
leftMetricsKey = "=i-170";
paths = (
{
closed = 1;
nodes = (
"-50 -165 OFFCURVE",
"-40 -163 OFFCURVE",
"-31 -161 CURVE SMOOTH",
"137 -126 OFFCURVE",
"218 -17 OFFCURVE",
"218 171 CURVE SMOOTH",
"218 595 LINE SMOOTH",
"218 601 OFFCURVE",
"214 605 OFFCURVE",
"208 605 CURVE SMOOTH",
"202 605 OFFCURVE",
"198 601 OFFCURVE",
"198 595 CURVE SMOOTH",
"198 171 LINE SMOOTH",
"198 -15 OFFCURVE",
"116 -117 OFFCURVE",
"-57 -145 CURVE SMOOTH",
"-62 -146 OFFCURVE",
"-65 -150 OFFCURVE",
"-65 -155 CURVE SMOOTH",
"-65 -161 OFFCURVE",
"-61 -165 OFFCURVE",
"-55 -165 CURVE SMOOTH"
);
},
{
closed = 1;
nodes = (
"231 720 OFFCURVE",
"248 736 OFFCURVE",
"248 760 CURVE SMOOTH",
"248 784 OFFCURVE",
"231 800 OFFCURVE",
"208 800 CURVE SMOOTH",
"185 800 OFFCURVE",
"168 784 OFFCURVE",
"168 760 CURVE SMOOTH",
"168 736 OFFCURVE",
"185 720 OFFCURVE",
"208 720 CURVE SMOOTH"
);
}
);
width = 353;
},
{
layerId = "C39F50C5-0462-4311-9594-9C3283D81B52";
leftMetricsKey = "=i-110";
paths = (
{
closed = 1;
nodes = (
"96 -165 OFFCURVE",
"125 -160 OFFCURVE",
"165 -139 CURVE SMOOTH",
"267 -84 OFFCURVE",
"335 25 OFFCURVE",
"335 175 CURVE SMOOTH",
"335 400 LINE SMOOTH",
"335 485 OFFCURVE",
"290 535 OFFCURVE",
"215 535 CURVE SMOOTH",
"140 535 OFFCURVE",
"95 485 OFFCURVE",
"95 400 CURVE SMOOTH",
"95 175 LINE SMOOTH",
"95 105 OFFCURVE",
"55 77 OFFCURVE",
"18 49 CURVE SMOOTH",
"-15 24 OFFCURVE",
"-47 -1 OFFCURVE",
"-47 -56 CURVE SMOOTH",
"-47 -116 OFFCURVE",
"2 -165 OFFCURVE",
"62 -165 CURVE SMOOTH"
);
},
{
closed = 1;
nodes = (
"285 574 OFFCURVE",
"336 621 OFFCURVE",
"336 687 CURVE SMOOTH",
"336 753 OFFCURVE",
"285 800 OFFCURVE",
"215 800 CURVE SMOOTH",
"145 800 OFFCURVE",
"94 753 OFFCURVE",
"94 687 CURVE SMOOTH",
"94 621 OFFCURVE",
"145 574 OFFCURVE",
"215 574 CURVE SMOOTH"
);
}
);
width = 399;
}
);
leftKerningGroup = l;
leftMetricsKey = "=i";
rightKerningGroup = l;
rightMetricsKey = "=i";
unicode = 006A;
},
{
color = 10;
glyphname = k;
lastChange = "2020-10-03 09:07:28 +0000";
layers = (
{
layerId = "1129C829-629B-4701-B210-BDBC9A77493B";
paths = (
{
closed = 1;
nodes = (
"116 -5 OFFCURVE",
"120 -1 OFFCURVE",
"120 5 CURVE SMOOTH",
"120 297 LINE",
"123 297 LINE",
"624 -4 LINE SMOOTH",
"626 -5 OFFCURVE",
"628 -5 OFFCURVE",
"629 -5 CURVE SMOOTH",
"635 -5 OFFCURVE",
"639 -1 OFFCURVE",
"639 4 CURVE SMOOTH",
"639 8 OFFCURVE",
"637 11 OFFCURVE",
"634 13 CURVE SMOOTH",
"144 307 LINE",
"144 309 LINE",
"634 586 LINE SMOOTH",
"639 589 OFFCURVE",
"640 592 OFFCURVE",
"640 596 CURVE SMOOTH",
"640 601 OFFCURVE",
"636 605 OFFCURVE",
"631 605 CURVE SMOOTH",
"629 605 OFFCURVE",
"628 605 OFFCURVE",
"624 603 CURVE SMOOTH",
"122 319 LINE",
"120 319 LINE",
"120 755 LINE SMOOTH",
"120 761 OFFCURVE",
"116 765 OFFCURVE",
"110 765 CURVE SMOOTH",
"104 765 OFFCURVE",
"100 761 OFFCURVE",
"100 755 CURVE SMOOTH",
"100 5 LINE SMOOTH",
"100 -1 OFFCURVE",
"104 -5 OFFCURVE",
"110 -5 CURVE SMOOTH"
);
}
);
width = 696;
},
{
layerId = "C39F50C5-0462-4311-9594-9C3283D81B52";
paths = (
{
closed = 1;
nodes = (
"247 -5 OFFCURVE",
"290 44 OFFCURVE",
"290 125 CURVE SMOOTH",
"290 227 LINE",
"292 227 LINE",
"546 19 LINE",
"567 2 OFFCURVE",
"589 -5 OFFCURVE",
"615 -5 CURVE SMOOTH",
"673 -5 OFFCURVE",
"720 42 OFFCURVE",
"720 100 CURVE SMOOTH",
"720 134 OFFCURVE",
"705 164 OFFCURVE",
"680 184 CURVE",
"528 305 LINE",
"528 307 LINE",
"673 414 LINE SMOOTH",
"700 434 OFFCURVE",
"718 465 OFFCURVE",
"718 501 CURVE SMOOTH",
"718 558 OFFCURVE",
"671 605 OFFCURVE",
"614 605 CURVE SMOOTH",
"590 605 OFFCURVE",
"566 596 OFFCURVE",
"550 584 CURVE SMOOTH",
"292 390 LINE",
"290 390 LINE",
"290 635 LINE SMOOTH",
"290 716 OFFCURVE",
"247 765 OFFCURVE",
"175 765 CURVE SMOOTH",
"103 765 OFFCURVE",
"60 716 OFFCURVE",
"60 635 CURVE SMOOTH",
"60 125 LINE SMOOTH",
"60 44 OFFCURVE",
"103 -5 OFFCURVE",
"175 -5 CURVE SMOOTH"
);
}
);
width = 754;
},
{
layerId = "928648ED-27D4-4C8B-90F5-D31CCAFF29AA";
paths = (
{
closed = 1;
nodes = (
"161 -5 OFFCURVE",
"180 16 OFFCURVE",
"180 49 CURVE SMOOTH",
"180 271 LINE",
"182 271 LINE",
"588 4 LINE SMOOTH",
"599 -3 OFFCURVE",
"610 -5 OFFCURVE",
"621 -5 CURVE SMOOTH",
"646 -5 OFFCURVE",
"666 17 OFFCURVE",
"666 43 CURVE SMOOTH",
"666 58 OFFCURVE",
"660 72 OFFCURVE",
"648 80 CURVE SMOOTH",
"300 306 LINE",
"300 308 LINE",
"646 519 LINE SMOOTH",
"662 529 OFFCURVE",
"666 541 OFFCURVE",
"666 557 CURVE SMOOTH",
"666 583 OFFCURVE",
"646 605 OFFCURVE",
"622 605 CURVE SMOOTH",
"611 605 OFFCURVE",
"600 602 OFFCURVE",
"590 596 CURVE SMOOTH",
"182 345 LINE",
"180 345 LINE",
"180 711 LINE SMOOTH",
"180 744 OFFCURVE",
"161 765 OFFCURVE",
"131 765 CURVE SMOOTH",
"101 765 OFFCURVE",
"82 744 OFFCURVE",
"82 711 CURVE SMOOTH",
"82 49 LINE SMOOTH",
"82 16 OFFCURVE",
"101 -5 OFFCURVE",
"131 -5 CURVE SMOOTH"
);
}
);
width = 712;
}
);
leftKerningGroup = b;
leftMetricsKey = "=h";
rightKerningGroup = x;
rightMetricsKey = "=c*.8";
unicode = 006B;
},
{
color = 10;
glyphname = l;
lastChange = "2020-10-07 10:17:54 +0000";
layers = (
{
layerId = "1129C829-629B-4701-B210-BDBC9A77493B";
paths = (
{
closed = 1;
nodes = (
"121 -5 OFFCURVE",
"125 -1 OFFCURVE",
"125 5 CURVE SMOOTH",
"125 755 LINE SMOOTH",
"125 761 OFFCURVE",
"121 765 OFFCURVE",
"115 765 CURVE SMOOTH",
"109 765 OFFCURVE",
"105 761 OFFCURVE",
"105 755 CURVE SMOOTH",
"105 5 LINE SMOOTH",
"105 -1 OFFCURVE",
"109 -5 OFFCURVE",
"115 -5 CURVE SMOOTH"
);
}
);
width = 230;
},
{
layerId = "C39F50C5-0462-4311-9594-9C3283D81B52";
paths = (
{
closed = 1;
nodes = (
"258 -5 OFFCURVE",
"303 45 OFFCURVE",
"303 130 CURVE SMOOTH",
"303 630 LINE SMOOTH",
"303 715 OFFCURVE",
"258 765 OFFCURVE",
"183 765 CURVE SMOOTH",
"108 765 OFFCURVE",
"63 715 OFFCURVE",
"63 630 CURVE SMOOTH",
"63 130 LINE SMOOTH",
"63 45 OFFCURVE",
"108 -5 OFFCURVE",
"183 -5 CURVE SMOOTH"
);
}
);
width = 366;
},
{
layerId = "928648ED-27D4-4C8B-90F5-D31CCAFF29AA";
paths = (
{
closed = 1;
nodes = (
"167 -5 OFFCURVE",
"186 16 OFFCURVE",
"186 51 CURVE SMOOTH",
"186 709 LINE SMOOTH",
"186 744 OFFCURVE",
"167 765 OFFCURVE",
"136 765 CURVE SMOOTH",
"105 765 OFFCURVE",
"86 744 OFFCURVE",
"86 709 CURVE SMOOTH",
"86 51 LINE SMOOTH",
"86 16 OFFCURVE",
"105 -5 OFFCURVE",
"136 -5 CURVE SMOOTH"
);
}
);
width = 272;
}
);
leftKerningGroup = l;
leftMetricsKey = "=H*1.05";
rightKerningGroup = l;
rightMetricsKey = "=|";
unicode = 006C;
},
{
color = 10;
glyphname = m;
lastChange = "2020-10-02 06:24:25 +0000";
layers = (
{
layerId = "1129C829-629B-4701-B210-BDBC9A77493B";
paths = (
{
closed = 1;
nodes = (
"116 -5 OFFCURVE",
"120 -1 OFFCURVE",
"120 5 CURVE SMOOTH",
"120 280 LINE SMOOTH",
"120 343 OFFCURVE",
"143 590 OFFCURVE",
"353 590 CURVE SMOOTH",
"497 590 OFFCURVE",
"550 475 OFFCURVE",
"550 330 CURVE SMOOTH",
"550 5 LINE SMOOTH",
"550 -1 OFFCURVE",
"554 -5 OFFCURVE",
"560 -5 CURVE SMOOTH",
"566 -5 OFFCURVE",
"570 -1 OFFCURVE",
"570 5 CURVE SMOOTH",
"570 330 LINE SMOOTH",
"570 412 OFFCURVE",
"618 590 OFFCURVE",
"799 590 CURVE SMOOTH",
"929 590 OFFCURVE",
"1000 497 OFFCURVE",
"1000 320 CURVE SMOOTH",
"1000 5 LINE SMOOTH",
"1000 -1 OFFCURVE",
"1004 -5 OFFCURVE",
"1010 -5 CURVE SMOOTH",
"1016 -5 OFFCURVE",
"1020 -1 OFFCURVE",
"1020 5 CURVE SMOOTH",
"1020 320 LINE SMOOTH",
"1020 506 OFFCURVE",
"942 610 OFFCURVE",
"799 610 CURVE SMOOTH",
"657 610 OFFCURVE",
"591 508 OFFCURVE",
"565 419 CURVE",
"548 419 LINE",
"566 396 LINE",
"549 534 OFFCURVE",
"474 610 OFFCURVE",
"353 610 CURVE SMOOTH",
"214 610 OFFCURVE",
"150 511 OFFCURVE",
"122 419 CURVE",
"108 419 LINE",
"120 369 LINE",
"120 595 LINE SMOOTH",
"120 601 OFFCURVE",
"116 605 OFFCURVE",
"110 605 CURVE SMOOTH",
"104 605 OFFCURVE",
"100 601 OFFCURVE",
"100 595 CURVE SMOOTH",
"100 5 LINE SMOOTH",
"100 -1 OFFCURVE",
"104 -5 OFFCURVE",
"110 -5 CURVE SMOOTH"
);
}
);
width = 1119;
},
{
layerId = "C39F50C5-0462-4311-9594-9C3283D81B52";
paths = (
{
closed = 1;
nodes = (
"247 -5 OFFCURVE",
"290 44 OFFCURVE",
"290 125 CURVE SMOOTH",
"290 320 LINE SMOOTH",
"290 385 OFFCURVE",
"303 410 OFFCURVE",
"337 410 CURVE SMOOTH",
"371 410 OFFCURVE",
"384 385 OFFCURVE",
"384 320 CURVE SMOOTH",
"384 125 LINE SMOOTH",
"384 44 OFFCURVE",
"426 -5 OFFCURVE",
"497 -5 CURVE SMOOTH",
"568 -5 OFFCURVE",
"610 44 OFFCURVE",
"610 125 CURVE SMOOTH",
"610 320 LINE SMOOTH",
"610 385 OFFCURVE",
"623 410 OFFCURVE",
"657 410 CURVE SMOOTH",
"691 410 OFFCURVE",
"704 385 OFFCURVE",
"704 320 CURVE SMOOTH",
"704 125 LINE SMOOTH",
"704 44 OFFCURVE",
"746 -5 OFFCURVE",
"818 -5 CURVE SMOOTH",
"890 -5 OFFCURVE",
"932 44 OFFCURVE",
"932 125 CURVE SMOOTH",
"932 390 LINE SMOOTH",
"932 527 OFFCURVE",
"859 610 OFFCURVE",
"740 610 CURVE SMOOTH",
"678 610 OFFCURVE",
"627 587 OFFCURVE",
"585 539 CURVE",
"555 539 LINE",
"597 518 LINE",
"566 577 OFFCURVE",
"510 610 OFFCURVE",
"436 610 CURVE SMOOTH",
"373 610 OFFCURVE",
"322 587 OFFCURVE",
"280 539 CURVE",
"175 539 LINE",
"290 425 LINE",
"290 475 LINE SMOOTH",
"290 556 OFFCURVE",
"247 605 OFFCURVE",
"175 605 CURVE SMOOTH",
"103 605 OFFCURVE",
"60 556 OFFCURVE",
"60 475 CURVE SMOOTH",
"60 125 LINE SMOOTH",
"60 44 OFFCURVE",
"103 -5 OFFCURVE",
"175 -5 CURVE SMOOTH"
);
}
);
width = 991;
},
{
layerId = "928648ED-27D4-4C8B-90F5-D31CCAFF29AA";
paths = (
{
closed = 1;
nodes = (
"161 -5 OFFCURVE",
"180 16 OFFCURVE",
"180 49 CURVE SMOOTH",
"180 296 LINE SMOOTH",
"180 431 OFFCURVE",
"248 524 OFFCURVE",
"345 524 CURVE SMOOTH",
"428 524 OFFCURVE",
"484 456 OFFCURVE",
"484 356 CURVE SMOOTH",
"484 49 LINE SMOOTH",
"484 16 OFFCURVE",
"503 -5 OFFCURVE",
"533 -5 CURVE SMOOTH",
"563 -5 OFFCURVE",
"582 16 OFFCURVE",
"582 49 CURVE SMOOTH",
"582 356 LINE SMOOTH",
"582 451 OFFCURVE",
"653 524 OFFCURVE",
"747 524 CURVE SMOOTH",
"834 524 OFFCURVE",
"886 461 OFFCURVE",
"886 356 CURVE SMOOTH",
"886 49 LINE SMOOTH",
"886 16 OFFCURVE",
"905 -5 OFFCURVE",
"935 -5 CURVE SMOOTH",
"965 -5 OFFCURVE",
"984 16 OFFCURVE",
"984 49 CURVE SMOOTH",
"984 364 LINE SMOOTH",
"984 524 OFFCURVE",
"910 610 OFFCURVE",
"773 610 CURVE SMOOTH",
"684 610 OFFCURVE",
"604 574 OFFCURVE",
"552 511 CURVE",
"533 511 LINE",
"574 444 LINE",
"551 550 OFFCURVE",
"479 610 OFFCURVE",
"371 610 CURVE SMOOTH",
"291 610 OFFCURVE",
"228 577 OFFCURVE",
"182 511 CURVE",
"131 511 LINE",
"180 390 LINE",
"180 551 LINE SMOOTH",
"180 584 OFFCURVE",
"162 605 OFFCURVE",
"131 605 CURVE SMOOTH",
"100 605 OFFCURVE",
"82 584 OFFCURVE",
"82 551 CURVE SMOOTH",
"82 49 LINE SMOOTH",
"82 16 OFFCURVE",
"101 -5 OFFCURVE",
"131 -5 CURVE SMOOTH"
);
}
);
width = 1065;
},
{
associatedMasterId = "1129C829-629B-4701-B210-BDBC9A77493B";
layerId = "E6FA3819-046A-4F4E-B5F2-B1FD83B786E0";
name = "ExtraLight {132}";
paths = (
{
closed = 1;
nodes = (
"124 -5 OFFCURVE",
"131 2 OFFCURVE",
"131 13 CURVE SMOOTH",
"131 283 LINE SMOOTH",
"131 358 OFFCURVE",
"161 579 OFFCURVE",
"352 579 CURVE SMOOTH",
"485 579 OFFCURVE",
"539 472 OFFCURVE",
"539 334 CURVE SMOOTH",
"539 13 LINE SMOOTH",
"539 2 OFFCURVE",
"546 -5 OFFCURVE",
"556 -5 CURVE SMOOTH",
"566 -5 OFFCURVE",
"572 2 OFFCURVE",
"572 13 CURVE SMOOTH",
"572 334 LINE SMOOTH",
"572 419 OFFCURVE",
"624 579 OFFCURVE",
"790 579 CURVE SMOOTH",
"913 579 OFFCURVE",
"981 491 OFFCURVE",
"981 326 CURVE SMOOTH",
"981 13 LINE SMOOTH",
"981 2 OFFCURVE",
"987 -5 OFFCURVE",
"997 -5 CURVE SMOOTH",
"1008 -5 OFFCURVE",
"1014 2 OFFCURVE",
"1014 13 CURVE SMOOTH",
"1014 328 LINE SMOOTH",
"1014 509 OFFCURVE",
"937 610 OFFCURVE",
"795 610 CURVE SMOOTH",
"688 610 OFFCURVE",
"603 550 OFFCURVE",
"562 445 CURVE",
"546 445 LINE",
"568 404 LINE",
"550 537 OFFCURVE",
"475 610 OFFCURVE",
"356 610 CURVE SMOOTH",
"252 610 OFFCURVE",
"173 552 OFFCURVE",
"133 445 CURVE",
"112 445 LINE",
"131 373 LINE",
"131 587 LINE SMOOTH",
"131 598 OFFCURVE",
"124 605 OFFCURVE",
"114 605 CURVE SMOOTH",
"104 605 OFFCURVE",
"97 598 OFFCURVE",
"97 587 CURVE SMOOTH",
"97 13 LINE SMOOTH",
"97 2 OFFCURVE",
"104 -5 OFFCURVE",
"114 -5 CURVE SMOOTH"
);
}
);
width = 1110;
},
{
associatedMasterId = "928648ED-27D4-4C8B-90F5-D31CCAFF29AA";
background = {
paths = (
{
closed = 1;
nodes = (
"223 -5 OFFCURVE",
"259 36 OFFCURVE",
"259 104 CURVE SMOOTH",
"259 313 LINE SMOOTH",
"259 398 OFFCURVE",
"288 442 OFFCURVE",
"339 442 CURVE SMOOTH",
"387 442 OFFCURVE",
"412 405 OFFCURVE",
"412 330 CURVE SMOOTH",
"412 104 LINE SMOOTH",
"412 36 OFFCURVE",
"447 -5 OFFCURVE",
"507 -5 CURVE SMOOTH",
"567 -5 OFFCURVE",
"602 36 OFFCURVE",
"602 104 CURVE SMOOTH",
"602 330 LINE SMOOTH",
"602 403 OFFCURVE",
"631 442 OFFCURVE",
"682 442 CURVE SMOOTH",
"731 442 OFFCURVE",
"755 406 OFFCURVE",
"755 330 CURVE SMOOTH",
"755 104 LINE SMOOTH",
"755 36 OFFCURVE",
"790 -5 OFFCURVE",
"850 -5 CURVE SMOOTH",
"911 -5 OFFCURVE",
"946 36 OFFCURVE",
"946 104 CURVE SMOOTH",
"946 383 LINE SMOOTH",
"946 526 OFFCURVE",
"873 610 OFFCURVE",
"749 610 CURVE SMOOTH",
"680 610 OFFCURVE",
"621 583 OFFCURVE",
"576 531 CURVE",
"549 531 LINE",
"591 497 LINE",
"562 569 OFFCURVE",
"501 610 OFFCURVE",
"418 610 CURVE SMOOTH",
"350 610 OFFCURVE",
"296 584 OFFCURVE",
"253 531 CURVE",
"163 531 LINE",
"259 415 LINE",
"259 496 LINE SMOOTH",
"259 564 OFFCURVE",
"223 605 OFFCURVE",
"163 605 CURVE SMOOTH",
"102 605 OFFCURVE",
"66 564 OFFCURVE",
"66 496 CURVE SMOOTH",
"66 104 LINE SMOOTH",
"66 36 OFFCURVE",
"102 -5 OFFCURVE",
"163 -5 CURVE SMOOTH"
);
}
);
};
layerId = "9E63530B-B638-460F-93D6-E4F1CEB545A1";
name = "ExtraBold {756}";
paths = (
{
closed = 1;
nodes = (
"223 -5 OFFCURVE",
"259 36 OFFCURVE",
"259 104 CURVE SMOOTH",
"259 313 LINE SMOOTH",
"259 398 OFFCURVE",
"288 442 OFFCURVE",
"339 442 CURVE SMOOTH",
"387 442 OFFCURVE",
"412 405 OFFCURVE",
"412 330 CURVE SMOOTH",
"412 104 LINE SMOOTH",
"412 36 OFFCURVE",
"447 -5 OFFCURVE",
"507 -5 CURVE SMOOTH",
"567 -5 OFFCURVE",
"602 36 OFFCURVE",
"602 104 CURVE SMOOTH",
"602 330 LINE SMOOTH",
"602 403 OFFCURVE",
"631 442 OFFCURVE",
"682 442 CURVE SMOOTH",
"731 442 OFFCURVE",
"755 406 OFFCURVE",
"755 330 CURVE SMOOTH",
"755 104 LINE SMOOTH",
"755 36 OFFCURVE",
"790 -5 OFFCURVE",
"850 -5 CURVE SMOOTH",
"911 -5 OFFCURVE",
"946 36 OFFCURVE",
"946 104 CURVE SMOOTH",
"946 383 LINE SMOOTH",
"946 526 OFFCURVE",
"873 610 OFFCURVE",
"749 610 CURVE SMOOTH",
"679 610 OFFCURVE",
"619 584 OFFCURVE",
"573 535 CURVE",
"549 535 LINE",
"591 497 LINE",
"562 569 OFFCURVE",
"501 610 OFFCURVE",
"418 610 CURVE SMOOTH",
"351 610 OFFCURVE",
"298 585 OFFCURVE",
"256 535 CURVE",
"163 535 LINE",
"259 415 LINE",
"259 496 LINE SMOOTH",
"259 564 OFFCURVE",
"223 605 OFFCURVE",
"163 605 CURVE SMOOTH",
"102 605 OFFCURVE",
"66 564 OFFCURVE",
"66 496 CURVE SMOOTH",
"66 104 LINE SMOOTH",
"66 36 OFFCURVE",
"102 -5 OFFCURVE",
"163 -5 CURVE SMOOTH"
);
}
);
width = 1011;
}
);
leftKerningGroup = n;
leftMetricsKey = "=n";
rightKerningGroup = h;
rightMetricsKey = "=h*1.1";
unicode = 006D;
},
{
color = 10;
glyphname = n;
lastChange = "2020-10-02 06:49:38 +0000";
layers = (
{
layerId = "1129C829-629B-4701-B210-BDBC9A77493B";
paths = (
{
closed = 1;
nodes = (
"116 -5 OFFCURVE",
"120 -1 OFFCURVE",
"120 5 CURVE SMOOTH",
"120 300 LINE SMOOTH",
"120 468 OFFCURVE",
"242 590 OFFCURVE",
"410 590 CURVE SMOOTH",
"567 590 OFFCURVE",
"660 483 OFFCURVE",
"660 300 CURVE SMOOTH",
"660 5 LINE SMOOTH",
"660 -1 OFFCURVE",
"664 -5 OFFCURVE",
"670 -5 CURVE SMOOTH",
"676 -5 OFFCURVE",
"680 -1 OFFCURVE",
"680 5 CURVE SMOOTH",
"680 300 LINE SMOOTH",
"680 493 OFFCURVE",
"579 610 OFFCURVE",
"410 610 CURVE SMOOTH",
"274 610 OFFCURVE",
"166 534 OFFCURVE",
"122 419 CURVE",
"110 419 LINE",
"120 369 LINE",
"120 595 LINE SMOOTH",
"120 601 OFFCURVE",
"116 605 OFFCURVE",
"110 605 CURVE SMOOTH",
"104 605 OFFCURVE",
"100 601 OFFCURVE",
"100 595 CURVE SMOOTH",
"100 5 LINE SMOOTH",
"100 -1 OFFCURVE",
"104 -5 OFFCURVE",
"110 -5 CURVE SMOOTH"
);
}
);
width = 770;
},
{
associatedMasterId = "1129C829-629B-4701-B210-BDBC9A77493B";
layerId = "9D9C42AB-C804-47BC-B3AF-5C4B9FEBFD28";
name = "ExtraLight {132}";
paths = (
{
closed = 1;
nodes = (
"124 -5 OFFCURVE",
"131 2 OFFCURVE",
"131 13 CURVE SMOOTH",
"131 299 LINE SMOOTH",
"131 461 OFFCURVE",
"248 579 OFFCURVE",
"409 579 CURVE SMOOTH",
"559 579 OFFCURVE",
"648 475 OFFCURVE",
"648 299 CURVE SMOOTH",
"648 13 LINE SMOOTH",
"648 2 OFFCURVE",
"655 -5 OFFCURVE",
"665 -5 CURVE SMOOTH",
"675 -5 OFFCURVE",
"682 2 OFFCURVE",
"682 13 CURVE SMOOTH",
"682 301 LINE SMOOTH",
"682 493 OFFCURVE",
"581 610 OFFCURVE",
"412 610 CURVE SMOOTH",
"285 610 OFFCURVE",
"180 548 OFFCURVE",
"133 445 CURVE",
"114 445 LINE",
"131 373 LINE",
"131 587 LINE SMOOTH",
"131 598 OFFCURVE",
"124 605 OFFCURVE",
"114 605 CURVE SMOOTH",
"104 605 OFFCURVE",
"97 598 OFFCURVE",
"97 587 CURVE SMOOTH",
"97 13 LINE SMOOTH",
"97 2 OFFCURVE",
"104 -5 OFFCURVE",
"114 -5 CURVE SMOOTH"
);
}
);
width = 769;
},
{
layerId = "928648ED-27D4-4C8B-90F5-D31CCAFF29AA";
paths = (
{
closed = 1;
nodes = (
"161 -5 OFFCURVE",
"180 16 OFFCURVE",
"180 49 CURVE SMOOTH",
"180 296 LINE SMOOTH",
"180 425 OFFCURVE",
"276 524 OFFCURVE",
"403 524 CURVE SMOOTH",
"521 524 OFFCURVE",
"591 439 OFFCURVE",
"591 296 CURVE SMOOTH",
"591 49 LINE SMOOTH",
"591 16 OFFCURVE",
"610 -5 OFFCURVE",
"640 -5 CURVE SMOOTH",
"670 -5 OFFCURVE",
"689 16 OFFCURVE",
"689 49 CURVE SMOOTH",
"689 304 LINE SMOOTH",
"689 494 OFFCURVE",
"588 610 OFFCURVE",
"421 610 CURVE SMOOTH",
"316 610 OFFCURVE",
"241 579 OFFCURVE",
"182 511 CURVE",
"131 511 LINE",
"180 390 LINE",
"180 551 LINE SMOOTH",
"180 584 OFFCURVE",
"162 605 OFFCURVE",
"131 605 CURVE SMOOTH",
"100 605 OFFCURVE",
"82 584 OFFCURVE",
"82 551 CURVE SMOOTH",
"82 49 LINE SMOOTH",
"82 16 OFFCURVE",
"101 -5 OFFCURVE",
"131 -5 CURVE SMOOTH"
);
}
);
width = 763;
},
{
associatedMasterId = "928648ED-27D4-4C8B-90F5-D31CCAFF29AA";
layerId = "584B30A9-00DE-4A9F-99A3-07757DB006F1";
name = "Bold {620}";
paths = (
{
closed = 1;
nodes = (
"200 -5 OFFCURVE",
"230 29 OFFCURVE",
"230 84 CURVE SMOOTH",
"230 293 LINE SMOOTH",
"230 398 OFFCURVE",
"298 472 OFFCURVE",
"395 472 CURVE SMOOTH",
"488 472 OFFCURVE",
"542 406 OFFCURVE",
"542 293 CURVE SMOOTH",
"542 84 LINE SMOOTH",
"542 29 OFFCURVE",
"572 -5 OFFCURVE",
"621 -5 CURVE SMOOTH",
"669 -5 OFFCURVE",
"700 29 OFFCURVE",
"700 84 CURVE SMOOTH",
"700 307 LINE SMOOTH",
"700 495 OFFCURVE",
"599 610 OFFCURVE",
"433 610 CURVE SMOOTH",
"347 610 OFFCURVE",
"282 584 OFFCURVE",
"231 528 CURVE",
"151 528 LINE",
"230 406 LINE",
"230 516 LINE SMOOTH",
"230 571 OFFCURVE",
"201 605 OFFCURVE",
"151 605 CURVE SMOOTH",
"101 605 OFFCURVE",
"72 571 OFFCURVE",
"72 516 CURVE SMOOTH",
"72 84 LINE SMOOTH",
"72 29 OFFCURVE",
"101 -5 OFFCURVE",
"151 -5 CURVE SMOOTH"
);
}
);
width = 764;
},
{
associatedMasterId = "928648ED-27D4-4C8B-90F5-D31CCAFF29AA";
layerId = "A9F8C148-A23B-4D4E-A92A-CD0776DFE166";
name = "ExtraBold {756}";
paths = (
{
closed = 1;
nodes = (
"223 -5 OFFCURVE",
"259 36 OFFCURVE",
"259 104 CURVE SMOOTH",
"259 292 LINE SMOOTH",
"259 383 OFFCURVE",
"311 442 OFFCURVE",
"391 442 CURVE SMOOTH",
"469 442 OFFCURVE",
"514 387 OFFCURVE",
"514 292 CURVE SMOOTH",
"514 104 LINE SMOOTH",
"514 36 OFFCURVE",
"550 -5 OFFCURVE",
"610 -5 CURVE SMOOTH",
"669 -5 OFFCURVE",
"706 36 OFFCURVE",
"706 104 CURVE SMOOTH",
"706 308 LINE SMOOTH",
"706 495 OFFCURVE",
"605 610 OFFCURVE",
"440 610 CURVE SMOOTH",
"363 610 OFFCURVE",
"303 586 OFFCURVE",
"256 535 CURVE",
"163 535 LINE",
"259 415 LINE",
"259 496 LINE SMOOTH",
"259 564 OFFCURVE",
"223 605 OFFCURVE",
"163 605 CURVE SMOOTH",
"102 605 OFFCURVE",
"66 564 OFFCURVE",
"66 496 CURVE SMOOTH",
"66 104 LINE SMOOTH",
"66 36 OFFCURVE",
"102 -5 OFFCURVE",
"163 -5 CURVE SMOOTH"
);
}
);
width = 765;
},
{
layerId = "C39F50C5-0462-4311-9594-9C3283D81B52";
paths = (
{
closed = 1;
nodes = (
"247 -5 OFFCURVE",
"290 44 OFFCURVE",
"290 125 CURVE SMOOTH",
"290 290 LINE SMOOTH",
"290 367 OFFCURVE",
"325 410 OFFCURVE",
"387 410 CURVE SMOOTH",
"449 410 OFFCURVE",
"484 367 OFFCURVE",
"484 290 CURVE SMOOTH",
"484 125 LINE SMOOTH",
"484 44 OFFCURVE",
"527 -5 OFFCURVE",
"598 -5 CURVE SMOOTH",
"669 -5 OFFCURVE",
"712 44 OFFCURVE",
"712 125 CURVE SMOOTH",
"712 310 LINE SMOOTH",
"712 495 OFFCURVE",
"611 610 OFFCURVE",
"448 610 CURVE SMOOTH",
"380 610 OFFCURVE",
"325 587 OFFCURVE",
"280 539 CURVE",
"175 539 LINE",
"290 425 LINE",
"290 475 LINE SMOOTH",
"290 556 OFFCURVE",
"247 605 OFFCURVE",
"175 605 CURVE SMOOTH",
"103 605 OFFCURVE",
"60 556 OFFCURVE",
"60 475 CURVE SMOOTH",
"60 125 LINE SMOOTH",
"60 44 OFFCURVE",
"103 -5 OFFCURVE",
"175 -5 CURVE SMOOTH"
);
}
);
width = 766;
}
);
leftKerningGroup = n;
leftMetricsKey = "=h";
rightKerningGroup = h;
rightMetricsKey = "=h";
unicode = 006E;
},
{
color = 10;
glyphname = o;
lastChange = "2020-10-02 13:13:50 +0000";
layers = (
{
layerId = "1129C829-629B-4701-B210-BDBC9A77493B";
paths = (
{
closed = 1;
nodes = (
"553 -10 OFFCURVE",
"685 122 OFFCURVE",
"685 300 CURVE SMOOTH",
"685 478 OFFCURVE",
"553 610 OFFCURVE",
"370 610 CURVE SMOOTH",
"188 610 OFFCURVE",
"55 478 OFFCURVE",
"55 300 CURVE SMOOTH",
"55 122 OFFCURVE",
"188 -10 OFFCURVE",
"370 -10 CURVE SMOOTH"
);
},
{
closed = 1;
nodes = (
"199 10 OFFCURVE",
"75 132 OFFCURVE",
"75 300 CURVE SMOOTH",
"75 468 OFFCURVE",
"199 590 OFFCURVE",
"370 590 CURVE SMOOTH",
"541 590 OFFCURVE",
"665 468 OFFCURVE",
"665 300 CURVE SMOOTH",
"665 132 OFFCURVE",
"541 10 OFFCURVE",
"370 10 CURVE SMOOTH"
);
}
);
width = 740;
},
{
layerId = "C39F50C5-0462-4311-9594-9C3283D81B52";
paths = (
{
closed = 1;
nodes = (
"556 -10 OFFCURVE",
"695 122 OFFCURVE",
"695 300 CURVE SMOOTH",
"695 478 OFFCURVE",
"556 610 OFFCURVE",
"364 610 CURVE SMOOTH",
"173 610 OFFCURVE",
"33 478 OFFCURVE",
"33 300 CURVE SMOOTH",
"33 122 OFFCURVE",
"173 -10 OFFCURVE",
"364 -10 CURVE SMOOTH"
);
},
{
closed = 1;
nodes = (
"300 190 OFFCURVE",
"253 237 OFFCURVE",
"253 300 CURVE SMOOTH",
"253 363 OFFCURVE",
"300 410 OFFCURVE",
"364 410 CURVE SMOOTH",
"428 410 OFFCURVE",
"475 363 OFFCURVE",
"475 300 CURVE SMOOTH",
"475 237 OFFCURVE",
"428 190 OFFCURVE",
"364 190 CURVE SMOOTH"
);
}
);
width = 728;
},
{
layerId = "928648ED-27D4-4C8B-90F5-D31CCAFF29AA";
paths = (
{
closed = 1;
nodes = (
"552 -10 OFFCURVE",
"687 122 OFFCURVE",
"687 300 CURVE SMOOTH",
"687 478 OFFCURVE",
"552 610 OFFCURVE",
"366 610 CURVE SMOOTH",
"180 610 OFFCURVE",
"45 478 OFFCURVE",
"45 300 CURVE SMOOTH",
"45 122 OFFCURVE",
"180 -10 OFFCURVE",
"366 -10 CURVE SMOOTH"
);
},
{
closed = 1;
nodes = (
"235 76 OFFCURVE",
"139 171 OFFCURVE",
"139 300 CURVE SMOOTH",
"139 429 OFFCURVE",
"235 524 OFFCURVE",
"366 524 CURVE SMOOTH",
"497 524 OFFCURVE",
"593 429 OFFCURVE",
"593 300 CURVE SMOOTH",
"593 171 OFFCURVE",
"497 76 OFFCURVE",
"366 76 CURVE SMOOTH"
);
}
);
width = 732;
}
);
leftKerningGroup = o;
leftMetricsKey = "=H*.55";
rightKerningGroup = o;
rightMetricsKey = "=|";
unicode = 006F;
},
{
color = 10;
glyphname = p;
lastChange = "2020-09-27 06:48:25 +0000";
layers = (
{
layerId = "1129C829-629B-4701-B210-BDBC9A77493B";
paths = (
{
closed = 1;
nodes = (
"116 -165 OFFCURVE",
"120 -161 OFFCURVE",
"120 -155 CURVE SMOOTH",
"120 181 LINE",
"122 181 LINE",
"167 66 OFFCURVE",
"277 -10 OFFCURVE",
"415 -10 CURVE SMOOTH",
"598 -10 OFFCURVE",
"730 122 OFFCURVE",
"730 300 CURVE SMOOTH",
"730 478 OFFCURVE",
"598 610 OFFCURVE",
"415 610 CURVE SMOOTH",
"277 610 OFFCURVE",
"167 534 OFFCURVE",
"122 419 CURVE",
"110 419 LINE",
"120 369 LINE",
"120 595 LINE SMOOTH",
"120 601 OFFCURVE",
"116 605 OFFCURVE",
"110 605 CURVE SMOOTH",
"104 605 OFFCURVE",
"100 601 OFFCURVE",
"100 595 CURVE SMOOTH",
"100 -155 LINE SMOOTH",
"100 -161 OFFCURVE",
"104 -165 OFFCURVE",
"110 -165 CURVE SMOOTH"
);
},
{
closed = 1;
nodes = (
"244 10 OFFCURVE",
"120 132 OFFCURVE",
"120 300 CURVE SMOOTH",
"120 468 OFFCURVE",
"244 590 OFFCURVE",
"415 590 CURVE SMOOTH",
"586 590 OFFCURVE",
"710 468 OFFCURVE",
"710 300 CURVE SMOOTH",
"710 132 OFFCURVE",
"586 10 OFFCURVE",
"415 10 CURVE SMOOTH"
);
}
);
width = 785;
},
{
layerId = "C39F50C5-0462-4311-9594-9C3283D81B52";
paths = (
{
closed = 1;
nodes = (
"247 -165 OFFCURVE",
"290 -116 OFFCURVE",
"290 -35 CURVE SMOOTH",
"290 49 LINE",
"292 49 LINE",
"336 10 OFFCURVE",
"391 -10 OFFCURVE",
"455 -10 CURVE SMOOTH",
"618 -10 OFFCURVE",
"732 118 OFFCURVE",
"732 300 CURVE SMOOTH",
"732 482 OFFCURVE",
"618 610 OFFCURVE",
"455 610 CURVE SMOOTH",
"385 610 OFFCURVE",
"326 586 OFFCURVE",
"280 539 CURVE",
"175 539 LINE",
"290 425 LINE",
"290 475 LINE SMOOTH",
"290 556 OFFCURVE",
"247 605 OFFCURVE",
"175 605 CURVE SMOOTH",
"103 605 OFFCURVE",
"60 556 OFFCURVE",
"60 475 CURVE SMOOTH",
"60 -35 LINE SMOOTH",
"60 -116 OFFCURVE",
"103 -165 OFFCURVE",
"175 -165 CURVE SMOOTH"
);
},
{
closed = 1;
nodes = (
"337 190 OFFCURVE",
"290 237 OFFCURVE",
"290 300 CURVE SMOOTH",
"290 363 OFFCURVE",
"337 410 OFFCURVE",
"401 410 CURVE SMOOTH",
"465 410 OFFCURVE",
"512 363 OFFCURVE",
"512 300 CURVE SMOOTH",
"512 237 OFFCURVE",
"465 190 OFFCURVE",
"401 190 CURVE SMOOTH"
);
}
);
width = 765;
},
{
layerId = "928648ED-27D4-4C8B-90F5-D31CCAFF29AA";
paths = (
{
closed = 1;
nodes = (
"162 -165 OFFCURVE",
"180 -144 OFFCURVE",
"180 -111 CURVE SMOOTH",
"180 89 LINE",
"182 89 LINE",
"235 25 OFFCURVE",
"317 -10 OFFCURVE",
"411 -10 CURVE SMOOTH",
"595 -10 OFFCURVE",
"728 120 OFFCURVE",
"728 300 CURVE SMOOTH",
"728 480 OFFCURVE",
"595 610 OFFCURVE",
"411 610 CURVE SMOOTH",
"317 610 OFFCURVE",
"235 575 OFFCURVE",
"182 511 CURVE",
"131 511 LINE",
"180 390 LINE",
"180 551 LINE SMOOTH",
"180 584 OFFCURVE",
"162 605 OFFCURVE",
"131 605 CURVE SMOOTH",
"100 605 OFFCURVE",
"82 584 OFFCURVE",
"82 551 CURVE SMOOTH",
"82 -111 LINE SMOOTH",
"82 -144 OFFCURVE",
"100 -165 OFFCURVE",
"131 -165 CURVE SMOOTH"
);
},
{
closed = 1;
nodes = (
"276 76 OFFCURVE",
"180 171 OFFCURVE",
"180 300 CURVE SMOOTH",
"180 429 OFFCURVE",
"276 524 OFFCURVE",
"407 524 CURVE SMOOTH",
"539 524 OFFCURVE",
"634 429 OFFCURVE",
"634 300 CURVE SMOOTH",
"634 171 OFFCURVE",
"539 76 OFFCURVE",
"407 76 CURVE SMOOTH"
);
}
);
width = 773;
},
{
associatedMasterId = "928648ED-27D4-4C8B-90F5-D31CCAFF29AA";
layerId = "3E1E1096-9645-41D4-95E7-008B77FDB005";
name = "Bold {620}";
paths = (
{
closed = 1;
nodes = (
"201 -165 OFFCURVE",
"230 -131 OFFCURVE",
"230 -76 CURVE SMOOTH",
"230 71 LINE",
"232 71 LINE",
"281 18 OFFCURVE",
"351 -10 OFFCURVE",
"431 -10 CURVE SMOOTH",
"606 -10 OFFCURVE",
"730 119 OFFCURVE",
"730 300 CURVE SMOOTH",
"730 481 OFFCURVE",
"606 610 OFFCURVE",
"431 610 CURVE SMOOTH",
"349 610 OFFCURVE",
"277 582 OFFCURVE",
"231 528 CURVE",
"151 528 LINE",
"230 406 LINE",
"230 516 LINE SMOOTH",
"230 571 OFFCURVE",
"201 605 OFFCURVE",
"151 605 CURVE SMOOTH",
"101 605 OFFCURVE",
"72 571 OFFCURVE",
"72 516 CURVE SMOOTH",
"72 -76 LINE SMOOTH",
"72 -131 OFFCURVE",
"101 -165 OFFCURVE",
"151 -165 CURVE SMOOTH"
);
},
{
closed = 1;
nodes = (
"304 128 OFFCURVE",
"230 202 OFFCURVE",
"230 300 CURVE SMOOTH",
"230 398 OFFCURVE",
"304 472 OFFCURVE",
"404 472 CURVE SMOOTH",
"505 472 OFFCURVE",
"578 398 OFFCURVE",
"578 300 CURVE SMOOTH",
"578 202 OFFCURVE",
"505 128 OFFCURVE",
"404 128 CURVE SMOOTH"
);
}
);
width = 769;
},
{
associatedMasterId = "928648ED-27D4-4C8B-90F5-D31CCAFF29AA";
layerId = "9D91645C-7A88-4396-96E3-D14B071321FE";
name = "ExtraBold {756}";
paths = (
{
closed = 1;
nodes = (
"223 -165 OFFCURVE",
"259 -124 OFFCURVE",
"259 -56 CURVE SMOOTH",
"259 60 LINE",
"261 60 LINE",
"308 14 OFFCURVE",
"370 -10 OFFCURVE",
"443 -10 CURVE SMOOTH",
"612 -10 OFFCURVE",
"731 119 OFFCURVE",
"731 300 CURVE SMOOTH",
"731 481 OFFCURVE",
"612 610 OFFCURVE",
"443 610 CURVE SMOOTH",
"367 610 OFFCURVE",
"303 584 OFFCURVE",
"256 535 CURVE",
"163 535 LINE",
"259 415 LINE",
"259 496 LINE SMOOTH",
"259 564 OFFCURVE",
"223 605 OFFCURVE",
"163 605 CURVE SMOOTH",
"102 605 OFFCURVE",
"66 564 OFFCURVE",
"66 496 CURVE SMOOTH",
"66 -56 LINE SMOOTH",
"66 -124 OFFCURVE",
"102 -165 OFFCURVE",
"163 -165 CURVE SMOOTH"
);
},
{
closed = 1;
nodes = (
"320 158 OFFCURVE",
"259 219 OFFCURVE",
"259 300 CURVE SMOOTH",
"259 381 OFFCURVE",
"320 442 OFFCURVE",
"403 442 CURVE SMOOTH",
"486 442 OFFCURVE",
"546 381 OFFCURVE",
"546 300 CURVE SMOOTH",
"546 219 OFFCURVE",
"486 158 OFFCURVE",
"403 158 CURVE SMOOTH"
);
}
);
width = 767;
},
{
associatedMasterId = "1129C829-629B-4701-B210-BDBC9A77493B";
layerId = "C58120A9-AB6B-48DE-892B-25AB9F0D1023";
name = "ExtraLight {132}";
paths = (
{
closed = 1;
nodes = (
"124 -165 OFFCURVE",
"131 -158 OFFCURVE",
"131 -147 CURVE SMOOTH",
"131 155 LINE",
"133 155 LINE",
"180 53 OFFCURVE",
"287 -10 OFFCURVE",
"415 -10 CURVE SMOOTH",
"598 -10 OFFCURVE",
"730 122 OFFCURVE",
"730 300 CURVE SMOOTH",
"730 478 OFFCURVE",
"598 610 OFFCURVE",
"415 610 CURVE SMOOTH",
"287 610 OFFCURVE",
"180 547 OFFCURVE",
"133 445 CURVE",
"114 445 LINE",
"131 373 LINE",
"131 587 LINE SMOOTH",
"131 598 OFFCURVE",
"124 605 OFFCURVE",
"114 605 CURVE SMOOTH",
"104 605 OFFCURVE",
"97 598 OFFCURVE",
"97 587 CURVE SMOOTH",
"97 -147 LINE SMOOTH",
"97 -158 OFFCURVE",
"104 -165 OFFCURVE",
"114 -165 CURVE SMOOTH"
);
},
{
closed = 1;
nodes = (
"250 21 OFFCURVE",
"131 139 OFFCURVE",
"131 300 CURVE SMOOTH",
"131 461 OFFCURVE",
"250 579 OFFCURVE",
"414 579 CURVE SMOOTH",
"578 579 OFFCURVE",
"697 461 OFFCURVE",
"697 300 CURVE SMOOTH",
"697 139 OFFCURVE",
"578 21 OFFCURVE",
"414 21 CURVE SMOOTH"
);
}
);
width = 784;
}
);
leftKerningGroup = n;
leftMetricsKey = "=n";
rightKerningGroup = o;
rightMetricsKey = "=o";
unicode = 0070;
},
{
color = 10;
glyphname = r;
lastChange = "2020-09-27 07:06:42 +0000";
layers = (
{
layerId = "1129C829-629B-4701-B210-BDBC9A77493B";
paths = (
{
closed = 1;
nodes = (
"116 -5 OFFCURVE",
"120 -1 OFFCURVE",
"120 5 CURVE SMOOTH",
"120 300 LINE SMOOTH",
"120 482 OFFCURVE",
"257 590 OFFCURVE",
"489 590 CURVE SMOOTH",
"489 590 OFFCURVE",
"490 590 OFFCURVE",
"490 590 CURVE SMOOTH",
"496 590 OFFCURVE",
"500 594 OFFCURVE",
"500 600 CURVE SMOOTH",
"500 606 OFFCURVE",
"496 610 OFFCURVE",
"490 610 CURVE SMOOTH",
"302 610 OFFCURVE",
"171 540 OFFCURVE",
"122 419 CURVE",
"110 419 LINE",
"120 369 LINE",
"120 595 LINE SMOOTH",
"120 601 OFFCURVE",
"116 605 OFFCURVE",
"110 605 CURVE SMOOTH",
"104 605 OFFCURVE",
"100 601 OFFCURVE",
"100 595 CURVE SMOOTH",
"100 5 LINE SMOOTH",
"100 -1 OFFCURVE",
"104 -5 OFFCURVE",
"110 -5 CURVE SMOOTH"
);
}
);
width = 518;
},
{
associatedMasterId = "1129C829-629B-4701-B210-BDBC9A77493B";
layerId = "C8BE4571-E460-45A2-B835-A6C1C65FA38C";
name = "ExtraLight {132}";
paths = (
{
closed = 1;
nodes = (
"124 -5 OFFCURVE",
"131 2 OFFCURVE",
"131 13 CURVE SMOOTH",
"131 309 LINE SMOOTH",
"131 471 OFFCURVE",
"262 578 OFFCURVE",
"462 578 CURVE SMOOTH",
"473 578 OFFCURVE",
"483 577 OFFCURVE",
"490 577 CURVE SMOOTH",
"500 577 OFFCURVE",
"506 584 OFFCURVE",
"506 594 CURVE SMOOTH",
"506 604 OFFCURVE",
"499 610 OFFCURVE",
"487 610 CURVE SMOOTH",
"313 610 OFFCURVE",
"186 551 OFFCURVE",
"133 445 CURVE",
"114 445 LINE",
"131 373 LINE",
"131 587 LINE SMOOTH",
"131 598 OFFCURVE",
"124 605 OFFCURVE",
"114 605 CURVE SMOOTH",
"104 605 OFFCURVE",
"97 598 OFFCURVE",
"97 587 CURVE SMOOTH",
"97 13 LINE SMOOTH",
"97 2 OFFCURVE",
"104 -5 OFFCURVE",
"114 -5 CURVE SMOOTH"
);
}
);
width = 523;
},
{
layerId = "928648ED-27D4-4C8B-90F5-D31CCAFF29AA";
paths = (
{
closed = 1;
nodes = (
"161 -5 OFFCURVE",
"180 16 OFFCURVE",
"180 49 CURVE SMOOTH",
"180 296 LINE SMOOTH",
"180 435 OFFCURVE",
"278 518 OFFCURVE",
"444 518 CURVE SMOOTH",
"461 518 OFFCURVE",
"478 516 OFFCURVE",
"487 516 CURVE SMOOTH",
"516 516 OFFCURVE",
"534 535 OFFCURVE",
"534 563 CURVE SMOOTH",
"534 592 OFFCURVE",
"511 610 OFFCURVE",
"473 610 CURVE SMOOTH",
"347 610 OFFCURVE",
"226 569 OFFCURVE",
"182 511 CURVE",
"131 511 LINE",
"180 390 LINE",
"180 551 LINE SMOOTH",
"180 584 OFFCURVE",
"161 605 OFFCURVE",
"131 605 CURVE SMOOTH",
"101 605 OFFCURVE",
"82 584 OFFCURVE",
"82 551 CURVE SMOOTH",
"82 49 LINE SMOOTH",
"82 16 OFFCURVE",
"101 -5 OFFCURVE",
"131 -5 CURVE SMOOTH"
);
}
);
width = 548;
},
{
associatedMasterId = "928648ED-27D4-4C8B-90F5-D31CCAFF29AA";
layerId = "9881291E-5EDC-4512-BF30-7A304367F3D3";
name = "Bold {620}";
paths = (
{
closed = 1;
nodes = (
"200 -5 OFFCURVE",
"230 29 OFFCURVE",
"230 84 CURVE SMOOTH",
"230 293 LINE SMOOTH",
"230 398 OFFCURVE",
"303 461 OFFCURVE",
"424 461 CURVE SMOOTH",
"449 461 OFFCURVE",
"475 458 OFFCURVE",
"488 458 CURVE SMOOTH",
"535 458 OFFCURVE",
"564 488 OFFCURVE",
"564 534 CURVE SMOOTH",
"564 581 OFFCURVE",
"531 610 OFFCURVE",
"475 610 CURVE SMOOTH",
"379 610 OFFCURVE",
"276 576 OFFCURVE",
"231 528 CURVE",
"151 528 LINE",
"230 406 LINE",
"230 516 LINE SMOOTH",
"230 571 OFFCURVE",
"200 605 OFFCURVE",
"151 605 CURVE SMOOTH",
"101 605 OFFCURVE",
"72 571 OFFCURVE",
"72 516 CURVE SMOOTH",
"72 84 LINE SMOOTH",
"72 29 OFFCURVE",
"101 -5 OFFCURVE",
"151 -5 CURVE SMOOTH"
);
}
);
width = 577;
},
{
layerId = "C39F50C5-0462-4311-9594-9C3283D81B52";
paths = (
{
closed = 1;
nodes = (
"247 -5 OFFCURVE",
"290 44 OFFCURVE",
"290 125 CURVE SMOOTH",
"290 290 LINE SMOOTH",
"290 355 OFFCURVE",
"332 394 OFFCURVE",
"401 394 CURVE SMOOTH",
"436 394 OFFCURVE",
"471 390 OFFCURVE",
"490 390 CURVE SMOOTH",
"557 390 OFFCURVE",
"600 433 OFFCURVE",
"600 500 CURVE SMOOTH",
"600 569 OFFCURVE",
"554 610 OFFCURVE",
"479 610 CURVE SMOOTH",
"413 610 OFFCURVE",
"327 579 OFFCURVE",
"280 539 CURVE",
"175 539 LINE",
"290 425 LINE",
"290 475 LINE SMOOTH",
"290 556 OFFCURVE",
"247 605 OFFCURVE",
"175 605 CURVE SMOOTH",
"103 605 OFFCURVE",
"60 556 OFFCURVE",
"60 475 CURVE SMOOTH",
"60 125 LINE SMOOTH",
"60 44 OFFCURVE",
"103 -5 OFFCURVE",
"175 -5 CURVE SMOOTH"
);
}
);
width = 611;
},
{
associatedMasterId = "928648ED-27D4-4C8B-90F5-D31CCAFF29AA";
layerId = "5F84A1BA-46DC-46ED-9A8C-9ED692A56EF1";
name = "ExtraBold {756}";
paths = (
{
closed = 1;
nodes = (
"223 -5 OFFCURVE",
"259 36 OFFCURVE",
"259 104 CURVE SMOOTH",
"259 292 LINE SMOOTH",
"259 377 OFFCURVE",
"317 428 OFFCURVE",
"413 428 CURVE SMOOTH",
"443 428 OFFCURVE",
"473 425 OFFCURVE",
"489 425 CURVE SMOOTH",
"546 425 OFFCURVE",
"582 461 OFFCURVE",
"582 518 CURVE SMOOTH",
"582 575 OFFCURVE",
"542 610 OFFCURVE",
"477 610 CURVE SMOOTH",
"396 610 OFFCURVE",
"301 578 OFFCURVE",
"256 535 CURVE",
"163 535 LINE",
"259 415 LINE",
"259 496 LINE SMOOTH",
"259 564 OFFCURVE",
"223 605 OFFCURVE",
"163 605 CURVE SMOOTH",
"102 605 OFFCURVE",
"66 564 OFFCURVE",
"66 496 CURVE SMOOTH",
"66 104 LINE SMOOTH",
"66 36 OFFCURVE",
"102 -5 OFFCURVE",
"163 -5 CURVE SMOOTH"
);
}
);
width = 594;
}
);
leftKerningGroup = n;
leftMetricsKey = "=n";
rightKerningGroup = r;
rightMetricsKey = "=|f*.9";
unicode = 0072;
},
{
color = 10;
glyphname = s;
lastChange = "2020-10-07 10:18:32 +0000";
layers = (
{
layerId = "1129C829-629B-4701-B210-BDBC9A77493B";
paths = (
{
closed = 1;
nodes = (
"488 -10 OFFCURVE",
"590 51 OFFCURVE",
"590 151 CURVE SMOOTH",
"590 269 OFFCURVE",
"452 296 OFFCURVE",
"324 321 CURVE SMOOTH",
"199 345 OFFCURVE",
"84 368 OFFCURVE",
"84 461 CURVE SMOOTH",
"84 540 OFFCURVE",
"172 590 OFFCURVE",
"319 590 CURVE SMOOTH",
"409 590 OFFCURVE",
"502 571 OFFCURVE",
"551 543 CURVE SMOOTH",
"556 540 OFFCURVE",
"560 537 OFFCURVE",
"565 537 CURVE SMOOTH",
"571 537 OFFCURVE",
"575 541 OFFCURVE",
"575 546 CURVE SMOOTH",
"575 550 OFFCURVE",
"574 552 OFFCURVE",
"570 555 CURVE SMOOTH",
"521 587 OFFCURVE",
"419 610 OFFCURVE",
"319 610 CURVE SMOOTH",
"161 610 OFFCURVE",
"64 553 OFFCURVE",
"64 461 CURVE SMOOTH",
"64 351 OFFCURVE",
"195 326 OFFCURVE",
"320 301 CURVE SMOOTH",
"448 276 OFFCURVE",
"570 253 OFFCURVE",
"570 151 CURVE SMOOTH",
"570 64 OFFCURVE",
"477 10 OFFCURVE",
"319 10 CURVE SMOOTH",
"225 10 OFFCURVE",
"134 29 OFFCURVE",
"84 58 CURVE SMOOTH",
"79 61 OFFCURVE",
"74 64 OFFCURVE",
"70 64 CURVE SMOOTH",
"64 64 OFFCURVE",
"60 60 OFFCURVE",
"60 55 CURVE SMOOTH",
"60 51 OFFCURVE",
"61 49 OFFCURVE",
"65 46 CURVE SMOOTH",
"116 12 OFFCURVE",
"217 -10 OFFCURVE",
"319 -10 CURVE SMOOTH"
);
}
);
width = 650;
},
{
layerId = "928648ED-27D4-4C8B-90F5-D31CCAFF29AA";
paths = (
{
closed = 1;
nodes = (
"499 -10 OFFCURVE",
"603 54 OFFCURVE",
"603 162 CURVE SMOOTH",
"603 285 OFFCURVE",
"487 325 OFFCURVE",
"339 346 CURVE SMOOTH",
"228 365 OFFCURVE",
"146 379 OFFCURVE",
"146 443 CURVE SMOOTH",
"146 499 OFFCURVE",
"202 525 OFFCURVE",
"323 525 CURVE SMOOTH",
"393 525 OFFCURVE",
"469 510 OFFCURVE",
"518 487 CURVE SMOOTH",
"534 481 OFFCURVE",
"541 480 OFFCURVE",
"548 480 CURVE SMOOTH",
"573 480 OFFCURVE",
"592 498 OFFCURVE",
"592 523 CURVE SMOOTH",
"592 538 OFFCURVE",
"584 550 OFFCURVE",
"569 559 CURVE SMOOTH",
"519 590 OFFCURVE",
"424 610 OFFCURVE",
"320 610 CURVE SMOOTH",
"150 610 OFFCURVE",
"50 549 OFFCURVE",
"50 446 CURVE SMOOTH",
"50 328 OFFCURVE",
"161 289 OFFCURVE",
"308 268 CURVE SMOOTH",
"421 249 OFFCURVE",
"507 234 OFFCURVE",
"507 165 CURVE SMOOTH",
"507 103 OFFCURVE",
"448 75 OFFCURVE",
"320 75 CURVE SMOOTH",
"248 75 OFFCURVE",
"172 90 OFFCURVE",
"123 114 CURVE SMOOTH",
"106 121 OFFCURVE",
"100 122 OFFCURVE",
"92 122 CURVE SMOOTH",
"67 122 OFFCURVE",
"49 104 OFFCURVE",
"49 79 CURVE SMOOTH",
"49 63 OFFCURVE",
"55 53 OFFCURVE",
"69 42 CURVE SMOOTH",
"118 9 OFFCURVE",
"213 -10 OFFCURVE",
"323 -10 CURVE SMOOTH"
);
}
);
width = 652;
},
{
layerId = "C39F50C5-0462-4311-9594-9C3283D81B52";
paths = (
{
closed = 1;
nodes = (
"529 -10 OFFCURVE",
"636 59 OFFCURVE",
"636 181 CURVE SMOOTH",
"636 301 OFFCURVE",
"558 359 OFFCURVE",
"375 373 CURVE SMOOTH",
"296 379 OFFCURVE",
"280 384 OFFCURVE",
"280 403 CURVE SMOOTH",
"280 417 OFFCURVE",
"304 424 OFFCURVE",
"340 424 CURVE SMOOTH",
"376 424 OFFCURVE",
"423 417 OFFCURVE",
"471 402 CURVE SMOOTH",
"505 391 OFFCURVE",
"521 390 OFFCURVE",
"536 390 CURVE SMOOTH",
"591 390 OFFCURVE",
"631 430 OFFCURVE",
"631 486 CURVE SMOOTH",
"631 519 OFFCURVE",
"612 546 OFFCURVE",
"577 566 CURVE SMOOTH",
"527 595 OFFCURVE",
"444 610 OFFCURVE",
"332 610 CURVE SMOOTH",
"143 610 OFFCURVE",
"36 541 OFFCURVE",
"36 419 CURVE SMOOTH",
"36 299 OFFCURVE",
"114 241 OFFCURVE",
"297 227 CURVE SMOOTH",
"376 221 OFFCURVE",
"392 216 OFFCURVE",
"392 197 CURVE SMOOTH",
"392 183 OFFCURVE",
"368 176 OFFCURVE",
"332 176 CURVE SMOOTH",
"297 176 OFFCURVE",
"249 183 OFFCURVE",
"201 198 CURVE SMOOTH",
"167 207 OFFCURVE",
"151 210 OFFCURVE",
"136 210 CURVE SMOOTH",
"81 210 OFFCURVE",
"41 170 OFFCURVE",
"41 114 CURVE SMOOTH",
"41 82 OFFCURVE",
"56 56 OFFCURVE",
"86 36 CURVE SMOOTH",
"133 5 OFFCURVE",
"217 -10 OFFCURVE",
"340 -10 CURVE SMOOTH"
);
}
);
width = 672;
},
{
associatedMasterId = "928648ED-27D4-4C8B-90F5-D31CCAFF29AA";
layerId = "DCE3C5CF-B165-40DB-9165-2E0C46E9414C";
name = "ExtraBold {756}";
paths = (
{
closed = 1;
nodes = (
"521 -10 OFFCURVE",
"627 58 OFFCURVE",
"627 176 CURVE SMOOTH",
"627 302 OFFCURVE",
"538 358 OFFCURVE",
"365 373 CURVE SMOOTH",
"277 383 OFFCURVE",
"243 390 OFFCURVE",
"243 418 CURVE SMOOTH",
"243 441 OFFCURVE",
"276 452 OFFCURVE",
"335 452 CURVE SMOOTH",
"381 452 OFFCURVE",
"436 443 OFFCURVE",
"484 426 CURVE SMOOTH",
"513 416 OFFCURVE",
"527 415 OFFCURVE",
"539 415 CURVE SMOOTH",
"586 415 OFFCURVE",
"620 449 OFFCURVE",
"620 496 CURVE SMOOTH",
"620 524 OFFCURVE",
"604 547 OFFCURVE",
"575 564 CURVE SMOOTH",
"525 594 OFFCURVE",
"438 610 OFFCURVE",
"329 610 CURVE SMOOTH",
"145 610 OFFCURVE",
"40 543 OFFCURVE",
"40 427 CURVE SMOOTH",
"40 302 OFFCURVE",
"127 246 OFFCURVE",
"300 230 CURVE SMOOTH",
"389 221 OFFCURVE",
"424 214 OFFCURVE",
"424 184 CURVE SMOOTH",
"424 160 OFFCURVE",
"390 148 OFFCURVE",
"329 148 CURVE SMOOTH",
"283 148 OFFCURVE",
"228 157 OFFCURVE",
"179 175 CURVE SMOOTH",
"151 185 OFFCURVE",
"137 186 OFFCURVE",
"124 186 CURVE SMOOTH",
"77 186 OFFCURVE",
"43 152 OFFCURVE",
"43 104 CURVE SMOOTH",
"43 77 OFFCURVE",
"56 55 OFFCURVE",
"81 38 CURVE SMOOTH",
"129 6 OFFCURVE",
"216 -10 OFFCURVE",
"335 -10 CURVE SMOOTH"
);
}
);
width = 667;
}
);
leftKerningGroup = s;
leftMetricsKey = "=h*.6";
rightKerningGroup = s;
rightMetricsKey = "=|";
unicode = 0073;
},
{
color = 10;
glyphname = t;
lastChange = "2020-10-03 09:05:55 +0000";
layers = (
{
layerId = "928648ED-27D4-4C8B-90F5-D31CCAFF29AA";
rightMetricsKey = "=c*1.1";
paths = (
{
closed = 1;
nodes = (
"485 -10 OFFCURVE",
"540 3 OFFCURVE",
"594 34 CURVE SMOOTH",
"611 44 OFFCURVE",
"620 57 OFFCURVE",
"620 74 CURVE SMOOTH",
"620 99 OFFCURVE",
"601 117 OFFCURVE",
"575 117 CURVE SMOOTH",
"563 117 OFFCURVE",
"551 113 OFFCURVE",
"523 100 CURVE SMOOTH",
"480 81 OFFCURVE",
"458 76 OFFCURVE",
"424 76 CURVE SMOOTH",
"322 76 OFFCURVE",
"282 121 OFFCURVE",
"282 240 CURVE SMOOTH",
"282 711 LINE SMOOTH",
"282 744 OFFCURVE",
"263 765 OFFCURVE",
"233 765 CURVE SMOOTH",
"203 765 OFFCURVE",
"184 744 OFFCURVE",
"184 711 CURVE SMOOTH",
"184 240 LINE SMOOTH",
"184 64 OFFCURVE",
"252 -10 OFFCURVE",
"416 -10 CURVE SMOOTH"
);
},
{
closed = 1;
nodes = (
"573 459 LINE SMOOTH",
"603 459 OFFCURVE",
"620 475 OFFCURVE",
"620 502 CURVE SMOOTH",
"620 529 OFFCURVE",
"603 545 OFFCURVE",
"573 545 CURVE SMOOTH",
"65 545 LINE SMOOTH",
"35 545 OFFCURVE",
"18 529 OFFCURVE",
"18 502 CURVE SMOOTH",
"18 475 OFFCURVE",
"35 459 OFFCURVE",
"65 459 CURVE SMOOTH"
);
}
);
width = 683;
},
{
associatedMasterId = "C39F50C5-0462-4311-9594-9C3283D81B52";
background = {
paths = (
{
closed = 1;
nodes = (
"414 -5 OFFCURVE",
"459 45 OFFCURVE",
"459 129 CURVE SMOOTH",
"459 380 LINE",
"560 380 LINE SMOOTH",
"630 380 OFFCURVE",
"670 417 OFFCURVE",
"670 480 CURVE SMOOTH",
"670 543 OFFCURVE",
"630 580 OFFCURVE",
"560 580 CURVE SMOOTH",
"459 580 LINE",
"459 731 LINE SMOOTH",
"459 815 OFFCURVE",
"414 865 OFFCURVE",
"340 865 CURVE SMOOTH",
"266 865 OFFCURVE",
"221 815 OFFCURVE",
"221 731 CURVE SMOOTH",
"221 580 LINE",
"120 580 LINE SMOOTH",
"50 580 OFFCURVE",
"10 543 OFFCURVE",
"10 480 CURVE SMOOTH",
"10 417 OFFCURVE",
"50 380 OFFCURVE",
"120 380 CURVE SMOOTH",
"221 380 LINE",
"221 129 LINE SMOOTH",
"221 45 OFFCURVE",
"266 -5 OFFCURVE",
"340 -5 CURVE SMOOTH"
);
}
);
};
layerId = "E678FEFC-AD6E-4956-BD1A-864DD9CA1C11";
name = "Vertical \"t\"";
paths = (
{
closed = 1;
nodes = (
"414 -5 OFFCURVE",
"459 45 OFFCURVE",
"459 129 CURVE SMOOTH",
"459 380 LINE",
"560 380 LINE SMOOTH",
"630 380 OFFCURVE",
"670 417 OFFCURVE",
"670 480 CURVE SMOOTH",
"670 543 OFFCURVE",
"630 580 OFFCURVE",
"560 580 CURVE SMOOTH",
"459 580 LINE",
"459 601 LINE SMOOTH",
"459 685 OFFCURVE",
"414 735 OFFCURVE",
"340 735 CURVE SMOOTH",
"266 735 OFFCURVE",
"221 685 OFFCURVE",
"221 601 CURVE SMOOTH",
"221 580 LINE",
"120 580 LINE SMOOTH",
"50 580 OFFCURVE",
"10 543 OFFCURVE",
"10 480 CURVE SMOOTH",
"10 417 OFFCURVE",
"50 380 OFFCURVE",
"120 380 CURVE SMOOTH",
"221 380 LINE",
"221 129 LINE SMOOTH",
"221 45 OFFCURVE",
"266 -5 OFFCURVE",
"340 -5 CURVE SMOOTH"
);
}
);
width = 680;
},
{
associatedMasterId = "C39F50C5-0462-4311-9594-9C3283D81B52";
layerId = "023529CD-41D3-4B4D-B82C-15CA869C8BC6";
name = "Round \"t\"";
paths = (
{
closed = 1;
nodes = (
"670 600 OFFCURVE",
"710 563 OFFCURVE",
"710 500 CURVE SMOOTH",
"710 437 OFFCURVE",
"670 400 OFFCURVE",
"600 400 CURVE SMOOTH",
"120 400 LINE SMOOTH",
"50 400 OFFCURVE",
"10 437 OFFCURVE",
"10 500 CURVE SMOOTH",
"10 563 OFFCURVE",
"50 600 OFFCURVE",
"120 600 CURVE SMOOTH",
"600 600 LINE SMOOTH"
);
},
{
closed = 1;
nodes = (
"380 240 LINE SMOOTH",
"380 205 OFFCURVE",
"395 190 OFFCURVE",
"430 190 CURVE SMOOTH",
"465 190 OFFCURVE",
"480 205 OFFCURVE",
"480 240 CURVE SMOOTH",
"480 314 OFFCURVE",
"523 359 OFFCURVE",
"595 359 CURVE SMOOTH",
"667 359 OFFCURVE",
"710 314 OFFCURVE",
"710 240 CURVE SMOOTH",
"710 61 OFFCURVE",
"631 -10 OFFCURVE",
"430 -10 CURVE SMOOTH",
"229 -10 OFFCURVE",
"150 61 OFFCURVE",
"150 240 CURVE SMOOTH",
"150 441 LINE",
"380 441 LINE"
);
},
{
closed = 1;
nodes = (
"150 540 LINE",
"150 600 LINE SMOOTH",
"150 685 OFFCURVE",
"195 735 OFFCURVE",
"270 735 CURVE SMOOTH",
"345 735 OFFCURVE",
"390 685 OFFCURVE",
"390 600 CURVE SMOOTH",
"390 540 LINE"
);
}
);
width = 720;
},
{
layerId = "C39F50C5-0462-4311-9594-9C3283D81B52";
rightMetricsKey = "=c*1.2";
paths = (
{
closed = 1;
nodes = (
"491 -10 OFFCURVE",
"555 2 OFFCURVE",
"594 23 CURVE SMOOTH",
"633 44 OFFCURVE",
"653 74 OFFCURVE",
"653 114 CURVE SMOOTH",
"653 174 OFFCURVE",
"609 216 OFFCURVE",
"546 216 CURVE SMOOTH",
"529 216 OFFCURVE",
"513 213 OFFCURVE",
"484 202 CURVE SMOOTH",
"466 196 OFFCURVE",
"450 190 OFFCURVE",
"433 190 CURVE SMOOTH",
"405 190 OFFCURVE",
"391 206 OFFCURVE",
"391 240 CURVE SMOOTH",
"391 630 LINE SMOOTH",
"391 715 OFFCURVE",
"346 765 OFFCURVE",
"272 765 CURVE SMOOTH",
"198 765 OFFCURVE",
"153 715 OFFCURVE",
"153 630 CURVE SMOOTH",
"153 240 LINE SMOOTH",
"153 61 OFFCURVE",
"227 -10 OFFCURVE",
"413 -10 CURVE SMOOTH"
);
},
{
closed = 1;
nodes = (
"543 370 LINE SMOOTH",
"613 370 OFFCURVE",
"653 407 OFFCURVE",
"653 470 CURVE SMOOTH",
"653 533 OFFCURVE",
"613 570 OFFCURVE",
"543 570 CURVE SMOOTH",
"123 570 LINE SMOOTH",
"53 570 OFFCURVE",
"13 533 OFFCURVE",
"13 470 CURVE SMOOTH",
"13 407 OFFCURVE",
"53 370 OFFCURVE",
"123 370 CURVE SMOOTH"
);
}
);
width = 703;
},
{
layerId = "1129C829-629B-4701-B210-BDBC9A77493B";
rightMetricsKey = "=c*1.0";
paths = (
{
closed = 1;
nodes = (
"481 -10 OFFCURVE",
"538 7 OFFCURVE",
"595 41 CURVE SMOOTH",
"600 44 OFFCURVE",
"602 47 OFFCURVE",
"602 51 CURVE SMOOTH",
"602 56 OFFCURVE",
"598 60 OFFCURVE",
"593 60 CURVE SMOOTH",
"590 60 OFFCURVE",
"587 59 OFFCURVE",
"585 58 CURVE SMOOTH",
"530 25 OFFCURVE",
"477 10 OFFCURVE",
"420 10 CURVE SMOOTH",
"276 10 OFFCURVE",
"222 72 OFFCURVE",
"222 240 CURVE SMOOTH",
"222 755 LINE SMOOTH",
"222 761 OFFCURVE",
"218 765 OFFCURVE",
"212 765 CURVE SMOOTH",
"206 765 OFFCURVE",
"202 761 OFFCURVE",
"202 755 CURVE SMOOTH",
"202 240 LINE SMOOTH",
"202 61 OFFCURVE",
"264 -10 OFFCURVE",
"420 -10 CURVE SMOOTH"
);
},
{
closed = 1;
nodes = (
"592 510 LINE SMOOTH",
"598 510 OFFCURVE",
"602 514 OFFCURVE",
"602 520 CURVE SMOOTH",
"602 526 OFFCURVE",
"598 530 OFFCURVE",
"592 530 CURVE SMOOTH",
"32 530 LINE SMOOTH",
"26 530 OFFCURVE",
"22 526 OFFCURVE",
"22 520 CURVE SMOOTH",
"22 514 OFFCURVE",
"26 510 OFFCURVE",
"32 510 CURVE SMOOTH"
);
}
);
width = 672;
}
);
leftKerningGroup = t;
leftMetricsKey = "=f*1.1";
rightKerningGroup = c;
rightMetricsKey = "=c*1.2";
unicode = 0074;
},
{
color = 10;
glyphname = v;
lastChange = "2020-10-02 14:35:43 +0000";
layers = (
{
layerId = "1129C829-629B-4701-B210-BDBC9A77493B";
paths = (
{
closed = 1;
nodes = (
"350 -5 OFFCURVE",
"355 -3 OFFCURVE",
"359 4 CURVE SMOOTH",
"667 587 LINE SMOOTH",
"669 591 OFFCURVE",
"670 593 OFFCURVE",
"670 596 CURVE SMOOTH",
"670 601 OFFCURVE",
"666 605 OFFCURVE",
"661 605 CURVE SMOOTH",
"656 605 OFFCURVE",
"653 603 OFFCURVE",
"650 598 CURVE SMOOTH",
"346 22 LINE",
"344 22 LINE",
"40 598 LINE SMOOTH",
"37 603 OFFCURVE",
"34 605 OFFCURVE",
"29 605 CURVE SMOOTH",
"24 605 OFFCURVE",
"20 601 OFFCURVE",
"20 596 CURVE SMOOTH",
"20 593 OFFCURVE",
"21 591 OFFCURVE",
"23 587 CURVE SMOOTH",
"331 4 LINE SMOOTH",
"335 -3 OFFCURVE",
"340 -5 OFFCURVE",
"345 -5 CURVE SMOOTH"
);
}
);
width = 690;
},
{
layerId = "C39F50C5-0462-4311-9594-9C3283D81B52";
paths = (
{
closed = 1;
nodes = (
"427 -5 OFFCURVE",
"458 16 OFFCURVE",
"502 99 CURVE SMOOTH",
"685 441 LINE SMOOTH",
"694 458 OFFCURVE",
"698 475 OFFCURVE",
"698 494 CURVE SMOOTH",
"698 555 OFFCURVE",
"648 605 OFFCURVE",
"587 605 CURVE SMOOTH",
"541 605 OFFCURVE",
"506 583 OFFCURVE",
"486 545 CURVE SMOOTH",
"356 303 LINE",
"354 303 LINE",
"224 545 LINE SMOOTH",
"204 583 OFFCURVE",
"169 605 OFFCURVE",
"123 605 CURVE SMOOTH",
"62 605 OFFCURVE",
"12 555 OFFCURVE",
"12 494 CURVE SMOOTH",
"12 475 OFFCURVE",
"16 458 OFFCURVE",
"25 441 CURVE SMOOTH",
"208 99 LINE SMOOTH",
"252 16 OFFCURVE",
"283 -5 OFFCURVE",
"355 -5 CURVE SMOOTH"
);
}
);
width = 710;
},
{
layerId = "928648ED-27D4-4C8B-90F5-D31CCAFF29AA";
paths = (
{
closed = 1;
nodes = (
"378 -5 OFFCURVE",
"392 4 OFFCURVE",
"411 39 CURVE SMOOTH",
"673 533 LINE SMOOTH",
"678 542 OFFCURVE",
"680 550 OFFCURVE",
"680 558 CURVE SMOOTH",
"680 584 OFFCURVE",
"659 605 OFFCURVE",
"633 605 CURVE SMOOTH",
"613 605 OFFCURVE",
"598 596 OFFCURVE",
"589 578 CURVE SMOOTH",
"349 125 LINE",
"347 125 LINE",
"107 578 LINE SMOOTH",
"98 596 OFFCURVE",
"83 605 OFFCURVE",
"63 605 CURVE SMOOTH",
"37 605 OFFCURVE",
"16 584 OFFCURVE",
"16 558 CURVE SMOOTH",
"16 550 OFFCURVE",
"18 542 OFFCURVE",
"23 533 CURVE SMOOTH",
"285 39 LINE SMOOTH",
"304 4 OFFCURVE",
"318 -5 OFFCURVE",
"348 -5 CURVE SMOOTH"
);
}
);
width = 696;
}
);
leftKerningGroup = v;
leftMetricsKey = "=f";
rightKerningGroup = v;
rightMetricsKey = "=|";
unicode = 0076;
},
{
color = 10;
glyphname = w;
lastChange = "2020-10-02 14:32:43 +0000";
layers = (
{
layerId = "1129C829-629B-4701-B210-BDBC9A77493B";
paths = (
{
closed = 1;
nodes = (
"235 -5 OFFCURVE",
"243 0 OFFCURVE",
"247 10 CURVE",
"435 556 LINE",
"437 556 LINE",
"625 10 LINE",
"629 0 OFFCURVE",
"637 -5 OFFCURVE",
"646 -5 CURVE SMOOTH",
"656 -5 OFFCURVE",
"662 1 OFFCURVE",
"665 10 CURVE SMOOTH",
"835 590 LINE SMOOTH",
"836 594 OFFCURVE",
"836 596 OFFCURVE",
"836 596 CURVE",
"836 602 OFFCURVE",
"831 605 OFFCURVE",
"826 605 CURVE SMOOTH",
"821 605 OFFCURVE",
"818 603 OFFCURVE",
"816 596 CURVE SMOOTH",
"646 16 LINE",
"644 16 LINE",
"456 562 LINE SMOOTH",
"453 570 OFFCURVE",
"446 576 OFFCURVE",
"436 576 CURVE SMOOTH",
"426 576 OFFCURVE",
"419 570 OFFCURVE",
"416 562 CURVE SMOOTH",
"228 16 LINE",
"226 16 LINE",
"56 596 LINE SMOOTH",
"54 603 OFFCURVE",
"51 605 OFFCURVE",
"46 605 CURVE SMOOTH",
"41 605 OFFCURVE",
"36 602 OFFCURVE",
"36 596 CURVE",
"36 596 OFFCURVE",
"36 594 OFFCURVE",
"37 590 CURVE SMOOTH",
"207 10 LINE SMOOTH",
"210 1 OFFCURVE",
"216 -5 OFFCURVE",
"226 -5 CURVE SMOOTH"
);
}
);
width = 872;
},
{
layerId = "C39F50C5-0462-4311-9594-9C3283D81B52";
paths = (
{
closed = 1;
nodes = (
"326 -5 OFFCURVE",
"363 27 OFFCURVE",
"386 95 CURVE SMOOTH",
"441 260 LINE",
"443 260 LINE",
"498 95 LINE SMOOTH",
"520 27 OFFCURVE",
"558 -5 OFFCURVE",
"624 -5 CURVE SMOOTH",
"685 -5 OFFCURVE",
"730 29 OFFCURVE",
"750 94 CURVE SMOOTH",
"854 447 LINE SMOOTH",
"859 465 OFFCURVE",
"862 477 OFFCURVE",
"862 493 CURVE SMOOTH",
"862 555 OFFCURVE",
"812 605 OFFCURVE",
"750 605 CURVE SMOOTH",
"695 605 OFFCURVE",
"657 576 OFFCURVE",
"640 516 CURVE SMOOTH",
"593 355 LINE",
"591 355 LINE",
"560 492 LINE SMOOTH",
"544 562 OFFCURVE",
"505 594 OFFCURVE",
"442 594 CURVE SMOOTH",
"379 594 OFFCURVE",
"340 562 OFFCURVE",
"324 492 CURVE SMOOTH",
"293 355 LINE",
"291 355 LINE",
"244 516 LINE SMOOTH",
"227 576 OFFCURVE",
"189 605 OFFCURVE",
"134 605 CURVE SMOOTH",
"72 605 OFFCURVE",
"22 555 OFFCURVE",
"22 493 CURVE SMOOTH",
"22 477 OFFCURVE",
"24 465 OFFCURVE",
"30 447 CURVE SMOOTH",
"134 94 LINE SMOOTH",
"153 29 OFFCURVE",
"199 -5 OFFCURVE",
"260 -5 CURVE SMOOTH"
);
}
);
width = 884;
},
{
layerId = "928648ED-27D4-4C8B-90F5-D31CCAFF29AA";
paths = (
{
closed = 1;
nodes = (
"269 -5 OFFCURVE",
"289 10 OFFCURVE",
"300 42 CURVE SMOOTH",
"436 445 LINE",
"438 445 LINE",
"574 42 LINE SMOOTH",
"585 10 OFFCURVE",
"605 -5 OFFCURVE",
"636 -5 CURVE SMOOTH",
"665 -5 OFFCURVE",
"686 12 OFFCURVE",
"695 42 CURVE SMOOTH",
"841 535 LINE SMOOTH",
"843 542 OFFCURVE",
"845 550 OFFCURVE",
"845 557 CURVE SMOOTH",
"845 584 OFFCURVE",
"822 605 OFFCURVE",
"795 605 CURVE SMOOTH",
"772 605 OFFCURVE",
"755 593 OFFCURVE",
"747 566 CURVE SMOOTH",
"629 167 LINE",
"627 167 LINE",
"506 525 LINE SMOOTH",
"494 561 OFFCURVE",
"474 583 OFFCURVE",
"437 583 CURVE SMOOTH",
"400 583 OFFCURVE",
"380 561 OFFCURVE",
"368 525 CURVE SMOOTH",
"247 167 LINE",
"245 167 LINE",
"127 566 LINE SMOOTH",
"119 593 OFFCURVE",
"102 605 OFFCURVE",
"79 605 CURVE SMOOTH",
"52 605 OFFCURVE",
"29 584 OFFCURVE",
"29 557 CURVE SMOOTH",
"29 550 OFFCURVE",
"31 542 OFFCURVE",
"33 535 CURVE SMOOTH",
"179 42 LINE SMOOTH",
"188 12 OFFCURVE",
"209 -5 OFFCURVE",
"238 -5 CURVE SMOOTH"
);
}
);
width = 874;
},
{
associatedMasterId = "928648ED-27D4-4C8B-90F5-D31CCAFF29AA";
layerId = "7AEB1524-52C0-48D4-9FEE-0C90A44B0BE3";
name = "ExtraBold {756}";
paths = (
{
closed = 1;
nodes = (
"309 -5 OFFCURVE",
"342 22 OFFCURVE",
"361 80 CURVE SMOOTH",
"439 308 LINE",
"441 308 LINE",
"519 80 LINE SMOOTH",
"539 22 OFFCURVE",
"571 -5 OFFCURVE",
"627 -5 CURVE SMOOTH",
"679 -5 OFFCURVE",
"718 24 OFFCURVE",
"734 80 CURVE SMOOTH",
"850 471 LINE SMOOTH",
"855 486 OFFCURVE",
"857 497 OFFCURVE",
"857 511 CURVE SMOOTH",
"857 563 OFFCURVE",
"814 605 OFFCURVE",
"762 605 CURVE SMOOTH",
"716 605 OFFCURVE",
"684 581 OFFCURVE",
"669 530 CURVE SMOOTH",
"608 318 LINE",
"606 318 LINE",
"558 490 LINE SMOOTH",
"539 557 OFFCURVE",
"503 591 OFFCURVE",
"440 591 CURVE SMOOTH",
"377 591 OFFCURVE",
"341 557 OFFCURVE",
"322 490 CURVE SMOOTH",
"274 318 LINE",
"272 318 LINE",
"211 530 LINE SMOOTH",
"196 581 OFFCURVE",
"164 605 OFFCURVE",
"118 605 CURVE SMOOTH",
"66 605 OFFCURVE",
"23 563 OFFCURVE",
"23 511 CURVE SMOOTH",
"23 497 OFFCURVE",
"26 486 OFFCURVE",
"30 471 CURVE SMOOTH",
"146 80 LINE SMOOTH",
"163 24 OFFCURVE",
"201 -5 OFFCURVE",
"253 -5 CURVE SMOOTH"
);
}
);
width = 880;
}
);
leftKerningGroup = w;
leftMetricsKey = "=v*1.8";
rightKerningGroup = w;
rightMetricsKey = "=|";
unicode = 0077;
},
{
color = 10;
glyphname = x;
lastChange = "2020-10-03 09:13:39 +0000";
layers = (
{
layerId = "1129C829-629B-4701-B210-BDBC9A77493B";
paths = (
{
closed = 1;
nodes = (
"628 -5 OFFCURVE",
"626 -4 OFFCURVE",
"623 -1 CURVE SMOOTH",
"67 586 LINE SMOOTH",
"63 590 OFFCURVE",
"62 592 OFFCURVE",
"62 596 CURVE SMOOTH",
"62 601 OFFCURVE",
"66 605 OFFCURVE",
"72 605 CURVE SMOOTH",
"76 605 OFFCURVE",
"78 604 OFFCURVE",
"81 601 CURVE SMOOTH",
"637 14 LINE SMOOTH",
"640 10 OFFCURVE",
"642 8 OFFCURVE",
"642 4 CURVE SMOOTH",
"642 -1 OFFCURVE",
"638 -5 OFFCURVE",
"632 -5 CURVE SMOOTH"
);
},
{
closed = 1;
nodes = (
"66 -5 OFFCURVE",
"62 -1 OFFCURVE",
"62 4 CURVE SMOOTH",
"62 8 OFFCURVE",
"63 10 OFFCURVE",
"67 14 CURVE SMOOTH",
"623 601 LINE SMOOTH",
"626 604 OFFCURVE",
"628 605 OFFCURVE",
"632 605 CURVE SMOOTH",
"638 605 OFFCURVE",
"642 601 OFFCURVE",
"642 596 CURVE SMOOTH",
"642 592 OFFCURVE",
"640 590 OFFCURVE",
"637 586 CURVE SMOOTH",
"81 -1 LINE SMOOTH",
"78 -4 OFFCURVE",
"76 -5 OFFCURVE",
"72 -5 CURVE SMOOTH"
);
}
);
width = 704;
},
{
layerId = "C39F50C5-0462-4311-9594-9C3283D81B52";
paths = (
{
closed = 1;
nodes = (
"523 -5 OFFCURVE",
"508 5 OFFCURVE",
"476 35 CURVE SMOOTH",
"70 413 LINE SMOOTH",
"47 435 OFFCURVE",
"37 462 OFFCURVE",
"37 494 CURVE SMOOTH",
"37 556 OFFCURVE",
"86 605 OFFCURVE",
"148 605 CURVE SMOOTH",
"191 605 OFFCURVE",
"206 595 OFFCURVE",
"238 565 CURVE SMOOTH",
"644 187 LINE SMOOTH",
"667 165 OFFCURVE",
"677 138 OFFCURVE",
"677 106 CURVE SMOOTH",
"677 44 OFFCURVE",
"628 -5 OFFCURVE",
"566 -5 CURVE SMOOTH"
);
},
{
closed = 1;
nodes = (
"86 -5 OFFCURVE",
"37 44 OFFCURVE",
"37 106 CURVE SMOOTH",
"37 138 OFFCURVE",
"47 165 OFFCURVE",
"70 187 CURVE SMOOTH",
"476 565 LINE SMOOTH",
"508 595 OFFCURVE",
"523 605 OFFCURVE",
"566 605 CURVE SMOOTH",
"628 605 OFFCURVE",
"677 556 OFFCURVE",
"677 494 CURVE SMOOTH",
"677 462 OFFCURVE",
"667 435 OFFCURVE",
"644 413 CURVE SMOOTH",
"238 35 LINE SMOOTH",
"206 5 OFFCURVE",
"191 -5 OFFCURVE",
"148 -5 CURVE SMOOTH"
);
}
);
width = 714;
},
{
layerId = "928648ED-27D4-4C8B-90F5-D31CCAFF29AA";
paths = (
{
closed = 1;
nodes = (
"591 -5 OFFCURVE",
"580 -2 OFFCURVE",
"567 12 CURVE SMOOTH",
"66 522 LINE SMOOTH",
"55 533 OFFCURVE",
"51 544 OFFCURVE",
"51 558 CURVE SMOOTH",
"51 584 OFFCURVE",
"71 605 OFFCURVE",
"98 605 CURVE SMOOTH",
"113 605 OFFCURVE",
"123 602 OFFCURVE",
"137 588 CURVE SMOOTH",
"638 78 LINE SMOOTH",
"649 67 OFFCURVE",
"653 56 OFFCURVE",
"653 42 CURVE SMOOTH",
"653 16 OFFCURVE",
"632 -5 OFFCURVE",
"606 -5 CURVE SMOOTH"
);
},
{
closed = 1;
nodes = (
"71 -5 OFFCURVE",
"51 16 OFFCURVE",
"51 42 CURVE SMOOTH",
"51 56 OFFCURVE",
"55 67 OFFCURVE",
"66 78 CURVE SMOOTH",
"567 588 LINE SMOOTH",
"580 602 OFFCURVE",
"591 605 OFFCURVE",
"606 605 CURVE SMOOTH",
"632 605 OFFCURVE",
"653 584 OFFCURVE",
"653 558 CURVE SMOOTH",
"653 544 OFFCURVE",
"649 533 OFFCURVE",
"638 522 CURVE SMOOTH",
"137 12 LINE SMOOTH",
"123 -2 OFFCURVE",
"113 -5 OFFCURVE",
"98 -5 CURVE SMOOTH"
);
}
);
width = 704;
}
);
leftKerningGroup = x;
leftMetricsKey = "=|k*1.1";
rightKerningGroup = x;
rightMetricsKey = "=|";
unicode = 0078;
},
{
color = 10;
glyphname = y;
lastChange = "2020-10-07 10:20:04 +0000";
layers = (
{
layerId = "1129C829-629B-4701-B210-BDBC9A77493B";
paths = (
{
closed = 1;
nodes = (
"241 -165 OFFCURVE",
"244 -163 OFFCURVE",
"247 -158 CURVE SMOOTH",
"689 587 LINE SMOOTH",
"691 591 OFFCURVE",
"692 593 OFFCURVE",
"692 596 CURVE SMOOTH",
"692 601 OFFCURVE",
"688 605 OFFCURVE",
"683 605 CURVE SMOOTH",
"678 605 OFFCURVE",
"675 603 OFFCURVE",
"672 598 CURVE SMOOTH",
"358 67 LINE",
"356 67 LINE",
"42 598 LINE SMOOTH",
"39 603 OFFCURVE",
"36 605 OFFCURVE",
"31 605 CURVE SMOOTH",
"26 605 OFFCURVE",
"22 601 OFFCURVE",
"22 596 CURVE SMOOTH",
"22 593 OFFCURVE",
"23 591 OFFCURVE",
"25 587 CURVE SMOOTH",
"345 47 LINE",
"230 -147 LINE SMOOTH",
"228 -151 OFFCURVE",
"227 -153 OFFCURVE",
"227 -156 CURVE SMOOTH",
"227 -161 OFFCURVE",
"231 -165 OFFCURVE",
"236 -165 CURVE SMOOTH"
);
}
);
width = 714;
},
{
layerId = "928648ED-27D4-4C8B-90F5-D31CCAFF29AA";
paths = (
{
closed = 1;
nodes = (
"277 -165 OFFCURVE",
"291 -155 OFFCURVE",
"301 -138 CURVE SMOOTH",
"691 530 LINE SMOOTH",
"697 541 OFFCURVE",
"699 548 OFFCURVE",
"699 558 CURVE SMOOTH",
"699 584 OFFCURVE",
"678 605 OFFCURVE",
"653 605 CURVE SMOOTH",
"633 605 OFFCURVE",
"619 595 OFFCURVE",
"609 578 CURVE SMOOTH",
"362 158 LINE",
"360 158 LINE",
"109 578 LINE SMOOTH",
"99 595 OFFCURVE",
"85 605 OFFCURVE",
"65 605 CURVE SMOOTH",
"39 605 OFFCURVE",
"18 584 OFFCURVE",
"18 558 CURVE SMOOTH",
"18 548 OFFCURVE",
"21 540 OFFCURVE",
"27 530 CURVE SMOOTH",
"308 64 LINE",
"218 -90 LINE SMOOTH",
"212 -100 OFFCURVE",
"210 -108 OFFCURVE",
"210 -118 CURVE SMOOTH",
"210 -144 OFFCURVE",
"231 -165 OFFCURVE",
"257 -165 CURVE SMOOTH"
);
}
);
width = 717;
},
{
layerId = "C39F50C5-0462-4311-9594-9C3283D81B52";
paths = (
{
closed = 1;
nodes = (
"337 -165 OFFCURVE",
"371 -142 OFFCURVE",
"392 -105 CURVE SMOOTH",
"695 432 LINE SMOOTH",
"708 454 OFFCURVE",
"713 470 OFFCURVE",
"713 494 CURVE SMOOTH",
"713 555 OFFCURVE",
"663 605 OFFCURVE",
"602 605 CURVE SMOOTH",
"556 605 OFFCURVE",
"522 582 OFFCURVE",
"501 545 CURVE SMOOTH",
"370 310 LINE",
"368 310 LINE",
"225 545 LINE",
"203 581 OFFCURVE",
"170 605 OFFCURVE",
"124 605 CURVE SMOOTH",
"63 605 OFFCURVE",
"13 555 OFFCURVE",
"13 494 CURVE SMOOTH",
"13 470 OFFCURVE",
"18 453 OFFCURVE",
"31 432 CURVE SMOOTH",
"245 92 LINE",
"198 8 LINE SMOOTH",
"186 -14 OFFCURVE",
"180 -30 OFFCURVE",
"180 -54 CURVE SMOOTH",
"180 -115 OFFCURVE",
"230 -165 OFFCURVE",
"291 -165 CURVE SMOOTH"
);
}
);
width = 726;
}
);
leftKerningGroup = v;
leftMetricsKey = "=v*1.1";
rightKerningGroup = v;
rightMetricsKey = "=|";
unicode = 0079;
},
{
color = 10;
glyphname = z;
lastChange = "2020-10-02 14:38:10 +0000";
layers = (
{
layerId = "1129C829-629B-4701-B210-BDBC9A77493B";
paths = (
{
closed = 1;
nodes = (
"580 0 LINE SMOOTH",
"586 0 OFFCURVE",
"590 4 OFFCURVE",
"590 10 CURVE SMOOTH",
"590 16 OFFCURVE",
"586 20 OFFCURVE",
"580 20 CURVE SMOOTH",
"82 20 LINE",
"82 22 LINE",
"583 576 LINE",
"588 582 OFFCURVE",
"590 585 OFFCURVE",
"590 590 CURVE SMOOTH",
"590 596 OFFCURVE",
"586 600 OFFCURVE",
"580 600 CURVE SMOOTH",
"60 600 LINE SMOOTH",
"54 600 OFFCURVE",
"50 596 OFFCURVE",
"50 590 CURVE SMOOTH",
"50 584 OFFCURVE",
"54 580 OFFCURVE",
"60 580 CURVE SMOOTH",
"558 580 LINE",
"558 578 LINE",
"57 24 LINE",
"52 18 OFFCURVE",
"50 15 OFFCURVE",
"50 10 CURVE SMOOTH",
"50 4 OFFCURVE",
"54 0 OFFCURVE",
"60 0 CURVE SMOOTH"
);
}
);
width = 640;
},
{
layerId = "C39F50C5-0462-4311-9594-9C3283D81B52";
paths = (
{
closed = 1;
nodes = (
"522 0 LINE SMOOTH",
"591 0 OFFCURVE",
"630 36 OFFCURVE",
"630 98 CURVE SMOOTH",
"630 160 OFFCURVE",
"591 196 OFFCURVE",
"522 196 CURVE SMOOTH",
"355 196 LINE",
"355 198 LINE",
"585 397 LINE SMOOTH",
"617 426 OFFCURVE",
"630 452 OFFCURVE",
"630 490 CURVE SMOOTH",
"630 560 OFFCURVE",
"586 600 OFFCURVE",
"509 600 CURVE SMOOTH",
"138 600 LINE SMOOTH",
"69 600 OFFCURVE",
"30 564 OFFCURVE",
"30 502 CURVE SMOOTH",
"30 440 OFFCURVE",
"69 404 OFFCURVE",
"138 404 CURVE SMOOTH",
"305 404 LINE",
"305 402 LINE",
"75 203 LINE SMOOTH",
"43 174 OFFCURVE",
"30 148 OFFCURVE",
"30 110 CURVE SMOOTH",
"30 40 OFFCURVE",
"74 0 OFFCURVE",
"151 0 CURVE SMOOTH"
);
}
);
width = 660;
},
{
layerId = "928648ED-27D4-4C8B-90F5-D31CCAFF29AA";
paths = (
{
closed = 1;
nodes = (
"556 0 LINE SMOOTH",
"585 0 OFFCURVE",
"603 16 OFFCURVE",
"603 43 CURVE SMOOTH",
"603 70 OFFCURVE",
"585 86 OFFCURVE",
"556 86 CURVE SMOOTH",
"181 86 LINE",
"181 88 LINE",
"582 510 LINE SMOOTH",
"597 525 OFFCURVE",
"603 536 OFFCURVE",
"603 553 CURVE SMOOTH",
"603 583 OFFCURVE",
"584 600 OFFCURVE",
"552 600 CURVE SMOOTH",
"88 600 LINE SMOOTH",
"59 600 OFFCURVE",
"41 584 OFFCURVE",
"41 557 CURVE SMOOTH",
"41 530 OFFCURVE",
"59 514 OFFCURVE",
"88 514 CURVE SMOOTH",
"463 514 LINE",
"463 512 LINE",
"62 90 LINE SMOOTH",
"48 75 OFFCURVE",
"41 64 OFFCURVE",
"41 47 CURVE SMOOTH",
"41 17 OFFCURVE",
"59 0 OFFCURVE",
"92 0 CURVE SMOOTH"
);
}
);
width = 644;
}
);
leftKerningGroup = z;
leftMetricsKey = "=h*.5";
rightKerningGroup = z;
rightMetricsKey = "=|";
unicode = 007A;
},
{
glyphname = one;
lastChange = "2020-10-07 10:23:04 +0000";
layers = (
{
layerId = "1129C829-629B-4701-B210-BDBC9A77493B";
paths = (
{
closed = 1;
nodes = (
"426 -5 OFFCURVE",
"472 44 OFFCURVE",
"472 129 CURVE SMOOTH",
"472 564 LINE SMOOTH",
"472 673 OFFCURVE",
"415 730 OFFCURVE",
"306 730 CURVE SMOOTH",
"152 730 LINE SMOOTH",
"63 730 OFFCURVE",
"12 688 OFFCURVE",
"12 615 CURVE SMOOTH",
"12 542 OFFCURVE",
"63 500 OFFCURVE",
"152 500 CURVE SMOOTH",
"224 500 LINE",
"224 129 LINE SMOOTH",
"224 45 OFFCURVE",
"270 -5 OFFCURVE",
"348 -5 CURVE SMOOTH"
);
}
);
width = 600;
},
{
layerId = "C39F50C5-0462-4311-9594-9C3283D81B52";
paths = (
{
closed = 1;
nodes = (
"426 -5 OFFCURVE",
"472 44 OFFCURVE",
"472 129 CURVE SMOOTH",
"472 564 LINE SMOOTH",
"472 673 OFFCURVE",
"415 730 OFFCURVE",
"306 730 CURVE SMOOTH",
"152 730 LINE SMOOTH",
"63 730 OFFCURVE",
"12 688 OFFCURVE",
"12 615 CURVE SMOOTH",
"12 542 OFFCURVE",
"63 500 OFFCURVE",
"152 500 CURVE SMOOTH",
"224 500 LINE",
"224 129 LINE SMOOTH",
"224 45 OFFCURVE",
"270 -5 OFFCURVE",
"348 -5 CURVE SMOOTH"
);
}
);
width = 538;
},
{
layerId = "928648ED-27D4-4C8B-90F5-D31CCAFF29AA";
paths = (
{
closed = 1;
nodes = (
"426 -5 OFFCURVE",
"472 44 OFFCURVE",
"472 129 CURVE SMOOTH",
"472 564 LINE SMOOTH",
"472 673 OFFCURVE",
"415 730 OFFCURVE",
"306 730 CURVE SMOOTH",
"152 730 LINE SMOOTH",
"63 730 OFFCURVE",
"12 688 OFFCURVE",
"12 615 CURVE SMOOTH",
"12 542 OFFCURVE",
"63 500 OFFCURVE",
"152 500 CURVE SMOOTH",
"224 500 LINE",
"224 129 LINE SMOOTH",
"224 45 OFFCURVE",
"270 -5 OFFCURVE",
"348 -5 CURVE SMOOTH"
);
}
);
width = 600;
}
);
leftKerningGroup = T;
leftMetricsKey = "=T";
rightKerningGroup = I;
rightMetricsKey = "=I";
unicode = 0031;
},
{
glyphname = two;
lastChange = "2020-10-07 10:23:16 +0000";
layers = (
{
layerId = "1129C829-629B-4701-B210-BDBC9A77493B";
paths = (
{
closed = 1;
nodes = (
"531 0 LINE SMOOTH",
"603 0 OFFCURVE",
"644 38 OFFCURVE",
"644 104 CURVE SMOOTH",
"644 170 OFFCURVE",
"603 208 OFFCURVE",
"531 208 CURVE SMOOTH",
"377 208 LINE",
"377 210 LINE",
"561 309 OFFCURVE",
"634 395 OFFCURVE",
"634 511 CURVE SMOOTH",
"634 662 OFFCURVE",
"528 740 OFFCURVE",
"321 740 CURVE SMOOTH",
"191 740 OFFCURVE",
"87 709 OFFCURVE",
"52 660 CURVE SMOOTH",
"40 644 OFFCURVE",
"34 625 OFFCURVE",
"34 603 CURVE SMOOTH",
"34 541 OFFCURVE",
"82 493 OFFCURVE",
"144 493 CURVE SMOOTH",
"159 493 OFFCURVE",
"182 496 OFFCURVE",
"197 501 CURVE SMOOTH",
"265 522 OFFCURVE",
"278 525 OFFCURVE",
"300 525 CURVE SMOOTH",
"351 525 OFFCURVE",
"375 508 OFFCURVE",
"375 473 CURVE SMOOTH",
"375 430 OFFCURVE",
"339 401 OFFCURVE",
"134 280 CURVE",
"50 233 OFFCURVE",
"24 199 OFFCURVE",
"24 141 CURVE SMOOTH",
"24 54 OFFCURVE",
"82 0 OFFCURVE",
"176 0 CURVE SMOOTH"
);
}
);
width = 600;
},
{
layerId = "C39F50C5-0462-4311-9594-9C3283D81B52";
paths = (
{
closed = 1;
nodes = (
"531 0 LINE SMOOTH",
"603 0 OFFCURVE",
"644 38 OFFCURVE",
"644 104 CURVE SMOOTH",
"644 170 OFFCURVE",
"603 208 OFFCURVE",
"531 208 CURVE SMOOTH",
"377 208 LINE",
"377 210 LINE",
"561 309 OFFCURVE",
"634 395 OFFCURVE",
"634 511 CURVE SMOOTH",
"634 662 OFFCURVE",
"528 740 OFFCURVE",
"321 740 CURVE SMOOTH",
"191 740 OFFCURVE",
"87 709 OFFCURVE",
"52 660 CURVE SMOOTH",
"40 644 OFFCURVE",
"34 625 OFFCURVE",
"34 603 CURVE SMOOTH",
"34 541 OFFCURVE",
"82 493 OFFCURVE",
"144 493 CURVE SMOOTH",
"159 493 OFFCURVE",
"182 496 OFFCURVE",
"197 501 CURVE SMOOTH",
"265 522 OFFCURVE",
"278 525 OFFCURVE",
"300 525 CURVE SMOOTH",
"351 525 OFFCURVE",
"375 508 OFFCURVE",
"375 473 CURVE SMOOTH",
"375 430 OFFCURVE",
"339 401 OFFCURVE",
"134 280 CURVE",
"50 233 OFFCURVE",
"24 199 OFFCURVE",
"24 141 CURVE SMOOTH",
"24 54 OFFCURVE",
"82 0 OFFCURVE",
"176 0 CURVE SMOOTH"
);
}
);
width = 668;
},
{
layerId = "928648ED-27D4-4C8B-90F5-D31CCAFF29AA";
paths = (
{
closed = 1;
nodes = (
"531 0 LINE SMOOTH",
"603 0 OFFCURVE",
"644 38 OFFCURVE",
"644 104 CURVE SMOOTH",
"644 170 OFFCURVE",
"603 208 OFFCURVE",
"531 208 CURVE SMOOTH",
"377 208 LINE",
"377 210 LINE",
"561 309 OFFCURVE",
"634 395 OFFCURVE",
"634 511 CURVE SMOOTH",
"634 662 OFFCURVE",
"528 740 OFFCURVE",
"321 740 CURVE SMOOTH",
"191 740 OFFCURVE",
"87 709 OFFCURVE",
"52 660 CURVE SMOOTH",
"40 644 OFFCURVE",
"34 625 OFFCURVE",
"34 603 CURVE SMOOTH",
"34 541 OFFCURVE",
"82 493 OFFCURVE",
"144 493 CURVE SMOOTH",
"159 493 OFFCURVE",
"182 496 OFFCURVE",
"197 501 CURVE SMOOTH",
"265 522 OFFCURVE",
"278 525 OFFCURVE",
"300 525 CURVE SMOOTH",
"351 525 OFFCURVE",
"375 508 OFFCURVE",
"375 473 CURVE SMOOTH",
"375 430 OFFCURVE",
"339 401 OFFCURVE",
"134 280 CURVE",
"50 233 OFFCURVE",
"24 199 OFFCURVE",
"24 141 CURVE SMOOTH",
"24 54 OFFCURVE",
"82 0 OFFCURVE",
"176 0 CURVE SMOOTH"
);
}
);
width = 600;
}
);
leftKerningGroup = Z;
leftMetricsKey = "=Z";
rightKerningGroup = Z;
rightMetricsKey = "=|";
unicode = 0032;
},
{
glyphname = three;
lastChange = "2020-10-07 10:23:23 +0000";
layers = (
{
layerId = "1129C829-629B-4701-B210-BDBC9A77493B";
paths = (
{
closed = 1;
nodes = (
"541 -10 OFFCURVE",
"656 65 OFFCURVE",
"656 205 CURVE SMOOTH",
"656 276 OFFCURVE",
"627 326 OFFCURVE",
"564 366 CURVE",
"564 368 LINE",
"625 410 OFFCURVE",
"651 456 OFFCURVE",
"651 525 CURVE SMOOTH",
"651 667 OFFCURVE",
"542 740 OFFCURVE",
"330 740 CURVE SMOOTH",
"231 740 OFFCURVE",
"152 725 OFFCURVE",
"99 698 CURVE SMOOTH",
"52 674 OFFCURVE",
"26 640 OFFCURVE",
"26 599 CURVE SMOOTH",
"26 538 OFFCURVE",
"71 493 OFFCURVE",
"132 493 CURVE SMOOTH",
"152 493 OFFCURVE",
"178 498 OFFCURVE",
"219 510 CURVE SMOOTH",
"294 531 OFFCURVE",
"310 534 OFFCURVE",
"342 534 CURVE SMOOTH",
"390 534 OFFCURVE",
"410 523 OFFCURVE",
"410 497 CURVE SMOOTH",
"410 462 OFFCURVE",
"375 454 OFFCURVE",
"223 454 CURVE SMOOTH",
"161 454 OFFCURVE",
"126 423 OFFCURVE",
"126 366 CURVE SMOOTH",
"126 309 OFFCURVE",
"161 278 OFFCURVE",
"223 278 CURVE SMOOTH",
"383 278 OFFCURVE",
"415 271 OFFCURVE",
"415 238 CURVE SMOOTH",
"415 208 OFFCURVE",
"392 196 OFFCURVE",
"337 196 CURVE SMOOTH",
"306 196 OFFCURVE",
"283 200 OFFCURVE",
"214 220 CURVE SMOOTH",
"173 232 OFFCURVE",
"147 237 OFFCURVE",
"127 237 CURVE SMOOTH",
"66 237 OFFCURVE",
"21 192 OFFCURVE",
"21 131 CURVE SMOOTH",
"21 80 OFFCURVE",
"53 43 OFFCURVE",
"115 19 CURVE SMOOTH",
"165 0 OFFCURVE",
"236 -10 OFFCURVE",
"325 -10 CURVE SMOOTH"
);
}
);
width = 600;
},
{
layerId = "928648ED-27D4-4C8B-90F5-D31CCAFF29AA";
paths = (
{
closed = 1;
nodes = (
"541 -10 OFFCURVE",
"656 65 OFFCURVE",
"656 205 CURVE SMOOTH",
"656 276 OFFCURVE",
"627 326 OFFCURVE",
"564 366 CURVE",
"564 368 LINE",
"625 410 OFFCURVE",
"651 456 OFFCURVE",
"651 525 CURVE SMOOTH",
"651 667 OFFCURVE",
"542 740 OFFCURVE",
"330 740 CURVE SMOOTH",
"231 740 OFFCURVE",
"152 725 OFFCURVE",
"99 698 CURVE SMOOTH",
"52 674 OFFCURVE",
"26 640 OFFCURVE",
"26 599 CURVE SMOOTH",
"26 538 OFFCURVE",
"71 493 OFFCURVE",
"132 493 CURVE SMOOTH",
"152 493 OFFCURVE",
"178 498 OFFCURVE",
"219 510 CURVE SMOOTH",
"294 531 OFFCURVE",
"310 534 OFFCURVE",
"342 534 CURVE SMOOTH",
"390 534 OFFCURVE",
"410 523 OFFCURVE",
"410 497 CURVE SMOOTH",
"410 462 OFFCURVE",
"375 454 OFFCURVE",
"223 454 CURVE SMOOTH",
"161 454 OFFCURVE",
"126 423 OFFCURVE",
"126 366 CURVE SMOOTH",
"126 309 OFFCURVE",
"161 278 OFFCURVE",
"223 278 CURVE SMOOTH",
"383 278 OFFCURVE",
"415 271 OFFCURVE",
"415 238 CURVE SMOOTH",
"415 208 OFFCURVE",
"392 196 OFFCURVE",
"337 196 CURVE SMOOTH",
"306 196 OFFCURVE",
"283 200 OFFCURVE",
"214 220 CURVE SMOOTH",
"173 232 OFFCURVE",
"147 237 OFFCURVE",
"127 237 CURVE SMOOTH",
"66 237 OFFCURVE",
"21 192 OFFCURVE",
"21 131 CURVE SMOOTH",
"21 80 OFFCURVE",
"53 43 OFFCURVE",
"115 19 CURVE SMOOTH",
"165 0 OFFCURVE",
"236 -10 OFFCURVE",
"325 -10 CURVE SMOOTH"
);
}
);
width = 600;
},
{
layerId = "C39F50C5-0462-4311-9594-9C3283D81B52";
paths = (
{
closed = 1;
nodes = (
"541 -10 OFFCURVE",
"656 65 OFFCURVE",
"656 205 CURVE SMOOTH",
"656 276 OFFCURVE",
"627 326 OFFCURVE",
"564 366 CURVE",
"564 368 LINE",
"625 410 OFFCURVE",
"651 456 OFFCURVE",
"651 525 CURVE SMOOTH",
"651 667 OFFCURVE",
"542 740 OFFCURVE",
"330 740 CURVE SMOOTH",
"231 740 OFFCURVE",
"152 725 OFFCURVE",
"99 698 CURVE SMOOTH",
"52 674 OFFCURVE",
"26 640 OFFCURVE",
"26 599 CURVE SMOOTH",
"26 538 OFFCURVE",
"71 493 OFFCURVE",
"132 493 CURVE SMOOTH",
"152 493 OFFCURVE",
"178 498 OFFCURVE",
"219 510 CURVE SMOOTH",
"294 531 OFFCURVE",
"310 534 OFFCURVE",
"342 534 CURVE SMOOTH",
"390 534 OFFCURVE",
"410 523 OFFCURVE",
"410 497 CURVE SMOOTH",
"410 462 OFFCURVE",
"375 454 OFFCURVE",
"223 454 CURVE SMOOTH",
"161 454 OFFCURVE",
"126 423 OFFCURVE",
"126 366 CURVE SMOOTH",
"126 309 OFFCURVE",
"161 278 OFFCURVE",
"223 278 CURVE SMOOTH",
"383 278 OFFCURVE",
"415 271 OFFCURVE",
"415 238 CURVE SMOOTH",
"415 208 OFFCURVE",
"392 196 OFFCURVE",
"337 196 CURVE SMOOTH",
"306 196 OFFCURVE",
"283 200 OFFCURVE",
"214 220 CURVE SMOOTH",
"173 232 OFFCURVE",
"147 237 OFFCURVE",
"127 237 CURVE SMOOTH",
"66 237 OFFCURVE",
"21 192 OFFCURVE",
"21 131 CURVE SMOOTH",
"21 80 OFFCURVE",
"53 43 OFFCURVE",
"115 19 CURVE SMOOTH",
"165 0 OFFCURVE",
"236 -10 OFFCURVE",
"325 -10 CURVE SMOOTH"
);
}
);
width = 692;
}
);
leftKerningGroup = "3";
leftMetricsKey = "=|E*.5";
rightKerningGroup = "3";
rightMetricsKey = "=H*.6";
unicode = 0033;
},
{
glyphname = four;
lastChange = "2020-10-07 10:23:32 +0000";
layers = (
{
layerId = "1129C829-629B-4701-B210-BDBC9A77493B";
paths = (
{
closed = 1;
nodes = (
"18 302 OFFCURVE",
"12 281 OFFCURVE",
"12 255 CURVE SMOOTH",
"12 189 OFFCURVE",
"54 150 OFFCURVE",
"126 150 CURVE SMOOTH",
"388 150 LINE",
"388 125 LINE SMOOTH",
"388 44 OFFCURVE",
"433 -5 OFFCURVE",
"508 -5 CURVE SMOOTH",
"583 -5 OFFCURVE",
"628 44 OFFCURVE",
"628 125 CURVE SMOOTH",
"628 150 LINE",
"658 150 LINE SMOOTH",
"730 150 OFFCURVE",
"772 189 OFFCURVE",
"772 255 CURVE SMOOTH",
"772 322 OFFCURVE",
"730 360 OFFCURVE",
"658 360 CURVE SMOOTH",
"628 360 LINE",
"628 567 LINE SMOOTH",
"628 672 OFFCURVE",
"570 735 OFFCURVE",
"473 735 CURVE SMOOTH",
"423 735 OFFCURVE",
"388 722 OFFCURVE",
"357 688 CURVE",
"30 319 LINE"
);
},
{
closed = 1;
nodes = (
"517 578 LINE",
"428 605 LINE",
"428 320 LINE",
"126 320 LINE",
"190 209 LINE"
);
}
);
width = 600;
},
{
layerId = "928648ED-27D4-4C8B-90F5-D31CCAFF29AA";
paths = (
{
closed = 1;
nodes = (
"18 302 OFFCURVE",
"12 281 OFFCURVE",
"12 255 CURVE SMOOTH",
"12 189 OFFCURVE",
"54 150 OFFCURVE",
"126 150 CURVE SMOOTH",
"388 150 LINE",
"388 125 LINE SMOOTH",
"388 44 OFFCURVE",
"433 -5 OFFCURVE",
"508 -5 CURVE SMOOTH",
"583 -5 OFFCURVE",
"628 44 OFFCURVE",
"628 125 CURVE SMOOTH",
"628 150 LINE",
"658 150 LINE SMOOTH",
"730 150 OFFCURVE",
"772 189 OFFCURVE",
"772 255 CURVE SMOOTH",
"772 322 OFFCURVE",
"730 360 OFFCURVE",
"658 360 CURVE SMOOTH",
"628 360 LINE",
"628 567 LINE SMOOTH",
"628 672 OFFCURVE",
"570 735 OFFCURVE",
"473 735 CURVE SMOOTH",
"423 735 OFFCURVE",
"388 722 OFFCURVE",
"357 688 CURVE",
"30 319 LINE"
);
},
{
closed = 1;
nodes = (
"517 578 LINE",
"428 605 LINE",
"428 320 LINE",
"126 320 LINE",
"190 209 LINE"
);
}
);
width = 600;
},
{
layerId = "C39F50C5-0462-4311-9594-9C3283D81B52";
paths = (
{
closed = 1;
nodes = (
"18 302 OFFCURVE",
"12 281 OFFCURVE",
"12 255 CURVE SMOOTH",
"12 189 OFFCURVE",
"54 150 OFFCURVE",
"126 150 CURVE SMOOTH",
"388 150 LINE",
"388 125 LINE SMOOTH",
"388 44 OFFCURVE",
"433 -5 OFFCURVE",
"508 -5 CURVE SMOOTH",
"583 -5 OFFCURVE",
"628 44 OFFCURVE",
"628 125 CURVE SMOOTH",
"628 150 LINE",
"658 150 LINE SMOOTH",
"730 150 OFFCURVE",
"772 189 OFFCURVE",
"772 255 CURVE SMOOTH",
"772 322 OFFCURVE",
"730 360 OFFCURVE",
"658 360 CURVE SMOOTH",
"628 360 LINE",
"628 567 LINE SMOOTH",
"628 672 OFFCURVE",
"570 735 OFFCURVE",
"473 735 CURVE SMOOTH",
"423 735 OFFCURVE",
"388 722 OFFCURVE",
"357 688 CURVE",
"30 319 LINE"
);
},
{
closed = 1;
nodes = (
"517 578 LINE",
"428 605 LINE",
"428 320 LINE",
"126 320 LINE",
"190 209 LINE"
);
}
);
width = 784;
},
{
associatedMasterId = "C39F50C5-0462-4311-9594-9C3283D81B52";
layerId = "54AE468D-0B53-4DB8-861C-B7B9A81F70C7";
name = "Oct 7 20, 18:50";
paths = (
{
closed = 1;
nodes = (
"579 -5 OFFCURVE",
"624 44 OFFCURVE",
"624 125 CURVE SMOOTH",
"624 170 LINE",
"654 170 LINE SMOOTH",
"726 170 OFFCURVE",
"768 209 OFFCURVE",
"768 275 CURVE SMOOTH",
"768 342 OFFCURVE",
"726 380 OFFCURVE",
"654 380 CURVE SMOOTH",
"624 380 LINE",
"624 605 LINE SMOOTH",
"624 686 OFFCURVE",
"579 735 OFFCURVE",
"504 735 CURVE SMOOTH",
"429 735 OFFCURVE",
"384 686 OFFCURVE",
"384 605 CURVE SMOOTH",
"384 380 LINE",
"288 380 LINE",
"288 605 LINE SMOOTH",
"288 686 OFFCURVE",
"243 735 OFFCURVE",
"168 735 CURVE SMOOTH",
"93 735 OFFCURVE",
"48 686 OFFCURVE",
"48 605 CURVE SMOOTH",
"48 336 LINE SMOOTH",
"48 227 OFFCURVE",
"105 170 OFFCURVE",
"214 170 CURVE SMOOTH",
"384 170 LINE",
"384 125 LINE SMOOTH",
"384 44 OFFCURVE",
"429 -5 OFFCURVE",
"504 -5 CURVE SMOOTH"
);
}
);
width = 780;
}
);
leftMetricsKey = "=A";
rightMetricsKey = "=L";
unicode = 0034;
},
{
color = 10;
glyphname = period;
lastChange = "2020-10-04 08:13:58 +0000";
layers = (
{
layerId = "1129C829-629B-4701-B210-BDBC9A77493B";
paths = (
{
closed = 1;
nodes = (
"163 -5 OFFCURVE",
"180 11 OFFCURVE",
"180 35 CURVE SMOOTH",
"180 59 OFFCURVE",
"163 75 OFFCURVE",
"140 75 CURVE SMOOTH",
"117 75 OFFCURVE",
"100 59 OFFCURVE",
"100 35 CURVE SMOOTH",
"100 11 OFFCURVE",
"117 -5 OFFCURVE",
"140 -5 CURVE SMOOTH"
);
}
);
width = 280;
},
{
layerId = "C39F50C5-0462-4311-9594-9C3283D81B52";
paths = (
{
closed = 1;
nodes = (
"251 -5 OFFCURVE",
"302 42 OFFCURVE",
"302 108 CURVE SMOOTH",
"302 174 OFFCURVE",
"251 221 OFFCURVE",
"181 221 CURVE SMOOTH",
"111 221 OFFCURVE",
"60 174 OFFCURVE",
"60 108 CURVE SMOOTH",
"60 42 OFFCURVE",
"111 -5 OFFCURVE",
"181 -5 CURVE SMOOTH"
);
}
);
width = 362;
},
{
layerId = "928648ED-27D4-4C8B-90F5-D31CCAFF29AA";
paths = (
{
closed = 1;
nodes = (
"183 -5 OFFCURVE",
"210 19 OFFCURVE",
"210 56 CURVE SMOOTH",
"210 93 OFFCURVE",
"183 117 OFFCURVE",
"146 117 CURVE SMOOTH",
"109 117 OFFCURVE",
"82 93 OFFCURVE",
"82 56 CURVE SMOOTH",
"82 19 OFFCURVE",
"109 -5 OFFCURVE",
"146 -5 CURVE SMOOTH"
);
}
);
width = 292;
}
);
leftMetricsKey = "=H";
rightMetricsKey = "=|";
unicode = 002E;
},
{
color = 10;
glyphname = comma;
lastChange = "2020-10-04 11:48:34 +0000";
layers = (
{
layerId = "1129C829-629B-4701-B210-BDBC9A77493B";
rightMetricsKey = "=69";
paths = (
{
closed = 1;
nodes = (
"14 -165 OFFCURVE",
"17 -163 OFFCURVE",
"20 -158 CURVE SMOOTH",
"148 58 LINE SMOOTH",
"150 61 OFFCURVE",
"151 63 OFFCURVE",
"151 66 CURVE SMOOTH",
"151 71 OFFCURVE",
"147 75 OFFCURVE",
"142 75 CURVE SMOOTH",
"137 75 OFFCURVE",
"134 73 OFFCURVE",
"131 68 CURVE",
"3 -148 LINE SMOOTH",
"1 -151 OFFCURVE",
"0 -153 OFFCURVE",
"0 -156 CURVE SMOOTH",
"0 -161 OFFCURVE",
"4 -165 OFFCURVE",
"9 -165 CURVE SMOOTH"
);
}
);
width = 220;
},
{
layerId = "928648ED-27D4-4C8B-90F5-D31CCAFF29AA";
rightMetricsKey = "=85";
paths = (
{
closed = 1;
nodes = (
"62 -165 OFFCURVE",
"76 -156 OFFCURVE",
"86 -142 CURVE",
"197 27 LINE SMOOTH",
"204 38 OFFCURVE",
"207 48 OFFCURVE",
"207 62 CURVE SMOOTH",
"207 95 OFFCURVE",
"182 117 OFFCURVE",
"149 117 CURVE SMOOTH",
"121 117 OFFCURVE",
"104 105 OFFCURVE",
"91 79 CURVE",
"7 -94 LINE",
"3 -103 OFFCURVE",
"0 -110 OFFCURVE",
"0 -120 CURVE SMOOTH",
"0 -145 OFFCURVE",
"20 -165 OFFCURVE",
"45 -165 CURVE SMOOTH"
);
}
);
width = 292;
},
{
layerId = "C39F50C5-0462-4311-9594-9C3283D81B52";
rightMetricsKey = "=52";
paths = (
{
closed = 1;
nodes = (
"130 -165 OFFCURVE",
"157 -147 OFFCURVE",
"178 -116 CURVE",
"289 49 LINE SMOOTH",
"301 67 OFFCURVE",
"310 89 OFFCURVE",
"310 114 CURVE SMOOTH",
"310 177 OFFCURVE",
"261 221 OFFCURVE",
"196 221 CURVE SMOOTH",
"146 221 OFFCURVE",
"107 198 OFFCURVE",
"84 143 CURVE SMOOTH",
"9 -37 LINE",
"4 -50 OFFCURVE",
"0 -62 OFFCURVE",
"0 -78 CURVE SMOOTH",
"0 -129 OFFCURVE",
"39 -165 OFFCURVE",
"92 -165 CURVE SMOOTH"
);
}
);
width = 362;
}
);
leftMetricsKey = "=0";
rightMetricsKey = "=period*.4";
unicode = 002C;
},
